<?xml version="1.0" encoding="UTF-8" standalone="no"?>
<!-- Created with Inkscape (http://www.inkscape.org/) -->

<svg
   version="1.1"
   id="svg2"
   xml:space="preserve"
   width="1000"
   height="666.66669"
   viewBox="0 0 1000 666.66669"
   sodipodi:docname="hero_02.svg"
   inkscape:version="1.1.2 (0a00cf5339, 2022-02-04)"
   xmlns:inkscape="http://www.inkscape.org/namespaces/inkscape"
   xmlns:sodipodi="http://sodipodi.sourceforge.net/DTD/sodipodi-0.dtd"
   xmlns="http://www.w3.org/2000/svg"
   xmlns:svg="http://www.w3.org/2000/svg"><defs
     id="defs6"><clipPath
       clipPathUnits="userSpaceOnUse"
       id="clipPath22"><path
         d="M 0,500 H 750 V 0 H 0 Z"
         id="path20" /></clipPath><clipPath
       clipPathUnits="userSpaceOnUse"
       id="clipPath132"><path
         d="m 236.471,114.034 h 326.96 V 26.8135 h -326.96 z"
         id="path130" /></clipPath><clipPath
       clipPathUnits="userSpaceOnUse"
       id="clipPath180"><path
         d="M 0,500 H 750 V 0 H 0 Z"
         id="path178" /></clipPath><clipPath
       clipPathUnits="userSpaceOnUse"
       id="clipPath204"><path
         d="m 199.811,147.814 h 227.12 V 27.0635 h -227.12 z"
         id="path202" /></clipPath><clipPath
       clipPathUnits="userSpaceOnUse"
       id="clipPath228"><path
         d="M 56.0883,87.5233 H 164.131 V 68.589 H 56.0883 Z"
         id="path226" /></clipPath><clipPath
       clipPathUnits="userSpaceOnUse"
       id="clipPath248"><path
         d="m 141.285,87.4613 h 23.697 v -25.194 h -23.697 z"
         id="path246" /></clipPath><clipPath
       clipPathUnits="userSpaceOnUse"
       id="clipPath264"><path
         d="M 61.7543,76.7121 H 163.945 V 74.4302 H 61.7543 Z"
         id="path262" /></clipPath><clipPath
       clipPathUnits="userSpaceOnUse"
       id="clipPath278"><path
         d="M 61.7543,81.8512 H 163.945 V 79.5694 H 61.7543 Z"
         id="path276" /></clipPath><clipPath
       clipPathUnits="userSpaceOnUse"
       id="clipPath292"><path
         d="M 61.7543,70.1746 H 163.945 V 67.8928 H 61.7543 Z"
         id="path290" /></clipPath><clipPath
       clipPathUnits="userSpaceOnUse"
       id="clipPath318"><path
         d="M 68.0031,56.0373 H 176.046 V 37.103 H 68.0031 Z"
         id="path316" /></clipPath><clipPath
       clipPathUnits="userSpaceOnUse"
       id="clipPath338"><path
         d="m 153.2,55.9753 h 23.697 V 30.7813 H 153.2 Z"
         id="path336" /></clipPath><clipPath
       clipPathUnits="userSpaceOnUse"
       id="clipPath354"><path
         d="M 73.6692,45.226 H 175.86 V 42.9442 H 73.6692 Z"
         id="path352" /></clipPath><clipPath
       clipPathUnits="userSpaceOnUse"
       id="clipPath368"><path
         d="M 73.6692,50.3652 H 175.86 V 48.0833 H 73.6692 Z"
         id="path366" /></clipPath><clipPath
       clipPathUnits="userSpaceOnUse"
       id="clipPath382"><path
         d="M 73.6692,38.6886 H 175.86 V 36.4067 H 73.6692 Z"
         id="path380" /></clipPath><clipPath
       clipPathUnits="userSpaceOnUse"
       id="clipPath404"><path
         d="M 38.2306,26.6435 H 717.851 v -27.87 H 38.2306 Z"
         id="path402" /></clipPath><clipPath
       clipPathUnits="userSpaceOnUse"
       id="clipPath506"><path
         d="M 0,500 H 750 V 0 H 0 Z"
         id="path504" /></clipPath><clipPath
       clipPathUnits="userSpaceOnUse"
       id="clipPath574"><path
         d="M 0,500 H 750 V 0 H 0 Z"
         id="path572" /></clipPath><clipPath
       clipPathUnits="userSpaceOnUse"
       id="clipPath594"><path
         d="M 0,500 H 750 V 0 H 0 Z"
         id="path592" /></clipPath><clipPath
       clipPathUnits="userSpaceOnUse"
       id="clipPath728"><path
         d="M 0,500 H 750 V 0 H 0 Z"
         id="path726" /></clipPath><clipPath
       clipPathUnits="userSpaceOnUse"
       id="clipPath750"><path
         d="M 0,500 H 750 V 0 H 0 Z"
         id="path748" /></clipPath><clipPath
       clipPathUnits="userSpaceOnUse"
       id="clipPath846"><path
         d="m 607.256,95.7933 h 16.751 V 66.7467 h -16.751 z"
         id="path844" /></clipPath><clipPath
       clipPathUnits="userSpaceOnUse"
       id="clipPath870"><path
         d="m 632.76,109.922 h 38.923 V 68.1616 H 632.76 Z"
         id="path868" /></clipPath><clipPath
       clipPathUnits="userSpaceOnUse"
       id="clipPath894"><path
         d="m 616.867,134.866 h 29.119 V 67.0396 h -29.119 z"
         id="path892" /></clipPath></defs><sodipodi:namedview
     id="namedview4"
     pagecolor="#ffffff"
     bordercolor="#666666"
     borderopacity="1.0"
     inkscape:pageshadow="2"
     inkscape:pageopacity="0.0"
     inkscape:pagecheckerboard="0"
     showgrid="false"
     inkscape:zoom="0.70499998"
     inkscape:cx="448.93618"
     inkscape:cy="370.922"
     inkscape:window-width="1292"
     inkscape:window-height="704"
     inkscape:window-x="0"
     inkscape:window-y="0"
     inkscape:window-maximized="1"
     inkscape:current-layer="g8" /><g
     id="g8"
     inkscape:groupmode="layer"
     inkscape:label="4884784"
     transform="matrix(1.3333333,0,0,-1.3333333,0,666.66667)"><text
       transform="matrix(1,0,0,-1,312.2246,184.1328)"
       style="font-variant:normal;font-weight:900;font-stretch:normal;font-size:25.4399px;font-family:'Montserrat Black';-inkscape-font-specification:Montserrat-Black;writing-mode:lr-tb;fill:#2e2e46;fill-opacity:1;fill-rule:nonzero;stroke:none"
       id="text14"><tspan
         x="0 15.772738 26.966293"
         y="0"
         sodipodi:role="line"
         id="tspan12">&lt;/&gt;</tspan></text><g
       id="g16"><g
         id="g18"
         clip-path="url(#clipPath22)"><g
           id="g24"
           transform="translate(466.0586,278.2109)"><path
             d="m 0,0 c -1.492,-32.665 -33.602,-57.694 -57.653,-59.206 -31.778,-1.997 -54.489,26.661 -57.653,59.206 -2.741,28.195 7.272,27.775 14.729,39.527 9.036,14.24 25.876,22.108 42.924,22.108 C -25.812,61.635 2.007,43.948 0,0"
             style="fill:#d53b5e;fill-opacity:1;fill-rule:nonzero;stroke:none"
             id="path26" /></g><path
           d="m 430.749,166.111 h -44.687 v 55.943 h 44.687 z"
           style="fill:#f3b6ab;fill-opacity:1;fill-rule:nonzero;stroke:none"
           id="path28" /><g
           id="g30"
           transform="translate(458.6006,254.6851)"><path
             d="M 0,0 C 7.971,12.096 18.112,12.626 22.348,-1.679 26.582,-15.986 12.604,-27.757 1.225,-23.413 -10.156,-19.069 0,0 0,0"
             style="fill:#f3b6ab;fill-opacity:1;fill-rule:nonzero;stroke:none"
             id="path32" /></g><g
           id="g34"
           transform="translate(468.0098,254.3691)"><path
             d="m 0,0 c 5.339,0.977 8.075,-14.931 -3.634,-15.456 l 2.408,5.551 -2.259,4.617 z"
             style="fill:#ed9099;fill-opacity:1;fill-rule:nonzero;stroke:none"
             id="path36" /></g><g
           id="g38"
           transform="translate(462.625,236.7314)"><path
             d="m 0,0 c 6.825,7.275 1.899,12.35 1.899,12.35 0,0 6.497,13.323 9.1,3.112"
             style="fill:none;stroke:#df7f85;stroke-width:0.5;stroke-linecap:butt;stroke-linejoin:miter;stroke-miterlimit:10;stroke-dasharray:none;stroke-opacity:1"
             id="path40" /></g><g
           id="g42"
           transform="translate(357.8379,254.6851)"><path
             d="m 0,0 c -7.972,12.096 -18.113,12.626 -22.348,-1.679 -4.235,-14.307 9.743,-26.078 21.123,-21.734 C 10.155,-19.069 0,0 0,0"
             style="fill:#f3b6ab;fill-opacity:1;fill-rule:nonzero;stroke:none"
             id="path44" /></g><g
           id="g46"
           transform="translate(348.4282,254.3691)"><path
             d="m 0,0 c -5.339,0.977 -8.076,-14.931 3.634,-15.456 l -2.408,5.551 2.259,4.617 z"
             style="fill:#ed9099;fill-opacity:1;fill-rule:nonzero;stroke:none"
             id="path48" /></g><g
           id="g50"
           transform="translate(353.8135,236.7314)"><path
             d="m 0,0 c -6.826,7.275 -1.9,12.35 -1.9,12.35 0,0 -6.496,13.323 -9.1,3.112"
             style="fill:none;stroke:#df7f85;stroke-width:0.5;stroke-linecap:butt;stroke-linejoin:miter;stroke-miterlimit:10;stroke-dasharray:none;stroke-opacity:1"
             id="path52" /></g><g
           id="g54"
           transform="translate(430.749,220.8174)"><path
             d="M 0,0 V -20.812 C -16.059,-42.571 -44.687,-35.496 -44.687,-35.496 L -44.186,0 Z"
             style="fill:#df7f85;fill-opacity:1;fill-rule:nonzero;stroke:none"
             id="path56" /></g><g
           id="g58"
           transform="translate(408.4053,196.9717)"><path
             d="m 0,0 v 0 c -26.676,0 -48.3,21.624 -48.3,48.3 v 35.296 c 0,18.017 14.605,32.622 32.622,32.622 h 31.355 c 18.017,0 32.623,-14.605 32.623,-32.622 V 48.3 C 48.3,21.624 26.676,0 0,0"
             style="fill:#f3b6ab;fill-opacity:1;fill-rule:nonzero;stroke:none"
             id="path60" /></g><g
           id="g62"
           transform="translate(415.8369,238.957)"><path
             d="m 0,0 c 0,-4.104 -3.327,-7.431 -7.432,-7.431 -4.103,0 -7.43,3.327 -7.43,7.431"
             style="fill:none;stroke:#d53b5e;stroke-width:1;stroke-linecap:butt;stroke-linejoin:miter;stroke-miterlimit:10;stroke-dasharray:none;stroke-opacity:1"
             id="path64" /></g><g
           id="g66"
           transform="translate(365.208,311.0303)"><path
             d="M 0,0 C 0,0 -8.46,14.022 2.136,26.387 2.136,26.387 9.749,12.291 0,0"
             style="fill:#d53b5e;fill-opacity:1;fill-rule:nonzero;stroke:none"
             id="path68" /></g><g
           id="g70"
           transform="translate(369.5054,314.3604)"><path
             d="m 0,0 c 0,0 -11.78,-11.377 -26.198,-3.808 0,0 12.041,10.567 26.198,3.808"
             style="fill:#d53b5e;fill-opacity:1;fill-rule:nonzero;stroke:none"
             id="path72" /></g><g
           id="g74"
           transform="translate(389.2246,256.2939)"><path
             d="m 0,0 c 0,-3.994 -1.701,-7.231 -3.799,-7.231 -2.098,0 -3.8,3.237 -3.8,7.231 0,3.994 1.702,7.231 3.8,7.231 C -1.701,7.231 0,3.994 0,0"
             style="fill:#33334f;fill-opacity:1;fill-rule:nonzero;stroke:none"
             id="path76" /></g><g
           id="g78"
           transform="translate(402.8838,256.8315)"><path
             d="m 0,0 c 0,-10.727 -8.695,-19.423 -19.423,-19.423 -10.727,0 -19.423,8.696 -19.423,19.423 0,10.727 8.696,19.423 19.423,19.423 C -8.695,19.423 0,10.727 0,0 Z"
             style="fill:none;stroke:#ffffff;stroke-width:4;stroke-linecap:butt;stroke-linejoin:miter;stroke-miterlimit:10;stroke-dasharray:none;stroke-opacity:1"
             id="path80" /></g><g
           id="g82"
           transform="translate(435.1846,256.2939)"><path
             d="m 0,0 c 0,-3.994 -1.701,-7.231 -3.8,-7.231 -2.098,0 -3.799,3.237 -3.799,7.231 0,3.994 1.701,7.231 3.799,7.231 C -1.701,7.231 0,3.994 0,0"
             style="fill:#33334f;fill-opacity:1;fill-rule:nonzero;stroke:none"
             id="path84" /></g><g
           id="g86"
           transform="translate(452.7725,256.8315)"><path
             d="m 0,0 c 0,-10.727 -8.696,-19.423 -19.424,-19.423 -10.726,0 -19.423,8.696 -19.423,19.423 0,10.727 8.697,19.423 19.423,19.423 C -8.696,19.423 0,10.727 0,0 Z"
             style="fill:none;stroke:#ffffff;stroke-width:4;stroke-linecap:butt;stroke-linejoin:miter;stroke-miterlimit:10;stroke-dasharray:none;stroke-opacity:1"
             id="path88" /></g><g
           id="g90"
           transform="translate(366.0913,299.4053)"><path
             d="m 0,0 c 0,0 30.685,16.176 51.074,4.452 20.389,-11.724 22.683,-35.936 42.817,-29.67 0,0 15.292,6.732 -1.529,30.18 C 75.542,28.409 64.033,32.997 42.134,27.899 20.235,22.802 5.986,18.838 0,0"
             style="fill:#d53b5e;fill-opacity:1;fill-rule:nonzero;stroke:none"
             id="path92" /></g><g
           id="g94"
           transform="translate(364.918,299.6382)"><path
             d="M 0,0 C 0,0 10.129,13.43 24.307,16.98 38.484,20.53 54.167,3.091 54.167,3.091 54.167,3.091 17.841,8.27 0,0"
             style="fill:#b32c4f;fill-opacity:1;fill-rule:nonzero;stroke:none"
             id="path96" /></g><g
           id="g98"
           transform="translate(360.1792,282.7451)"><path
             d="m 0,0 c 0,0 3.417,-24.925 0,-40.137 0,0 -4.994,38.65 0,40.137"
             style="fill:#d53b5e;fill-opacity:1;fill-rule:nonzero;stroke:none"
             id="path100" /></g><g
           id="g102"
           transform="translate(456.3545,282.7451)"><path
             d="m 0,0 c 0,0 -3.416,-24.925 0,-40.137 0,0 4.994,38.65 0,40.137"
             style="fill:#d53b5e;fill-opacity:1;fill-rule:nonzero;stroke:none"
             id="path104" /></g><g
           id="g106"
           transform="translate(394.084,284.6904)"><path
             d="m 0,0 c -5.271,2.523 -14.645,5.292 -23.329,-0.894 -1.457,-1.038 -0.903,-3.328 0.859,-3.632 2.786,-0.481 6.783,-0.978 11.308,-0.949 3.517,0.022 7.68,0.888 10.788,1.687 C 1.453,-3.318 1.702,-0.814 0,0"
             style="fill:#d53b5e;fill-opacity:1;fill-rule:nonzero;stroke:none"
             id="path108" /></g><g
           id="g110"
           transform="translate(444.9795,284.6904)"><path
             d="m 0,0 c -5.271,2.523 -14.645,5.292 -23.329,-0.894 -1.456,-1.038 -0.902,-3.328 0.859,-3.632 2.786,-0.481 6.784,-0.978 11.309,-0.949 3.516,0.022 7.679,0.888 10.787,1.687 C 1.453,-3.318 1.702,-0.814 0,0"
             style="fill:#d53b5e;fill-opacity:1;fill-rule:nonzero;stroke:none"
             id="path112" /></g><g
           id="g114"
           transform="translate(424.7432,221.5117)"><path
             d="M 0,0 C -0.501,-0.894 -1.093,-1.829 -1.903,-2.76 -4.485,-5.868 -8.87,-8.854 -16.381,-8.991 l -0.012,-0.033 -0.551,0.01 -0.021,0.045 c -7.043,0.139 -11.383,2.789 -14,5.714 -1.014,1.099 -1.783,2.26 -2.336,3.306 -1.251,2.401 -1.577,4.29 -1.577,4.29 L 1.593,4.272 C 1.593,4.272 1.292,2.385 0,0"
             style="fill:#e23c5e;fill-opacity:1;fill-rule:nonzero;stroke:none"
             id="path116" /></g><g
           id="g118"
           transform="translate(424.7432,221.5117)"><path
             d="m 0,0 c -0.501,-0.894 -1.093,-1.829 -1.903,-2.76 -8.371,3.678 -18.441,4.448 -29.062,-0.495 -1.014,1.099 -1.783,2.26 -2.336,3.306 -1.251,2.401 -1.577,4.29 -1.577,4.29 L 1.593,4.272 C 1.593,4.272 1.292,2.385 0,0"
             style="fill:#33334f;fill-opacity:1;fill-rule:nonzero;stroke:none"
             id="path120" /></g><g
           id="g122"
           transform="translate(563.4307,27.1533)"><path
             d="m 0,0 -326.96,-0.34 c 0,0 6.1,12.76 14.88,29.67 0.65,1.25 1.32,2.53 2,3.83 11.99,22.87 28.12,51.76 40.71,67.43 14.5,18.04 48.76,30.9 72.03,37.931 13.56,4.089 23.38,6.199 23.38,6.199 h 37.56 c 0,0 8.82,-1.89 21.28,-5.579 23.25,-6.87 58.01,-20.971 74.13,-38.551 3.54,-3.86 6.87,-8.529 9.99,-13.71 C -11.16,53.91 0,0 0,0"
             style="fill:#ffa24d;fill-opacity:1;fill-rule:nonzero;stroke:none"
             id="path124" /></g><g
           id="g126"><g
             id="g128" /><g
             id="g140"><g
               clip-path="url(#clipPath132)"
               opacity="0.5"
               id="g138"><g
                 transform="translate(563.4307,27.1533)"
                 id="g136"><path
                   d="m 0,0 -326.96,-0.34 c 0,0 6.1,12.76 14.88,29.67 163.161,-47.962 249.142,30.639 268.764,51.915 3.168,3.436 7.566,5.504 12.237,5.633 L -31,86.88 C -11.16,53.91 0,0 0,0"
                   style="fill:#f47608;fill-opacity:1;fill-rule:nonzero;stroke:none"
                   id="path134" /></g></g></g></g><g
           id="g142"
           transform="translate(403.2754,253.5288)"><path
             d="M 0,0 H 10.259"
             style="fill:none;stroke:#ffffff;stroke-width:4;stroke-linecap:butt;stroke-linejoin:miter;stroke-miterlimit:10;stroke-dasharray:none;stroke-opacity:1"
             id="path144" /></g><g
           id="g146"
           transform="translate(448.3105,166.2979)"><path
             d="m 0,0 c -40.474,-44.53 -82.219,-0.629 -82.219,-0.629 13.561,4.099 23.383,6.209 23.383,6.209 h 37.559 c 0,0 8.819,-1.896 21.277,-5.58"
             style="fill:#f3b6ab;fill-opacity:1;fill-rule:nonzero;stroke:none"
             id="path148" /></g><g
           id="g150"
           transform="translate(319.042,77.5361)"><path
             d="M 0,0 V -50.783"
             style="fill:none;stroke:#f68400;stroke-width:3;stroke-linecap:butt;stroke-linejoin:miter;stroke-miterlimit:10;stroke-dasharray:none;stroke-opacity:1"
             id="path152" /></g><g
           id="g154"
           transform="translate(319.042,45.1689)"><path
             d="M 0,0 -13.636,17.386"
             style="fill:none;stroke:#f68400;stroke-width:3;stroke-linecap:butt;stroke-linejoin:miter;stroke-miterlimit:10;stroke-dasharray:none;stroke-opacity:1"
             id="path156" /></g><g
           id="g158"
           transform="translate(496.8437,77.5361)"><path
             d="M 0,0 V -50.783"
             style="fill:none;stroke:#f68400;stroke-width:3;stroke-linecap:butt;stroke-linejoin:miter;stroke-miterlimit:10;stroke-dasharray:none;stroke-opacity:1"
             id="path160" /></g><g
           id="g162"
           transform="translate(496.8437,45.1689)"><path
             d="M 0,0 12.107,15.437"
             style="fill:none;stroke:#f68400;stroke-width:3;stroke-linecap:butt;stroke-linejoin:miter;stroke-miterlimit:10;stroke-dasharray:none;stroke-opacity:1"
             id="path164" /></g><g
           id="g166"
           transform="translate(364.1533,146.3428)"><path
             d="M 0,0 C 0,0 50.184,-34.271 84.157,1.664"
             style="fill:none;stroke:#f68400;stroke-width:3;stroke-linecap:butt;stroke-linejoin:miter;stroke-miterlimit:10;stroke-dasharray:none;stroke-opacity:1"
             id="path168" /></g></g></g><text
       transform="matrix(1,0,0,-1,451.7163,75.8691)"
       style="font-variant:normal;font-weight:bold;font-stretch:normal;font-size:44.386px;font-family:Montserrat;-inkscape-font-specification:Montserrat-Bold;writing-mode:lr-tb;fill:#ffffff;fill-opacity:1;fill-rule:nonzero;stroke:none"
       id="text172"><tspan
         x="0"
         y="0"
         id="tspan170">x</tspan></text><g
       id="g182"
       transform="translate(364.9272,320.4077)"><path
         d="M 0,0 C 11.268,47.359 124.155,42.148 103.149,-50.059 96.856,-77.679 50.848,12.727 11.141,-9.453 8.173,-11.111 4.474,-10.682 1.992,-8.358 -0.288,-6.223 -0.723,-3.038 0,0"
         style="fill:#d53b5e;fill-opacity:1;fill-rule:nonzero;stroke:none"
         id="path184" /></g><g
       id="g186"
       transform="translate(426.9307,27.123)"><path
         d="m 0,0 c -0.03,-0.01 -0.07,-0.02 -0.11,-0.02 -0.27,-0.03 -0.55,-0.04 -0.83,-0.04 h -218.99 c -2.91,0 -5.5,1.35 -7.19,3.47 -1.26,1.57 -2.01,3.57 -2.01,5.74 l -0.03,0.1 -34.1,96.351 c -2.61,7.36 2.85,15.089 10.66,15.089 h 142.18 c 4.8,0 9.07,-3.019 10.67,-7.54 L -63,9.33 c 0.04,-0.119 0.06,-0.18 0.06,-0.18 H -0.73 C 4.979,9.15 5.61,0.61 0,0"
         style="fill:#69adbf;fill-opacity:1;fill-rule:nonzero;stroke:none"
         id="path188" /></g><g
       id="g190"
       transform="translate(263.6157,89.6484)"><path
         d="m 0,0 c 3.596,-10.455 -0.47,-21.33 -9.081,-24.291 -8.61,-2.962 -18.505,3.113 -22.1,13.567 -3.595,10.455 0.47,21.33 9.081,24.291 C -13.49,16.528 -3.595,10.454 0,0"
         style="fill:#ffffff;fill-opacity:1;fill-rule:nonzero;stroke:none"
         id="path192" /></g><g
       id="g194"
       transform="translate(426.2031,36.2754)"><path
         d="m 0,0 h -62.214 c 0,0 -0.017,0.062 -0.054,0.18 l -36.755,103.821 c -1.602,4.519 -5.87,7.534 -10.667,7.534 h -4.754 c 0,0 10.623,-0.693 13.278,-10.199 2.656,-9.497 38.952,-110.348 38.952,-110.348 l 2.683,-0.198 h 59.314 c 0.288,0 0.568,0.01 0.838,0.036 C 6.346,-8.651 5.743,0 0,0"
         style="fill:#2f7298;fill-opacity:1;fill-rule:nonzero;stroke:none"
         id="path196" /></g><g
       id="g198"><g
         id="g200" /><g
         id="g212"><g
           clip-path="url(#clipPath204)"
           opacity="0.399994"
           id="g210"><g
             transform="translate(426.9307,27.123)"
             id="g208"><path
               d="m 0,0 c -0.03,-0.01 -0.07,-0.02 -0.11,-0.02 -0.27,-0.03 -0.55,-0.04 -0.83,-0.04 h -218.99 c -2.91,0 -5.5,1.35 -7.19,3.47 129.44,-11.12 116.7,117.28 116.7,117.28 4.8,0 9.07,-3.019 10.67,-7.54 L -63,9.33 c 0.04,-0.119 0.06,-0.18 0.06,-0.18 H -1.71 C -1.05,6.12 -0.47,3.07 0,0"
               style="fill:#2a94a2;fill-opacity:1;fill-rule:nonzero;stroke:none"
               id="path206" /></g></g></g></g><g
       id="g214"
       transform="translate(166.5327,90.6689)"><path
         d="M 0,0 V -3.224 C -5.826,-3.89 -7.251,-8.816 -7.251,-14.813 v -1.983 c 0,-5.997 1.425,-10.924 7.251,-11.591 v -3.207 h -111.39 c -4.57,0 -8.274,3.703 -8.274,8.275 V -8.29 c 0,4.571 3.704,8.29 8.274,8.29 z"
         style="fill:#2f7298;fill-opacity:1;fill-rule:nonzero;stroke:none"
         id="path216" /></g><g
       id="g218"
       transform="translate(164.7974,65.583)"><path
         d="M 0,0 C 0.667,-1.58 -0.558,-3.301 -2.262,-3.301 L -108.709,-3.378 V 21.94 L -2.262,21.862 c 0.62,0 1.178,-0.231 1.596,-0.603 0.744,-0.62 1.084,-1.69 0.666,-2.697 -0.883,-2.107 -0.852,-5.036 -0.852,-8.29 V 8.29 C -0.852,5.036 -0.883,2.107 0,0"
         style="fill:#ffffff;fill-opacity:1;fill-rule:nonzero;stroke:none"
         id="path220" /></g><g
       id="g222"><g
         id="g224" /><g
         id="g236"><g
           clip-path="url(#clipPath228)"
           opacity="0.399994"
           id="g234"><g
             transform="translate(164.1313,86.8418)"
             id="g232"><path
               d="m 0,0 c -2.045,-0.108 -96.112,-4.974 -102.558,-14.116 -1.751,-2.479 -3.734,-3.858 -5.485,-4.137 V 0.682 L -1.596,0.604 C -0.976,0.604 -0.418,0.372 0,0"
               style="fill:#8ad6e7;fill-opacity:1;fill-rule:nonzero;stroke:none"
               id="path230" /></g></g></g></g><g
       id="g238"
       transform="translate(61.5732,59.0693)"><path
         d="m 0,0 h -9.36 c -2.951,0 -5.344,2.393 -5.344,5.344 v 20.904 c 0,2.951 2.393,5.344 5.344,5.344 H 0 Z"
         style="fill:#2f7298;fill-opacity:1;fill-rule:nonzero;stroke:none"
         id="path240" /></g><g
       id="g242"><g
         id="g244" /><g
         id="g256"><g
           clip-path="url(#clipPath248)"
           opacity="0.399994"
           id="g254"><g
             transform="translate(164.7974,65.583)"
             id="g252"><path
               d="m 0,0 c 0.667,-1.58 -0.558,-3.3 -2.262,-3.3 l -21.251,-0.015 c 16.882,1.919 15.827,15.789 15.827,15.789 0.186,0.666 -13.34,8.8 -13.107,9.404 l 18.531,-0.016 c 0.62,0 1.178,-0.231 1.596,-0.603 C 0.078,20.639 0.418,19.569 0,18.562 -0.883,16.455 -0.852,13.526 -0.852,10.273 V 8.29 C -0.852,5.036 -0.883,2.107 0,0"
               style="fill:#8ad6e7;fill-opacity:1;fill-rule:nonzero;stroke:none"
               id="path250" /></g></g></g></g><g
       id="g258"><g
         id="g260" /><g
         id="g270"><g
           clip-path="url(#clipPath264)"
           opacity="0.399994"
           id="g268"><path
             d="M 163.945,74.431 H 61.754 v 2.281 h 102.191 z"
             style="fill:#8ad6e7;fill-opacity:1;fill-rule:nonzero;stroke:none"
             id="path266" /></g></g></g><g
       id="g272"><g
         id="g274" /><g
         id="g284"><g
           clip-path="url(#clipPath278)"
           opacity="0.399994"
           id="g282"><path
             d="M 163.945,79.569 H 61.754 v 2.282 h 102.191 z"
             style="fill:#8ad6e7;fill-opacity:1;fill-rule:nonzero;stroke:none"
             id="path280" /></g></g></g><g
       id="g286"><g
         id="g288" /><g
         id="g298"><g
           clip-path="url(#clipPath292)"
           opacity="0.399994"
           id="g296"><path
             d="M 163.945,67.893 H 61.754 v 2.282 h 102.191 z"
             style="fill:#8ad6e7;fill-opacity:1;fill-rule:nonzero;stroke:none"
             id="path294" /></g></g></g><g
       id="g300"
       transform="translate(131.0293,66.9326)"><path
         d="M 0,0 -5.434,5.419 -10.867,0 V 14.919 H 0 Z"
         style="fill:#e23c5e;fill-opacity:1;fill-rule:nonzero;stroke:none"
         id="path302" /></g><g
       id="g304"
       transform="translate(178.4478,59.1826)"><path
         d="m 0,0 v -3.223 c -5.826,-0.666 -7.251,-5.593 -7.251,-11.59 v -1.983 c 0,-5.996 1.425,-10.924 7.251,-11.59 v -3.208 h -111.39 c -4.57,0 -8.274,3.704 -8.274,8.275 v 15.03 c 0,4.57 3.704,8.289 8.274,8.289 z"
         style="fill:#e23c5e;fill-opacity:1;fill-rule:nonzero;stroke:none"
         id="path306" /></g><g
       id="g308"
       transform="translate(176.7124,34.0967)"><path
         d="M 0,0 C 0.667,-1.58 -0.558,-3.3 -2.262,-3.3 L -108.709,-3.377 V 21.94 L -2.262,21.863 c 0.619,0 1.178,-0.232 1.596,-0.604 C 0.078,20.639 0.418,19.57 0,18.562 -0.883,16.455 -0.852,13.527 -0.852,10.273 V 8.29 C -0.852,5.036 -0.883,2.107 0,0"
         style="fill:#ffffff;fill-opacity:1;fill-rule:nonzero;stroke:none"
         id="path310" /></g><g
       id="g312"><g
         id="g314" /><g
         id="g326"><g
           clip-path="url(#clipPath318)"
           opacity="0.399994"
           id="g324"><g
             transform="translate(176.0464,55.3555)"
             id="g322"><path
               d="m 0,0 c -2.045,-0.108 -96.112,-4.974 -102.558,-14.115 -1.751,-2.48 -3.734,-3.859 -5.485,-4.138 V 0.682 L -1.596,0.604 C -0.977,0.604 -0.418,0.372 0,0"
               style="fill:#8ad6e7;fill-opacity:1;fill-rule:nonzero;stroke:none"
               id="path320" /></g></g></g></g><g
       id="g328"
       transform="translate(73.4878,27.583)"><path
         d="m 0,0 h -9.359 c -2.952,0 -5.344,2.393 -5.344,5.344 v 20.905 c 0,2.951 2.392,5.344 5.344,5.344 H 0 Z"
         style="fill:#e23c5e;fill-opacity:1;fill-rule:nonzero;stroke:none"
         id="path330" /></g><g
       id="g332"><g
         id="g334" /><g
         id="g346"><g
           clip-path="url(#clipPath338)"
           opacity="0.399994"
           id="g344"><g
             transform="translate(176.7124,34.0967)"
             id="g342"><path
               d="m 0,0 c 0.667,-1.58 -0.558,-3.3 -2.262,-3.3 l -21.251,-0.015 c 16.882,1.919 15.827,15.789 15.827,15.789 0.186,0.666 -13.34,8.8 -13.107,9.405 l 18.531,-0.016 c 0.619,0 1.178,-0.232 1.596,-0.604 C 0.078,20.639 0.418,19.57 0,18.562 -0.883,16.455 -0.852,13.527 -0.852,10.273 V 8.29 C -0.852,5.036 -0.883,2.107 0,0"
               style="fill:#8ad6e7;fill-opacity:1;fill-rule:nonzero;stroke:none"
               id="path340" /></g></g></g></g><g
       id="g348"><g
         id="g350" /><g
         id="g360"><g
           clip-path="url(#clipPath354)"
           opacity="0.399994"
           id="g358"><path
             d="M 175.86,42.944 H 73.669 v 2.281 H 175.86 Z"
             style="fill:#8ad6e7;fill-opacity:1;fill-rule:nonzero;stroke:none"
             id="path356" /></g></g></g><g
       id="g362"><g
         id="g364" /><g
         id="g374"><g
           clip-path="url(#clipPath368)"
           opacity="0.399994"
           id="g372"><path
             d="M 175.86,48.083 H 73.669 v 2.282 H 175.86 Z"
             style="fill:#8ad6e7;fill-opacity:1;fill-rule:nonzero;stroke:none"
             id="path370" /></g></g></g><g
       id="g376"><g
         id="g378" /><g
         id="g388"><g
           clip-path="url(#clipPath382)"
           opacity="0.399994"
           id="g386"><path
             d="M 175.86,36.406 H 73.669 v 2.282 H 175.86 Z"
             style="fill:#8ad6e7;fill-opacity:1;fill-rule:nonzero;stroke:none"
             id="path384" /></g></g></g><g
       id="g390"
       transform="translate(164.6816,33.4609)"><path
         d="M 0,0 -5.741,5.726 -11.482,0 V 15.764 H 0 Z"
         style="fill:#e23c5e;fill-opacity:1;fill-rule:nonzero;stroke:none"
         id="path392" /></g><g
       id="g394"
       transform="translate(717.8506,13.8633)"><path
         d="m 0,0 v -2.31 c 0,-7.06 -5.73,-12.78 -12.79,-12.78 h -654.04 c -5.95,0 -10.95,4.061 -12.38,9.55 0,0.011 0,0.02 -0.01,0.03 -0.26,1.031 -0.4,2.1 -0.4,3.2 V 0 c 0,7.061 5.72,12.78 12.79,12.78 H -12.79 C -5.73,12.78 0,7.061 0,0"
         style="fill:#3f537e;fill-opacity:1;fill-rule:nonzero;stroke:none"
         id="path396" /></g><g
       id="g398"><g
         id="g400" /><g
         id="g412"><g
           clip-path="url(#clipPath404)"
           opacity="0.5"
           id="g410"><g
             transform="translate(717.8506,13.8633)"
             id="g408"><path
               d="m 0,0 v -2.31 c 0,-7.06 -5.73,-12.78 -12.79,-12.78 h -654.04 c -5.95,0 -10.95,4.061 -12.38,9.55 0,0.011 0,0.02 -0.01,0.03 -0.27,2.05 -0.4,3.2 -0.4,3.2 366.755,-12.78 666.83,15.09 666.83,15.09 C -5.73,12.78 0,7.061 0,0"
               style="fill:#27273d;fill-opacity:1;fill-rule:nonzero;stroke:none"
               id="path406" /></g></g></g></g><g
       id="g414"
       transform="translate(684.2949,356.2559)"><path
         d="m 0,0 c -4.558,0 -8.253,3.694 -8.253,8.253 0,4.558 3.695,8.253 8.253,8.253 4.559,0 8.253,-3.695 8.253,-8.253 C 8.253,3.694 4.559,0 0,0 m 17.245,8.014 c 0,0.083 0.01,0.155 0.01,0.239 0,0.083 -0.01,0.156 -0.01,0.229 1.196,0.551 2.403,1.186 3.59,1.956 1.269,0.875 2.561,1.884 3.757,3.039 l -0.26,1.02 c -0.25,1.155 -0.697,2.269 -1.103,3.382 -0.229,0.541 -0.5,1.072 -0.76,1.603 -0.24,0.552 -0.531,1.061 -0.853,1.561 l -0.542,0.895 c -1.634,-0.01 -3.288,-0.218 -4.798,-0.5 -1.362,-0.28 -2.684,-0.686 -3.912,-1.155 l -0.333,0.333 c 0.458,1.239 0.874,2.55 1.145,3.913 0.291,1.51 0.499,3.164 0.51,4.798 l -0.895,0.541 c -0.5,0.323 -1.02,0.614 -1.562,0.854 -0.531,0.26 -1.061,0.53 -1.613,0.759 -1.113,0.406 -2.217,0.854 -3.372,1.103 L 5.225,32.845 C 4.07,31.648 3.061,30.368 2.186,29.088 1.416,27.912 0.781,26.705 0.229,25.498 c -0.073,0 -0.156,0.02 -0.229,0.02 -0.083,0 -0.156,-0.02 -0.239,-0.02 -0.541,1.207 -1.187,2.414 -1.957,3.59 -0.864,1.28 -1.883,2.56 -3.028,3.757 l -1.02,-0.261 c -1.165,-0.249 -2.269,-0.697 -3.382,-1.103 -0.541,-0.229 -1.072,-0.499 -1.613,-0.759 -0.541,-0.24 -1.051,-0.531 -1.562,-0.854 l -0.894,-0.541 c 0.02,-1.634 0.228,-3.288 0.509,-4.798 0.281,-1.363 0.687,-2.674 1.156,-3.913 -0.115,-0.114 -0.23,-0.218 -0.333,-0.333 -1.239,0.469 -2.55,0.875 -3.913,1.155 -1.509,0.282 -3.174,0.49 -4.798,0.5 l -0.552,-0.895 c -0.311,-0.5 -0.603,-1.009 -0.853,-1.561 -0.25,-0.531 -0.52,-1.062 -0.75,-1.603 -0.416,-1.113 -0.853,-2.227 -1.102,-3.382 l -0.261,-1.02 c 1.197,-1.155 2.478,-2.164 3.757,-3.039 1.176,-0.77 2.384,-1.405 3.58,-1.956 0,-0.073 -0.01,-0.146 -0.01,-0.229 0,-0.084 0.01,-0.156 0.01,-0.239 -1.196,-0.541 -2.404,-1.187 -3.58,-1.957 -1.279,-0.864 -2.56,-1.884 -3.757,-3.029 l 0.261,-1.02 c 0.249,-1.155 0.686,-2.268 1.102,-3.382 0.23,-0.541 0.5,-1.072 0.75,-1.613 0.25,-0.541 0.542,-1.051 0.853,-1.551 l 0.552,-0.895 c 1.624,0.011 3.289,0.219 4.798,0.5 1.363,0.281 2.674,0.687 3.913,1.155 0.103,-0.114 0.218,-0.229 0.333,-0.333 -0.469,-1.238 -0.875,-2.55 -1.156,-3.913 -0.281,-1.509 -0.489,-3.174 -0.509,-4.798 l 0.894,-0.551 c 0.511,-0.312 1.021,-0.604 1.562,-0.843 0.541,-0.26 1.072,-0.531 1.613,-0.76 1.113,-0.416 2.217,-0.853 3.382,-1.103 l 1.02,-0.26 c 1.145,1.197 2.164,2.477 3.028,3.757 0.77,1.176 1.416,2.383 1.957,3.59 0.083,-0.01 0.156,-0.021 0.239,-0.021 0.073,0 0.156,0.011 0.229,0.021 0.552,-1.207 1.187,-2.414 1.957,-3.59 0.875,-1.28 1.884,-2.56 3.039,-3.757 l 1.019,0.26 c 1.155,0.25 2.259,0.687 3.372,1.103 0.552,0.229 1.082,0.5 1.613,0.76 0.542,0.239 1.062,0.531 1.562,0.843 l 0.895,0.551 c -0.011,1.624 -0.219,3.289 -0.51,4.798 -0.271,1.363 -0.687,2.675 -1.145,3.913 0.115,0.104 0.219,0.219 0.333,0.333 1.228,-0.468 2.55,-0.874 3.912,-1.155 1.51,-0.281 3.164,-0.489 4.798,-0.5 l 0.542,0.895 c 0.322,0.5 0.613,1.01 0.853,1.551 0.26,0.541 0.531,1.072 0.76,1.613 0.406,1.114 0.853,2.227 1.103,3.382 l 0.26,1.02 c -1.196,1.145 -2.488,2.165 -3.757,3.029 -1.187,0.77 -2.394,1.416 -3.59,1.957"
         style="fill:#ffa24d;fill-opacity:1;fill-rule:nonzero;stroke:none"
         id="path416" /></g><g
       id="g418"
       transform="translate(660.6377,351.771)"><path
         d="m 0,0 h -55.688 v -54.842 h 15.464"
         style="fill:none;stroke:#ff7936;stroke-width:1;stroke-linecap:butt;stroke-linejoin:miter;stroke-miterlimit:10;stroke-dasharray:4;stroke-dashoffset:0;stroke-opacity:1"
         id="path420" /></g><path
       d="M 652.354,262.104 H 621.74 v 5.472 h 30.614 z"
       style="fill:#ffffff;fill-opacity:1;fill-rule:nonzero;stroke:none"
       id="path422" /><path
       d="M 668.807,251.981 H 621.74 v 5.472 h 47.067 z"
       style="fill:#ffffff;fill-opacity:1;fill-rule:nonzero;stroke:none"
       id="path424" /><path
       d="m 637.77,241.858 h -16.03 v 5.472 h 16.03 z"
       style="fill:#ffffff;fill-opacity:1;fill-rule:nonzero;stroke:none"
       id="path426" /><path
       d="m 660.344,241.858 h -16.031 v 5.472 h 16.031 z"
       style="fill:#ffa24d;fill-opacity:1;fill-rule:nonzero;stroke:none"
       id="path428" /><path
       d="M 689.101,241.858 H 666.08 v 5.472 h 23.021 z"
       style="fill:#ffa24d;fill-opacity:1;fill-rule:nonzero;stroke:none"
       id="path430" /><path
       d="m 689.101,251.981 h -13.979 v 5.472 h 13.979 z"
       style="fill:#ffa24d;fill-opacity:1;fill-rule:nonzero;stroke:none"
       id="path432" /><path
       d="m 689.101,262.104 h -30.614 v 5.472 h 30.614 z"
       style="fill:#ffa24d;fill-opacity:1;fill-rule:nonzero;stroke:none"
       id="path434" /><path
       d="m 699.295,242.024 h 1.021 v 60.984 h -1.021 z"
       style="fill:#ffffff;fill-opacity:1;fill-rule:nonzero;stroke:none"
       id="path436" /><path
       d="m 653.695,295.142 h -31.481 v 5.626 h 31.481 z"
       style="fill:#ffffff;fill-opacity:1;fill-rule:nonzero;stroke:none"
       id="path438" /><path
       d="m 670.614,284.732 h -48.4 v 5.626 h 48.4 z"
       style="fill:#ffffff;fill-opacity:1;fill-rule:nonzero;stroke:none"
       id="path440" /><path
       d="m 638.699,274.323 h -16.485 v 5.626 h 16.485 z"
       style="fill:#ffffff;fill-opacity:1;fill-rule:nonzero;stroke:none"
       id="path442" /><path
       d="m 661.912,274.323 h -16.485 v 5.626 h 16.485 z"
       style="fill:#ffa24d;fill-opacity:1;fill-rule:nonzero;stroke:none"
       id="path444" /><path
       d="M 691.482,274.323 H 667.81 v 5.626 h 23.672 z"
       style="fill:#ffa24d;fill-opacity:1;fill-rule:nonzero;stroke:none"
       id="path446" /><path
       d="m 691.482,284.732 h -14.375 v 5.626 h 14.375 z"
       style="fill:#ffa24d;fill-opacity:1;fill-rule:nonzero;stroke:none"
       id="path448" /><path
       d="m 691.482,295.142 h -31.481 v 5.626 h 31.481 z"
       style="fill:#ffa24d;fill-opacity:1;fill-rule:nonzero;stroke:none"
       id="path450" /><path
       d="m 582.705,227.608 h -90.591 v 178.021 h 90.591 z"
       style="fill:#4d4d4d;fill-opacity:1;fill-rule:nonzero;stroke:none"
       id="path452" /><path
       d="m 570.449,360.543 h -68.016 v 7.224 h 68.016 z"
       style="fill:#ffffff;fill-opacity:1;fill-rule:nonzero;stroke:none"
       id="path454" /><path
       d="m 547.45,344.547 h -45.017 v 7.224 h 45.017 z"
       style="fill:#ffffff;fill-opacity:1;fill-rule:nonzero;stroke:none"
       id="path456" /><path
       d="m 570.449,344.547 h -16.313 v 7.224 h 16.313 z"
       style="fill:#ffa24d;fill-opacity:1;fill-rule:nonzero;stroke:none"
       id="path458" /><path
       d="m 570.449,328.551 h -42.148 v 7.224 h 42.148 z"
       style="fill:#ffa24d;fill-opacity:1;fill-rule:nonzero;stroke:none"
       id="path460" /><path
       d="m 522.173,328.551 h -19.739 v 7.224 h 19.739 z"
       style="fill:#ffffff;fill-opacity:1;fill-rule:nonzero;stroke:none"
       id="path462" /><path
       d="m 538.386,312.555 h -35.952 v 7.224 h 35.952 z"
       style="fill:#ffffff;fill-opacity:1;fill-rule:nonzero;stroke:none"
       id="path464" /><path
       d="m 570.449,312.555 h -26.526 v 7.224 h 26.526 z"
       style="fill:#ffa24d;fill-opacity:1;fill-rule:nonzero;stroke:none"
       id="path466" /><path
       d="m 570.449,296.559 h -48.276 v 7.224 h 48.276 z"
       style="fill:#ffa24d;fill-opacity:1;fill-rule:nonzero;stroke:none"
       id="path468" /><path
       d="m 517.027,296.559 h -14.594 v 7.224 h 14.594 z"
       style="fill:#ffffff;fill-opacity:1;fill-rule:nonzero;stroke:none"
       id="path470" /><path
       d="m 531.62,280.563 h -29.187 v 7.224 h 29.187 z"
       style="fill:#ffffff;fill-opacity:1;fill-rule:nonzero;stroke:none"
       id="path472" /><path
       d="m 570.449,280.563 h -34.008 v 7.224 h 34.008 z"
       style="fill:#ffa24d;fill-opacity:1;fill-rule:nonzero;stroke:none"
       id="path474" /><g
       id="g476"
       transform="translate(568.4404,245.1553)"><path
         d="m 0,0 v -2.032 l -7.444,-2.831 v 1.955 l 5.208,1.892 -5.208,1.908 v 1.939 z"
         style="fill:#ffa24d;fill-opacity:1;fill-rule:nonzero;stroke:none"
         id="path478" /></g><g
       id="g480"
       transform="translate(547.2754,247.9863)"><path
         d="M 0,0 V -1.939 L -5.208,-3.847 0,-5.739 v -1.955 l -7.444,2.831 v 2.032 z"
         style="fill:#ffa24d;fill-opacity:1;fill-rule:nonzero;stroke:none"
         id="path482" /></g><g
       id="g484"
       transform="translate(556.0762,253.4673)"><path
         d="M 0,0 H 2.329 L -3.2,-15.782 h -2.328 z"
         style="fill:#ffa24d;fill-opacity:1;fill-rule:nonzero;stroke:none"
         id="path486" /></g><g
       id="g488"
       transform="translate(534.2588,384.0845)"><path
         d="m 0,0 v -2.664 l -9.757,-3.71 v 2.562 l 6.825,2.48 -6.825,2.5 V 3.71 Z"
         style="fill:#ffa24d;fill-opacity:1;fill-rule:nonzero;stroke:none"
         id="path490" /></g><g
       id="g492"
       transform="translate(516.3174,387.7949)"><path
         d="M 0,0 V -2.542 L -6.825,-5.042 0,-7.522 v -2.562 l -9.756,3.709 v 2.665 z"
         style="fill:#ffa24d;fill-opacity:1;fill-rule:nonzero;stroke:none"
         id="path494" /></g><text
       transform="matrix(1,0,0,-1,492.7012,420.1333)"
       style="font-variant:normal;font-weight:900;font-stretch:normal;font-size:18.4267px;font-family:'Montserrat Black';-inkscape-font-specification:Montserrat-Black;writing-mode:lr-tb;fill:#ffffff;fill-opacity:1;fill-rule:nonzero;stroke:none"
       id="text498"><tspan
         x="0 14.815066 26.866129 44.445202"
         y="0"
         sodipodi:role="line"
         id="tspan496">HTML</tspan></text><g
       id="g508"
       transform="translate(63.3984,192.6191)"><path
         d="m 0,0 c -7.948,-3.545 -17.297,0.037 -20.842,7.985 -2.108,4.727 -1.694,9.95 0.66,14.149 0.015,0.029 0.033,0.062 0.052,0.096 1.605,2.824 4.087,5.176 7.274,6.597 0.596,0.266 1.204,0.492 1.814,0.676 0.064,0.022 0.128,0.042 0.193,0.06 3.157,0.925 6.432,0.809 9.409,-0.186 0.012,-10e-4 0.024,-0.005 0.036,-0.01 2.55,-0.858 4.877,-2.363 6.717,-4.409 1.076,-1.192 1.984,-2.573 2.672,-4.116 0.428,-0.96 0.75,-1.939 0.974,-2.925 C 10.601,10.722 6.988,3.116 0,0 m 9.52,30.636 c -1.881,1.843 -4.053,3.335 -6.407,4.417 -0.042,0.022 -0.086,0.042 -0.129,0.06 -3.318,1.504 -6.983,2.216 -10.683,2.012 -2.531,-0.134 -5.077,-0.704 -7.537,-1.737 -0.152,-0.065 -0.307,-0.131 -0.458,-0.199 -4.411,-1.966 -7.891,-5.174 -10.207,-9.033 -3.704,-6.155 -4.446,-13.962 -1.304,-21.009 5.109,-11.455 18.587,-16.619 30.042,-11.509 10.501,4.682 15.715,16.396 12.577,27.138 -0.285,0.98 -0.641,1.949 -1.066,2.904 -1.196,2.679 -2.848,5.016 -4.828,6.956"
         style="fill:#646491;fill-opacity:1;fill-rule:nonzero;stroke:none"
         id="path510" /></g><g
       id="g512"
       transform="translate(66.5112,227.6719)"><path
         d="m 0,0 c 2.354,-1.082 4.526,-2.573 6.407,-4.417 1.98,-1.939 3.633,-4.276 4.828,-6.956 0.426,-0.955 0.782,-1.924 1.066,-2.903 l -6.454,-2.86 c -0.224,0.987 -0.547,1.965 -0.974,2.925 -0.688,1.543 -1.597,2.924 -2.672,4.116 -1.841,2.046 -4.168,3.551 -6.718,4.409 l -0.036,0.01 4.424,5.737"
         style="fill:#ffa24d;fill-opacity:1;fill-rule:nonzero;stroke:none"
         id="path514" /></g><g
       id="g516"
       transform="translate(66.5112,227.6719)"><path
         d="M 0,0 -4.517,-5.686"
         style="fill:#ffa24d;fill-opacity:1;fill-rule:nonzero;stroke:none"
         id="path518" /></g><g
       id="g520"
       transform="translate(61.9941,221.9863)"><path
         d="M 0,0 -0.036,0.01 C -3.013,1.005 -6.288,1.121 -9.445,0.196 -9.509,0.178 -9.574,0.158 -9.637,0.136 l -4.195,5.885 c 2.46,1.033 5.006,1.603 7.537,1.737 C -2.594,7.962 1.07,7.25 4.388,5.746"
         style="fill:#d53b5e;fill-opacity:1;fill-rule:nonzero;stroke:none"
         id="path522" /></g><g
       id="g524"
       transform="translate(58.7842,184.2852)"><path
         d="M 0,0 V -2"
         style="fill:none;stroke:#ff7936;stroke-width:1;stroke-linecap:butt;stroke-linejoin:miter;stroke-miterlimit:10;stroke-dasharray:none;stroke-opacity:1"
         id="path526" /></g><g
       id="g528"
       transform="translate(58.7842,178.458)"><path
         d="M 0,0 V -28.706"
         style="fill:none;stroke:#ff7936;stroke-width:1;stroke-linecap:butt;stroke-linejoin:miter;stroke-miterlimit:10;stroke-dasharray:3.827, 3.827;stroke-dashoffset:0;stroke-opacity:1"
         id="path530" /></g><g
       id="g532"
       transform="translate(58.7842,147.8379)"><path
         d="M 0,0 V -2 H 2"
         style="fill:none;stroke:#ff7936;stroke-width:1;stroke-linecap:butt;stroke-linejoin:miter;stroke-miterlimit:10;stroke-dasharray:none;stroke-opacity:1"
         id="path534" /></g><g
       id="g536"
       transform="translate(64.8994,145.8379)"><path
         d="M 0,0 H 55.561"
         style="fill:none;stroke:#ff7936;stroke-width:1;stroke-linecap:butt;stroke-linejoin:miter;stroke-miterlimit:10;stroke-dasharray:4.116, 4.116;stroke-dashoffset:0;stroke-opacity:1"
         id="path538" /></g><g
       id="g540"
       transform="translate(122.5181,145.8379)"><path
         d="M 0,0 H 2 V 2"
         style="fill:none;stroke:#ff7936;stroke-width:1;stroke-linecap:butt;stroke-linejoin:miter;stroke-miterlimit:10;stroke-dasharray:none;stroke-opacity:1"
         id="path542" /></g><g
       id="g544"
       transform="translate(124.5181,151.7334)"><path
         d="M 0,0 V 29.21"
         style="fill:none;stroke:#ff7936;stroke-width:1;stroke-linecap:butt;stroke-linejoin:miter;stroke-miterlimit:10;stroke-dasharray:3.895, 3.895;stroke-dashoffset:0;stroke-opacity:1"
         id="path546" /></g><g
       id="g548"
       transform="translate(124.5181,182.8916)"><path
         d="M 0,0 V 2"
         style="fill:none;stroke:#ff7936;stroke-width:1;stroke-linecap:butt;stroke-linejoin:miter;stroke-miterlimit:10;stroke-dasharray:none;stroke-opacity:1"
         id="path550" /></g><path
       d="M 293.375,186.785 H 100.527 v 229.918 h 192.848 z"
       style="fill:#4d4d4d;fill-opacity:1;fill-rule:nonzero;stroke:none"
       id="path552" /><path
       d="M 293.375,398.722 H 100.527 v 29.181 h 192.848 z"
       style="fill:#4d4d4d;fill-opacity:1;fill-rule:nonzero;stroke:none"
       id="path554" /><g
       id="g556"
       transform="translate(271.0596,202.5996)"><path
         d="M 0,0 V -1.894 L -6.935,-4.53 v 1.82 l 4.852,1.764 -4.852,1.777 v 1.807 z"
         style="fill:#ffa24d;fill-opacity:1;fill-rule:nonzero;stroke:none"
         id="path558" /></g><g
       id="g560"
       transform="translate(251.3433,205.2373)"><path
         d="M 0,0 V -1.807 L -4.852,-3.584 0,-5.348 v -1.82 l -6.935,2.637 v 1.893 z"
         style="fill:#ffa24d;fill-opacity:1;fill-rule:nonzero;stroke:none"
         id="path562" /></g><text
       transform="matrix(1,0,0,-1,254.9062,197.2012)"
       style="font-variant:normal;font-weight:bold;font-stretch:normal;font-size:15.6111px;font-family:Montserrat;-inkscape-font-specification:Montserrat-Bold;writing-mode:lr-tb;fill:#ffa24d;fill-opacity:1;fill-rule:nonzero;stroke:none"
       id="text566"><tspan
         x="0"
         y="0"
         id="tspan564">/</tspan></text><g
       id="g568"><g
         id="g570"
         clip-path="url(#clipPath574)"><g
           id="g576"
           transform="translate(146.2251,380.1196)"><path
             d="M 0,0 V -2.362 L -8.648,-5.65 v 2.271 l 6.05,2.198 -6.05,2.216 v 2.254 z"
             style="fill:#ffa24d;fill-opacity:1;fill-rule:nonzero;stroke:none"
             id="path578" /></g><g
           id="g580"
           transform="translate(130.3218,383.4082)"><path
             d="M 0,0 V -2.253 L -6.05,-4.47 0,-6.668 v -2.271 l -8.648,3.288 v 2.362 z"
             style="fill:#ffa24d;fill-opacity:1;fill-rule:nonzero;stroke:none"
             id="path582" /></g></g></g><text
       transform="matrix(1,0,0,-1,112.229,407.127)"
       style="font-variant:normal;font-weight:bold;font-stretch:normal;font-size:13.8438px;font-family:Montserrat;-inkscape-font-specification:Montserrat-Bold;writing-mode:lr-tb;fill:#ffffff;fill-opacity:1;fill-rule:nonzero;stroke:none"
       id="text586"><tspan
         x="0 15.892682 25.181871 35.772381 39.690174 51.125153 60.275906 70.395721 79.684914 87.88044 99.564613 109.55983 114.1006 125.28639"
         y="0"
         sodipodi:role="line"
         id="tspan584">WEB DEVELOPING</tspan></text><g
       id="g588"><g
         id="g590"
         clip-path="url(#clipPath594)"><path
           d="m 190.555,350.065 h -56.688 v 10.381 h 56.688 z"
           style="fill:#00b4cf;fill-opacity:1;fill-rule:nonzero;stroke:none"
           id="path596" /><path
           d="m 226.886,350.065 h -28.344 v 10.381 h 28.344 z"
           style="fill:#ffa24d;fill-opacity:1;fill-rule:nonzero;stroke:none"
           id="path598" /><path
           d="m 272.452,350.065 h -39.038 v 10.381 h 39.038 z"
           style="fill:#ffffff;fill-opacity:1;fill-rule:nonzero;stroke:none"
           id="path600" /><path
           d="m 160.325,331.531 h -26.457 v 10.381 h 26.457 z"
           style="fill:#00b4cf;fill-opacity:1;fill-rule:nonzero;stroke:none"
           id="path602" /><path
           d="m 212.714,331.531 h -45.19 v 10.381 h 45.19 z"
           style="fill:#ffa24d;fill-opacity:1;fill-rule:nonzero;stroke:none"
           id="path604" /><path
           d="m 272.452,331.531 h -52.374 v 10.381 h 52.374 z"
           style="fill:#ffffff;fill-opacity:1;fill-rule:nonzero;stroke:none"
           id="path606" /><path
           d="m 168.694,312.997 h -34.826 v 10.382 h 34.826 z"
           style="fill:#00b4cf;fill-opacity:1;fill-rule:nonzero;stroke:none"
           id="path608" /><path
           d="m 239.875,312.997 h -65.512 v 10.382 h 65.512 z"
           style="fill:#ffa24d;fill-opacity:1;fill-rule:nonzero;stroke:none"
           id="path610" /><path
           d="m 272.452,312.997 h -25.557 v 10.382 h 25.557 z"
           style="fill:#ffffff;fill-opacity:1;fill-rule:nonzero;stroke:none"
           id="path612" /><path
           d="m 177.783,294.463 h -43.915 v 10.381 h 43.915 z"
           style="fill:#00b4cf;fill-opacity:1;fill-rule:nonzero;stroke:none"
           id="path614" /><path
           d="m 226.886,294.463 h -42.624 v 10.381 h 42.624 z"
           style="fill:#ffa24d;fill-opacity:1;fill-rule:nonzero;stroke:none"
           id="path616" /><path
           d="m 272.452,294.463 h -39.038 v 10.381 h 39.038 z"
           style="fill:#ffffff;fill-opacity:1;fill-rule:nonzero;stroke:none"
           id="path618" /><path
           d="m 153.125,275.929 h -19.258 v 10.381 h 19.258 z"
           style="fill:#00b4cf;fill-opacity:1;fill-rule:nonzero;stroke:none"
           id="path620" /><path
           d="M 197.76,275.929 H 159.605 V 286.31 H 197.76 Z"
           style="fill:#ffa24d;fill-opacity:1;fill-rule:nonzero;stroke:none"
           id="path622" /><path
           d="M 272.452,275.929 H 203.7 v 10.381 h 68.752 z"
           style="fill:#ffffff;fill-opacity:1;fill-rule:nonzero;stroke:none"
           id="path624" /><path
           d="m 188.941,257.395 h -55.074 v 10.381 h 55.074 z"
           style="fill:#00b4cf;fill-opacity:1;fill-rule:nonzero;stroke:none"
           id="path626" /><path
           d="m 212.714,257.395 h -16.933 v 10.381 h 16.933 z"
           style="fill:#ffa24d;fill-opacity:1;fill-rule:nonzero;stroke:none"
           id="path628" /><path
           d="m 272.452,257.395 h -52.374 v 10.381 h 52.374 z"
           style="fill:#ffffff;fill-opacity:1;fill-rule:nonzero;stroke:none"
           id="path630" /><path
           d="m 205.574,238.86 h -71.706 v 10.382 h 71.706 z"
           style="fill:#00b4cf;fill-opacity:1;fill-rule:nonzero;stroke:none"
           id="path632" /><path
           d="m 240.955,238.86 h -29.336 v 10.382 h 29.336 z"
           style="fill:#ffa24d;fill-opacity:1;fill-rule:nonzero;stroke:none"
           id="path634" /><path
           d="m 272.452,238.86 h -25.557 v 10.382 h 25.557 z"
           style="fill:#ffffff;fill-opacity:1;fill-rule:nonzero;stroke:none"
           id="path636" /><path
           d="m 155.825,220.327 h -21.958 v 10.381 h 21.958 z"
           style="fill:#00b4cf;fill-opacity:1;fill-rule:nonzero;stroke:none"
           id="path638" /><path
           d="m 188.941,220.327 h -26.73 v 10.381 h 26.73 z"
           style="fill:#ffa24d;fill-opacity:1;fill-rule:nonzero;stroke:none"
           id="path640" /><path
           d="m 272.452,220.327 h -76.671 v 10.381 h 76.671 z"
           style="fill:#ffffff;fill-opacity:1;fill-rule:nonzero;stroke:none"
           id="path642" /><path
           d="m 282.144,220.327 h -2.111 v 140.119 h 2.111 z"
           style="fill:#ffffff;fill-opacity:1;fill-rule:nonzero;stroke:none"
           id="path644" /><g
           id="g646"
           transform="translate(121.2324,355.2554)"><path
             d="m 0,0 c 0,-2.867 -2.324,-5.19 -5.191,-5.19 -2.867,0 -5.191,2.323 -5.191,5.19 0,2.867 2.324,5.191 5.191,5.191 C -2.324,5.191 0,2.867 0,0"
             style="fill:#ffffff;fill-opacity:1;fill-rule:nonzero;stroke:none"
             id="path648" /></g><g
           id="g650"
           transform="translate(121.2324,336.7217)"><path
             d="m 0,0 c 0,-2.867 -2.324,-5.191 -5.191,-5.191 -2.867,0 -5.191,2.324 -5.191,5.191 0,2.867 2.324,5.19 5.191,5.19 C -2.324,5.19 0,2.867 0,0"
             style="fill:#ffffff;fill-opacity:1;fill-rule:nonzero;stroke:none"
             id="path652" /></g><g
           id="g654"
           transform="translate(121.2324,318.1875)"><path
             d="m 0,0 c 0,-2.867 -2.324,-5.191 -5.191,-5.191 -2.867,0 -5.191,2.324 -5.191,5.191 0,2.867 2.324,5.191 5.191,5.191 C -2.324,5.191 0,2.867 0,0"
             style="fill:#ffffff;fill-opacity:1;fill-rule:nonzero;stroke:none"
             id="path656" /></g><g
           id="g658"
           transform="translate(121.2324,299.6533)"><path
             d="m 0,0 c 0,-2.867 -2.324,-5.19 -5.191,-5.19 -2.867,0 -5.191,2.323 -5.191,5.19 0,2.867 2.324,5.191 5.191,5.191 C -2.324,5.191 0,2.867 0,0"
             style="fill:#ffffff;fill-opacity:1;fill-rule:nonzero;stroke:none"
             id="path660" /></g><g
           id="g662"
           transform="translate(121.2324,281.1196)"><path
             d="m 0,0 c 0,-2.867 -2.324,-5.191 -5.191,-5.191 -2.867,0 -5.191,2.324 -5.191,5.191 0,2.867 2.324,5.19 5.191,5.19 C -2.324,5.19 0,2.867 0,0"
             style="fill:#ffffff;fill-opacity:1;fill-rule:nonzero;stroke:none"
             id="path664" /></g><g
           id="g666"
           transform="translate(121.2324,262.5854)"><path
             d="m 0,0 c 0,-2.867 -2.324,-5.19 -5.191,-5.19 -2.867,0 -5.191,2.323 -5.191,5.19 0,2.867 2.324,5.191 5.191,5.191 C -2.324,5.191 0,2.867 0,0"
             style="fill:#ffffff;fill-opacity:1;fill-rule:nonzero;stroke:none"
             id="path668" /></g><g
           id="g670"
           transform="translate(121.2324,244.0518)"><path
             d="m 0,0 c 0,-2.867 -2.324,-5.191 -5.191,-5.191 -2.867,0 -5.191,2.324 -5.191,5.191 0,2.866 2.324,5.19 5.191,5.19 C -2.324,5.19 0,2.866 0,0"
             style="fill:#ffffff;fill-opacity:1;fill-rule:nonzero;stroke:none"
             id="path672" /></g><g
           id="g674"
           transform="translate(121.2324,225.5176)"><path
             d="m 0,0 c 0,-2.867 -2.324,-5.19 -5.191,-5.19 -2.867,0 -5.191,2.323 -5.191,5.19 0,2.866 2.324,5.19 5.191,5.19 C -2.324,5.19 0,2.866 0,0"
             style="fill:#ffffff;fill-opacity:1;fill-rule:nonzero;stroke:none"
             id="path676" /></g><g
           id="g678"
           transform="translate(284.7856,411.7031)"><path
             d="m 0,0 c 0,-2.924 -2.37,-5.294 -5.294,-5.294 -2.924,0 -5.294,2.37 -5.294,5.294 0,2.924 2.37,5.294 5.294,5.294 C -2.37,5.294 0,2.924 0,0"
             style="fill:#d53b5e;fill-opacity:1;fill-rule:nonzero;stroke:none"
             id="path680" /></g><g
           id="g682"
           transform="translate(271.6987,411.8096)"><path
             d="m 0,0 c 0,-2.946 -2.388,-5.334 -5.334,-5.334 -2.946,0 -5.334,2.388 -5.334,5.334 0,2.946 2.388,5.334 5.334,5.334 C -2.388,5.334 0,2.946 0,0"
             style="fill:#ffffff;fill-opacity:1;fill-rule:nonzero;stroke:none"
             id="path684" /></g><path
           d="m 337.724,384.434 h -18.682 v 5.234 h 18.682 z"
           style="fill:#3f537e;fill-opacity:1;fill-rule:nonzero;stroke:none"
           id="path686" /><path
           d="m 376.195,393.753 h -57.153 v 5.234 h 57.153 z"
           style="fill:#646491;fill-opacity:1;fill-rule:nonzero;stroke:none"
           id="path688" /><g
           id="g690"
           transform="translate(352.062,383.437)"><path
             d="M 0,0 V -2"
             style="fill:none;stroke:#ff7936;stroke-width:1;stroke-linecap:butt;stroke-linejoin:miter;stroke-miterlimit:10;stroke-dasharray:none;stroke-opacity:1"
             id="path692" /></g><g
           id="g694"
           transform="translate(352.062,378.061)"><path
             d="M 0,0 V -11.817"
             style="fill:none;stroke:#ff7936;stroke-width:1;stroke-linecap:butt;stroke-linejoin:miter;stroke-miterlimit:10;stroke-dasharray:3.376, 3.376;stroke-dashoffset:0;stroke-opacity:1"
             id="path696" /></g><g
           id="g698"
           transform="translate(352.062,364.5557)"><path
             d="M 0,0 V -2 H 2"
             style="fill:none;stroke:#ff7936;stroke-width:1;stroke-linecap:butt;stroke-linejoin:miter;stroke-miterlimit:10;stroke-dasharray:none;stroke-opacity:1"
             id="path700" /></g><g
           id="g702"
           transform="translate(357.8711,362.5557)"><path
             d="M 0,0 H 59.041"
             style="fill:none;stroke:#ff7936;stroke-width:1;stroke-linecap:butt;stroke-linejoin:miter;stroke-miterlimit:10;stroke-dasharray:3.809, 3.809;stroke-dashoffset:0;stroke-opacity:1"
             id="path704" /></g><g
           id="g706"
           transform="translate(418.8164,362.5557)"><path
             d="M 0,0 H 2 V 2"
             style="fill:none;stroke:#ff7936;stroke-width:1;stroke-linecap:butt;stroke-linejoin:miter;stroke-miterlimit:10;stroke-dasharray:none;stroke-opacity:1"
             id="path708" /></g><g
           id="g710"
           transform="translate(420.8164,368.6128)"><path
             d="M 0,0 V 6.085"
             style="fill:none;stroke:#ff7936;stroke-width:1;stroke-linecap:butt;stroke-linejoin:miter;stroke-miterlimit:10;stroke-dasharray:4.057, 4.057;stroke-dashoffset:0;stroke-opacity:1"
             id="path712" /></g><g
           id="g714"
           transform="translate(420.8164,376.7271)"><path
             d="M 0,0 V 2"
             style="fill:none;stroke:#ff7936;stroke-width:1;stroke-linecap:butt;stroke-linejoin:miter;stroke-miterlimit:10;stroke-dasharray:none;stroke-opacity:1"
             id="path716" /></g></g></g><text
       transform="matrix(1,0,0,-1,319.042,412.8101)"
       style="font-variant:normal;font-weight:900;font-stretch:normal;font-size:18.4267px;font-family:'Montserrat Black';-inkscape-font-specification:Montserrat-Black;writing-mode:lr-tb;fill:#ffffff;fill-opacity:1;fill-rule:nonzero;stroke:none"
       id="text720"><tspan
         x="0 13.525198 25.63154"
         y="0"
         sodipodi:role="line"
         id="tspan718">CSS</tspan></text><g
       id="g730"
       transform="translate(425.2773,385.6294)"><path
         d="m 0,0 c -5.516,-2.456 -12.001,0.027 -14.457,5.542 -0.201,0.451 -0.367,0.909 -0.506,1.374 -0.853,2.886 -0.444,5.931 0.964,8.435 0.007,0.021 0.02,0.049 0.035,0.069 1.11,1.956 2.83,3.594 5.043,4.579 0.416,0.18 0.832,0.34 1.262,0.464 0.042,0.021 0.084,0.036 0.132,0.042 2.192,0.645 4.461,0.562 6.528,-0.125 0.007,0 0.014,-0.006 0.02,-0.006 1.769,-0.597 3.386,-1.645 4.662,-3.06 0.75,-0.825 1.374,-1.782 1.852,-2.857 C 5.834,13.791 6.056,13.11 6.215,12.431 6.639,10.572 6.555,8.678 6.035,6.916 5.168,3.94 3.045,1.359 0,0 m 10.689,14.415 c -0.194,0.68 -0.444,1.352 -0.735,2.011 -0.832,1.86 -1.977,3.483 -3.35,4.828 -1.304,1.277 -2.817,2.31 -4.447,3.059 -0.028,0.021 -0.062,0.035 -0.091,0.042 -2.302,1.048 -4.841,1.54 -7.408,1.401 -1.755,-0.097 -3.524,-0.492 -5.23,-1.207 -0.104,-0.048 -0.215,-0.09 -0.32,-0.138 -3.058,-1.367 -5.472,-3.587 -7.075,-6.265 -1.998,-3.315 -2.754,-7.318 -1.97,-11.23 0.222,-1.131 0.576,-2.248 1.061,-3.344 3.545,-7.949 12.896,-11.529 20.839,-7.984 4.849,2.164 8.074,6.479 9.046,11.328 0.492,2.435 0.409,5.001 -0.32,7.499"
         style="fill:#646491;fill-opacity:1;fill-rule:nonzero;stroke:none"
         id="path732" /></g><g
       id="g734"
       transform="translate(436.2861,392.5454)"><path
         d="m 0,0 h -4.974 c 0.52,1.762 0.604,3.656 0.18,5.515 -0.159,0.679 -0.381,1.36 -0.68,2.026 -0.478,1.075 -1.102,2.032 -1.852,2.857 -1.276,1.415 -2.893,2.463 -4.661,3.06 -0.007,0 -0.014,0.006 -0.021,0.006 -2.067,0.687 -4.336,0.77 -6.528,0.125 -0.048,-0.006 -0.09,-0.021 -0.132,-0.042 -0.43,-0.124 -0.846,-0.284 -1.262,-0.464 -2.213,-0.985 -3.933,-2.623 -5.043,-4.579 -0.014,-0.02 -0.028,-0.048 -0.035,-0.069 C -26.416,5.931 -26.825,2.886 -25.972,0 h -4.974 c -0.783,3.912 -0.028,7.915 1.97,11.23 1.603,2.678 4.017,4.898 7.076,6.265 0.104,0.048 0.215,0.09 0.319,0.138 1.706,0.715 3.476,1.11 5.23,1.207 2.567,0.139 5.106,-0.353 7.409,-1.401 0.028,-0.007 0.062,-0.021 0.09,-0.042 1.63,-0.749 3.143,-1.782 4.447,-3.059 1.373,-1.345 2.518,-2.968 3.35,-4.828 C -0.764,8.851 -0.514,8.179 -0.319,7.499 0.409,5.001 0.492,2.435 0,0"
         style="fill:#d53b5e;fill-opacity:1;fill-rule:nonzero;stroke:none"
         id="path736" /></g><path
       d="m 376.195,384.434 h -34.728 v 5.234 h 34.728 z"
       style="fill:#646491;fill-opacity:1;fill-rule:nonzero;stroke:none"
       id="path738" /><text
       transform="matrix(1,0,0,-1,48.6606,405.6289)"
       style="font-variant:normal;font-weight:900;font-stretch:normal;font-size:26.4103px;font-family:'Montserrat Black';-inkscape-font-specification:Montserrat-Black;writing-mode:lr-tb;fill:#2e2e46;fill-opacity:1;fill-rule:nonzero;stroke:none"
       id="text742"><tspan
         x="0 11.567712 19.490801"
         y="0"
         sodipodi:role="line"
         id="tspan740">{ }</tspan></text><g
       id="g744"><path
         d="m 69.054,366.252 h -20.54 v 9.802 h 20.54 z"
         style="fill:#ffffff;fill-opacity:1;fill-rule:nonzero;stroke:none"
         id="path752" /><path
         d="m 69.054,349.128 h -20.54 v 9.802 h 20.54 z"
         style="fill:#ffffff;fill-opacity:1;fill-rule:nonzero;stroke:none"
         id="path754" /><path
         d="m 69.054,332.003 h -20.54 v 9.802 h 20.54 z"
         style="fill:#ffa24d;fill-opacity:1;fill-rule:nonzero;stroke:none"
         id="path756" /><path
         d="m 69.054,314.878 h -20.54 v 9.802 h 20.54 z"
         style="fill:#ffa24d;fill-opacity:1;fill-rule:nonzero;stroke:none"
         id="path758" /><path
         d="m 69.054,297.753 h -20.54 v 9.802 h 20.54 z"
         style="fill:#ffa24d;fill-opacity:1;fill-rule:nonzero;stroke:none"
         id="path760" /><path
         d="m 69.054,280.628 h -20.54 v 9.802 h 20.54 z"
         style="fill:#ffa24d;fill-opacity:1;fill-rule:nonzero;stroke:none"
         id="path762" /><path
         d="m 69.054,263.504 h -20.54 v 9.802 h 20.54 z"
         style="fill:#ffa24d;fill-opacity:1;fill-rule:nonzero;stroke:none"
         id="path764" /><g
         id="g766"
         transform="translate(634.7451,176.459)"><path
           d="m 0,0 c -3.898,0 -7.058,3.159 -7.058,7.058 0,3.897 3.16,7.056 7.058,7.056 3.897,0 7.057,-3.159 7.057,-7.056 C 7.057,3.159 3.897,0 0,0 m 14.746,6.853 c 0,0.071 0.009,0.133 0.009,0.205 0,0.071 -0.009,0.133 -0.009,0.195 1.024,0.472 2.056,1.015 3.07,1.673 1.086,0.748 2.19,1.611 3.213,2.599 l -0.222,0.872 c -0.214,0.988 -0.596,1.94 -0.944,2.892 -0.196,0.463 -0.426,0.917 -0.649,1.371 -0.205,0.472 -0.454,0.907 -0.73,1.335 l -0.463,0.766 c -1.397,-0.01 -2.812,-0.188 -4.103,-0.428 -1.165,-0.24 -2.295,-0.587 -3.346,-0.987 l -0.285,0.284 c 0.392,1.059 0.748,2.181 0.98,3.347 0.249,1.29 0.426,2.705 0.435,4.102 l -0.764,0.463 c -0.428,0.275 -0.873,0.524 -1.335,0.729 -0.455,0.223 -0.909,0.455 -1.38,0.65 -0.952,0.348 -1.896,0.73 -2.883,0.943 L 4.468,28.087 C 3.479,27.063 2.616,25.969 1.868,24.874 1.21,23.868 0.667,22.836 0.195,21.804 c -0.062,0 -0.133,0.017 -0.195,0.017 -0.071,0 -0.134,-0.017 -0.205,-0.017 -0.463,1.032 -1.015,2.064 -1.673,3.07 -0.738,1.095 -1.61,2.189 -2.59,3.213 L -5.34,27.864 c -0.997,-0.213 -1.94,-0.595 -2.892,-0.943 -0.463,-0.195 -0.917,-0.427 -1.38,-0.65 -0.462,-0.205 -0.899,-0.454 -1.335,-0.729 l -0.765,-0.463 c 0.018,-1.397 0.195,-2.812 0.437,-4.102 0.239,-1.166 0.587,-2.288 0.987,-3.347 -0.098,-0.098 -0.196,-0.187 -0.284,-0.284 -1.06,0.4 -2.181,0.747 -3.347,0.987 -1.29,0.24 -2.715,0.418 -4.102,0.428 l -0.472,-0.766 c -0.268,-0.428 -0.517,-0.863 -0.73,-1.335 -0.214,-0.454 -0.445,-0.908 -0.641,-1.371 -0.356,-0.952 -0.73,-1.904 -0.943,-2.892 l -0.222,-0.872 c 1.023,-0.988 2.118,-1.851 3.212,-2.599 1.005,-0.658 2.038,-1.201 3.061,-1.673 0,-0.062 -0.009,-0.124 -0.009,-0.195 0,-0.072 0.009,-0.134 0.009,-0.205 -1.023,-0.463 -2.056,-1.015 -3.061,-1.673 -1.094,-0.739 -2.189,-1.611 -3.212,-2.59 l 0.222,-0.872 c 0.213,-0.989 0.587,-1.941 0.943,-2.893 0.196,-0.463 0.427,-0.916 0.641,-1.379 0.213,-0.463 0.462,-0.899 0.73,-1.326 l 0.472,-0.766 c 1.387,0.009 2.812,0.188 4.102,0.428 1.166,0.24 2.287,0.587 3.347,0.988 0.088,-0.098 0.186,-0.196 0.284,-0.286 -0.4,-1.058 -0.748,-2.179 -0.987,-3.345 -0.242,-1.29 -0.419,-2.714 -0.437,-4.103 l 0.765,-0.472 c 0.436,-0.266 0.873,-0.516 1.335,-0.72 0.463,-0.223 0.917,-0.454 1.38,-0.651 0.952,-0.355 1.895,-0.729 2.892,-0.942 l 0.872,-0.223 c 0.98,1.024 1.852,2.118 2.59,3.213 0.658,1.005 1.21,2.038 1.673,3.07 0.071,-0.009 0.134,-0.018 0.205,-0.018 0.062,0 0.133,0.009 0.195,0.018 0.472,-1.032 1.015,-2.065 1.673,-3.07 0.748,-1.095 1.611,-2.189 2.6,-3.213 l 0.872,0.223 c 0.987,0.213 1.931,0.587 2.883,0.942 0.471,0.197 0.925,0.428 1.38,0.651 0.462,0.204 0.907,0.454 1.335,0.72 l 0.764,0.472 c -0.009,1.389 -0.186,2.813 -0.435,4.103 -0.232,1.166 -0.588,2.287 -0.98,3.345 0.099,0.09 0.188,0.188 0.285,0.286 1.051,-0.401 2.181,-0.748 3.346,-0.988 1.291,-0.24 2.706,-0.419 4.103,-0.428 l 0.463,0.766 c 0.276,0.427 0.525,0.863 0.73,1.326 0.223,0.463 0.453,0.916 0.649,1.379 0.348,0.952 0.73,1.904 0.944,2.893 l 0.222,0.872 c -1.023,0.979 -2.127,1.851 -3.213,2.59 -1.014,0.658 -2.046,1.21 -3.07,1.673"
           style="fill:#2e2e46;fill-opacity:1;fill-rule:nonzero;stroke:none"
           id="path768" /></g><path
         d="m 584.639,167.553 h -9.317 v 41.968 h 9.317 z"
         style="fill:#d53b5e;fill-opacity:1;fill-rule:nonzero;stroke:none"
         id="path770" /><path
         d="m 571.564,167.553 h -9.988 v 23.477 h 9.988 z"
         style="fill:#646491;fill-opacity:1;fill-rule:nonzero;stroke:none"
         id="path772" /><path
         d="m 557.729,167.553 h -9.988 v 15.964 h 9.988 z"
         style="fill:#ff7936;fill-opacity:1;fill-rule:nonzero;stroke:none"
         id="path774" /><g
         id="g776"
         transform="translate(545.9736,174.2383)"><path
           d="M 0,0 H -2"
           style="fill:none;stroke:#ff7936;stroke-width:1;stroke-linecap:butt;stroke-linejoin:miter;stroke-miterlimit:10;stroke-dasharray:none;stroke-opacity:1"
           id="path778" /></g><g
         id="g780"
         transform="translate(538.9023,174.2383)"><path
           d="M 0,0 H -7.606"
           style="fill:none;stroke:#ff7936;stroke-width:1;stroke-linecap:butt;stroke-linejoin:miter;stroke-miterlimit:10;stroke-dasharray:5.071, 5.071;stroke-dashoffset:0;stroke-opacity:1"
           id="path782" /></g><g
         id="g784"
         transform="translate(528.7607,174.2383)"><path
           d="M 0,0 H -2 V -2"
           style="fill:none;stroke:#ff7936;stroke-width:1;stroke-linecap:butt;stroke-linejoin:miter;stroke-miterlimit:10;stroke-dasharray:none;stroke-opacity:1"
           id="path786" /></g><g
         id="g788"
         transform="translate(526.7607,168.4971)"><path
           d="M 0,0 V -28.054"
           style="fill:none;stroke:#ff7936;stroke-width:1;stroke-linecap:butt;stroke-linejoin:miter;stroke-miterlimit:10;stroke-dasharray:3.74, 3.74;stroke-dashoffset:0;stroke-opacity:1"
           id="path790" /></g><g
         id="g792"
         transform="translate(526.7607,138.5732)"><path
           d="M 0,0 V -2 H 2"
           style="fill:none;stroke:#ff7936;stroke-width:1;stroke-linecap:butt;stroke-linejoin:miter;stroke-miterlimit:10;stroke-dasharray:none;stroke-opacity:1"
           id="path794" /></g><g
         id="g796"
         transform="translate(532.1562,136.5732)"><path
           d="M 0,0 H 11.886"
           style="fill:none;stroke:#ff7936;stroke-width:1;stroke-linecap:butt;stroke-linejoin:miter;stroke-miterlimit:10;stroke-dasharray:3.396, 3.396;stroke-dashoffset:0;stroke-opacity:1"
           id="path798" /></g><g
         id="g800"
         transform="translate(545.7393,136.5732)"><path
           d="M 0,0 H 2"
           style="fill:none;stroke:#ff7936;stroke-width:1;stroke-linecap:butt;stroke-linejoin:miter;stroke-miterlimit:10;stroke-dasharray:none;stroke-opacity:1"
           id="path802" /></g><path
         d="m 577.333,133.715 h -26.43 v 4.724 h 26.43 z"
         style="fill:#ffffff;fill-opacity:1;fill-rule:nonzero;stroke:none"
         id="path804" /><path
         d="m 569.184,124.976 h -18.28 v 4.724 h 18.28 z"
         style="fill:#ffffff;fill-opacity:1;fill-rule:nonzero;stroke:none"
         id="path806" /><path
         d="m 574.042,116.236 h -23.139 v 4.724 h 23.139 z"
         style="fill:#ffffff;fill-opacity:1;fill-rule:nonzero;stroke:none"
         id="path808" /><path
         d="m 584.23,116.236 h -5.401 v 4.724 h 5.401 z"
         style="fill:#ffa24d;fill-opacity:1;fill-rule:nonzero;stroke:none"
         id="path810" /><path
         d="m 609.057,116.236 h -19.874 v 4.724 h 19.874 z"
         style="fill:#ffa24d;fill-opacity:1;fill-rule:nonzero;stroke:none"
         id="path812" /><path
         d="m 609.057,124.976 h -34.015 v 4.724 h 34.015 z"
         style="fill:#ffa24d;fill-opacity:1;fill-rule:nonzero;stroke:none"
         id="path814" /><path
         d="m 609.057,133.715 h -26.43 v 4.724 h 26.43 z"
         style="fill:#ffa24d;fill-opacity:1;fill-rule:nonzero;stroke:none"
         id="path816" /><path
         d="m 699.692,177.767 h -17.414 v 8.311 h 17.414 z"
         style="fill:#d53b5e;fill-opacity:1;fill-rule:nonzero;stroke:none"
         id="path818" /><path
         d="m 699.692,163.247 h -17.414 v 8.311 h 17.414 z"
         style="fill:#d53b5e;fill-opacity:1;fill-rule:nonzero;stroke:none"
         id="path820" /><path
         d="m 699.692,148.728 h -17.414 v 8.311 h 17.414 z"
         style="fill:#d53b5e;fill-opacity:1;fill-rule:nonzero;stroke:none"
         id="path822" /><path
         d="m 699.692,134.209 h -17.414 v 8.311 h 17.414 z"
         style="fill:#d53b5e;fill-opacity:1;fill-rule:nonzero;stroke:none"
         id="path824" /><path
         d="M 699.692,119.689 H 682.278 V 128 h 17.414 z"
         style="fill:#ffffff;fill-opacity:1;fill-rule:nonzero;stroke:none"
         id="path826" /><path
         d="m 699.692,105.17 h -17.414 v 8.311 h 17.414 z"
         style="fill:#ffffff;fill-opacity:1;fill-rule:nonzero;stroke:none"
         id="path828" /><path
         d="m 699.692,90.651 h -17.414 v 8.311 h 17.414 z"
         style="fill:#ffffff;fill-opacity:1;fill-rule:nonzero;stroke:none"
         id="path830" /><g
         id="g832"
         transform="translate(623.7656,66.8369)"><path
           d="m 0,0 c -6.509,-0.49 -11.957,1.057 -16.509,3.882 -18.371,11.368 -22.203,43.43 -22.468,45.838 0.162,-0.74 1.972,-4.659 21.067,-17.505 1.589,-1.072 3.044,-2.159 4.372,-3.259 0,0 0.023,-0.019 0.069,-0.053 C 3.171,15.123 0,0 0,0"
           style="fill:#008167;fill-opacity:1;fill-rule:nonzero;stroke:none"
           id="path834" /></g><g
         id="g836"
         transform="translate(584.7754,116.6982)"><path
           d="M 0,0 C 0,0 17.154,-42.095 36.184,-46.525"
           style="fill:none;stroke:#006d51;stroke-width:1;stroke-linecap:butt;stroke-linejoin:miter;stroke-miterlimit:10;stroke-dasharray:none;stroke-opacity:1"
           id="path838" /></g><g
         id="g840"><g
           id="g842" /><g
           id="g854"><g
             clip-path="url(#clipPath846)"
             opacity="0.5"
             id="g852"><g
               transform="translate(623.7656,66.8369)"
               id="g850"><path
                 d="m 0,0 c -6.509,-0.49 -11.957,1.057 -16.509,3.882 3.656,8.653 2.971,25.074 2.971,25.074 0,0 0.023,-0.019 0.069,-0.053 C 3.171,15.123 0,0 0,0"
                 style="fill:#006d51;fill-opacity:1;fill-rule:nonzero;stroke:none"
                 id="path848" /></g></g></g></g><g
         id="g856"
         transform="translate(672.5254,114.2139)"><path
           d="M 0,0 C -0.072,-0.448 -0.329,-2.003 -0.842,-4.292 V -4.3 c -2.711,-12.137 -12.493,-44.797 -38.812,-41.523 0,0 -0.445,2.802 0.444,6.995 1.302,6.165 5.486,15.342 18.217,23.038 C -2.102,-4.365 -0.191,-0.697 0,0"
           style="fill:#008167;fill-opacity:1;fill-rule:nonzero;stroke:none"
           id="path858" /></g><g
         id="g860"
         transform="translate(671.6836,111.6211)"><path
           d="M 0,0 C 0,0 -13.508,-34.997 -36.938,-42.133"
           style="fill:none;stroke:#006d51;stroke-width:1;stroke-linecap:butt;stroke-linejoin:miter;stroke-miterlimit:10;stroke-dasharray:none;stroke-opacity:1"
           id="path862" /></g><g
         id="g864"><g
           id="g866" /><g
           id="g878"><g
             clip-path="url(#clipPath870)"
             opacity="0.5"
             id="g876"><g
               transform="translate(671.6836,109.9219)"
               id="g874"><path
                 d="m 0,0 v -0.008 c -2.711,-12.138 -12.493,-44.797 -38.813,-41.523 0,0 -0.444,2.802 0.445,6.995 h 0.026 C -16.445,-35.707 0,0 0,0"
                 style="fill:#006d51;fill-opacity:1;fill-rule:nonzero;stroke:none"
                 id="path872" /></g></g></g></g><g
         id="g880"
         transform="translate(631.458,67.2236)"><path
           d="m 0,0 c -0.65,-1.13 -10.261,2.863 -14.591,14.419 h -0.004 c -2.6,6.941 -3.293,16.612 1.003,29.535 11.287,33.938 6.635,40.336 6.497,40.516 0.227,-0.108 10.035,-4.978 16.361,-16.827 0,0 0.007,-0.016 0.026,-0.046 C 16.249,54.525 18.964,32.984 0,0"
           style="fill:#009b79;fill-opacity:1;fill-rule:nonzero;stroke:none"
           id="path882" /></g><g
         id="g884"
         transform="translate(624.3584,151.6973)"><path
           d="M 0,0 C 0,0 14.718,-18.57 9.113,-53.893 3.509,-89.215 7.1,-84.474 7.1,-84.474"
           style="fill:none;stroke:#008167;stroke-width:1;stroke-linecap:butt;stroke-linejoin:miter;stroke-miterlimit:10;stroke-dasharray:none;stroke-opacity:1"
           id="path886" /></g><g
         id="g888"><g
           id="g890" /><g
           id="g902"><g
             clip-path="url(#clipPath894)"
             opacity="0.5"
             id="g900"><g
               transform="translate(631.458,67.2236)"
               id="g898"><path
                 d="M 0,0 C -0.65,-1.13 -10.261,2.863 -14.591,14.419 9.641,7.534 9.266,67.643 9.266,67.643 c 0,0 0.007,-0.016 0.026,-0.046 C 16.249,54.525 18.964,32.984 0,0"
                 style="fill:#008167;fill-opacity:1;fill-rule:nonzero;stroke:none"
                 id="path896" /></g></g></g></g><g
         id="g904"
         transform="translate(584.7734,116.6982)"><path
           d="M 0,0 C 0,0 0.004,-0.038 0.012,-0.118 -0.007,-0.034 0,0 0,0"
           style="fill:#008167;fill-opacity:1;fill-rule:nonzero;stroke:none"
           id="path906" /></g><g
         id="g908"
         transform="translate(650.085,67.7285)"><path
           d="m 0,0 v -27.127 c 0,-7.936 -6.433,-14.369 -14.369,-14.369 h -12.758 c -5.195,0 -9.748,2.757 -12.27,6.892 h -0.004 c -1.329,2.178 -2.095,4.74 -2.095,7.477 V 0 Z"
           style="fill:#ffa24d;fill-opacity:1;fill-rule:nonzero;stroke:none"
           id="path910" /></g><g
         id="g912"
         transform="translate(651.5928,71.248)"><path
           d="m 0,0 h -44.511 c -0.585,0 -1.058,-0.475 -1.058,-1.06 v -1.4 c 0,-0.585 0.473,-1.06 1.058,-1.06 H 0 c 0.585,0 1.06,0.474 1.06,1.06 v 1.4 C 1.06,-0.475 0.585,0 0,0"
           style="fill:#ffa24d;fill-opacity:1;fill-rule:nonzero;stroke:none"
           id="path914" /></g><g
         id="g916"
         transform="translate(650.085,67.7285)"><path
           d="m 0,0 v -27.127 c 0,-7.936 -6.433,-14.369 -14.369,-14.369 h -12.758 c -5.195,0 -9.748,2.757 -12.27,6.892 30.392,-9.545 36.993,12.803 35.817,21.666 C -4.751,-4.074 -15.702,0 -15.702,0 Z"
           style="fill:#f68400;fill-opacity:1;fill-rule:nonzero;stroke:none"
           id="path918" /></g></g></g></svg>
