<svg width="497" height="398" viewBox="0 0 497 398" fill="none" xmlns="http://www.w3.org/2000/svg">
<rect width="497" height="398" fill="#F5F5F5"/>
<path d="M496.205 262.729L478.146 391.84H18.9415L5.37986 293.347C4.64493 287.977 5.67941 282.51 8.32132 277.803C10.9633 273.095 15.0636 269.412 19.9805 267.331L60.7338 250.111V208.845C60.7299 202.966 62.8062 197.283 66.5825 192.835C70.3584 188.388 75.5818 185.475 81.2954 184.63L90.9318 183.192L107.12 127.46C108.588 122.396 111.626 117.952 115.78 114.792C119.934 111.631 124.98 109.924 130.166 109.926H295.74C301.815 109.919 307.665 112.258 312.113 116.47C316.561 120.682 319.275 126.454 319.708 132.623L398.552 141.099C404.218 141.71 409.484 144.347 413.419 148.543C417.351 152.738 419.695 158.219 420.032 164.008L423.218 219.698L478.932 235.724C484.532 237.334 489.373 240.958 492.549 245.924C495.727 250.89 497.026 256.861 496.208 262.729H496.205Z" fill="#B3B3B3"/>
<path d="M46.474 289.357L60.8084 391.84H425.305L436.068 313.658C436.653 309.397 435.831 305.059 433.734 301.324C431.64 297.588 428.386 294.665 424.484 293.013L392.133 279.344V246.583C392.136 241.917 390.49 237.406 387.493 233.876C384.497 230.347 380.351 228.034 375.815 227.364L368.166 226.223L355.318 181.985C354.153 177.966 351.74 174.438 348.442 171.93C345.146 169.421 341.14 168.067 337.023 168.068H205.594C200.772 168.062 196.128 169.918 192.597 173.261C189.066 176.605 186.912 181.187 186.568 186.084L123.99 192.812C119.494 193.296 115.312 195.389 112.19 198.719C109.067 202.048 107.206 206.398 106.938 210.993L104.409 255.198L60.1883 267.919C55.7409 269.197 51.9 272.074 49.3779 276.016C46.8558 279.959 45.824 284.699 46.474 289.357Z" fill="#B3B3B3"/>
<path d="M347.179 353.651C347.185 348.309 345.299 343.145 341.87 339.106C338.438 335.066 333.695 332.418 328.503 331.651L319.747 330.345L305.039 279.714C303.706 275.115 300.946 271.078 297.173 268.208C293.401 265.337 288.817 263.786 284.107 263.787H133.682C128.165 263.784 122.852 265.909 118.812 269.735C114.772 273.56 112.306 278.802 111.909 284.405L46.789 291.407L60.8344 391.84H348.825L347.175 391.142V353.651H347.179Z" fill="#B3B3B3"/>
<path d="M212.269 129.301H100.532V23.1124H212.269V129.301Z" fill="black"/>
<path d="M212.269 34.3421H100.532V23.1124H212.269V34.3421Z" fill="#1D262D"/>
<path d="M188.117 28.8512C188.117 29.3975 187.905 29.9215 187.526 30.308C187.146 30.6945 186.632 30.912 186.096 30.9124C185.559 30.9128 185.045 30.6963 184.665 30.3104C184.285 29.9244 184.072 29.4008 184.071 28.8545C184.071 28.3083 184.284 27.7845 184.664 27.3983C185.043 27.012 185.558 26.795 186.094 26.795C186.631 26.795 187.145 27.012 187.524 27.3983C187.904 27.7845 188.117 28.3083 188.117 28.8545V28.8512Z" fill="#606BF1"/>
<path d="M196.558 28.8512C196.559 29.1217 196.506 29.3896 196.405 29.6395C196.304 29.8895 196.155 30.1166 195.967 30.308C195.78 30.4994 195.556 30.6513 195.311 30.755C195.066 30.8587 194.803 30.9122 194.537 30.9124C194.272 30.9126 194.009 30.8596 193.763 30.7563C193.518 30.653 193.294 30.5015 193.106 30.3104C192.919 30.1193 192.769 29.8924 192.668 29.6425C192.566 29.3928 192.513 29.125 192.513 28.8545C192.513 28.3083 192.726 27.7845 193.106 27.3983C193.485 27.012 193.999 26.795 194.536 26.795C195.072 26.795 195.587 27.012 195.966 27.3983C196.345 27.7845 196.558 28.3083 196.558 28.8545V28.8512Z" fill="#FBD15B"/>
<path d="M204.396 29.0727C204.407 29.3499 204.363 29.6265 204.266 29.8859C204.169 30.1452 204.022 30.382 203.834 30.582C203.645 30.7821 203.419 30.9413 203.168 31.05C202.917 31.1587 202.647 31.2147 202.375 31.2147C202.103 31.2147 201.833 31.1587 201.582 31.05C201.331 30.9413 201.105 30.7821 200.916 30.582C200.728 30.382 200.581 30.1452 200.484 29.8859C200.387 29.6265 200.343 29.3499 200.354 29.0727C200.375 28.5412 200.597 28.0386 200.974 27.6701C201.35 27.3015 201.853 27.0957 202.375 27.0957C202.897 27.0957 203.4 27.3015 203.776 27.6701C204.153 28.0386 204.375 28.5412 204.396 29.0727ZM136.227 46.1372H120.403V44.7818H136.227V46.1372Z" fill="#FF8578"/>
<path d="M154.802 46.1372H138.974V44.7818H154.802V46.1372Z" fill="#FBD15B"/>
<path d="M149.838 53.4331H125.292V52.0777H149.838V53.4331Z" fill="#606BF1"/>
<path d="M166.37 53.4331H153.893V52.0777H166.37V53.4331Z" fill="#FF8578"/>
<path d="M144.588 60.7289H133.808V59.3736H144.588V60.7289ZM186.571 60.7289H150.821V59.3736H186.571V60.7289Z" fill="#FBD15B"/>
<path d="M183.045 68.0248H142.182V66.6694H183.045V68.0248Z" fill="#606BF1"/>
<path d="M144.539 75.3174H131.964V73.962H144.539V75.3174Z" fill="#FF8578"/>
<path d="M162.497 75.3174H149.922V73.962H162.497V75.3174Z" fill="#606BF1"/>
<path d="M138.698 111.813H120.399V113.169H138.698V111.813Z" fill="#FF8578"/>
<path d="M163.399 111.813H145.104V113.169H163.399V111.813Z" fill="#FBD15B"/>
<path d="M187.438 111.813H169.143V113.169H187.438V111.813Z" fill="#FF8578"/>
<path d="M161.052 104.521H125.295V105.873H161.052V104.517V104.521Z" fill="#606BF1"/>
<path d="M202.383 104.521H166.627V105.873H202.383V104.517V104.521ZM169.292 97.2215H133.808V98.5769H169.292V97.2215Z" fill="#FF8578"/>
<path d="M182.26 97.2215H172.383V98.5769H182.26V97.2215ZM144.851 89.9289H131.49V91.2843H144.847V89.9289H144.851Z" fill="#FBD15B"/>
<path d="M165.299 89.9289H151.942V91.2843H165.299V89.9289Z" fill="#606BF1"/>
<path d="M187.247 89.9289H173.89V91.2843H187.247V89.9289Z" fill="#FF8578"/>
<path d="M165.705 82.6331H146.974V83.9884H165.708V82.6331H165.705Z" fill="#FBD15B"/>
<path d="M139.909 82.6331H121.179V83.9884H139.909V82.6331Z" fill="#606BF1"/>
<path d="M111.744 45.2149H110.042V43.4827H111.744V45.2149ZM111.744 54.0545H110.042V50.5174H111.744V54.0545ZM111.744 62.8942H110.042V59.357H111.744V62.8942ZM111.744 71.7339H110.042V68.1967H111.744V71.7339ZM111.744 80.5702H110.042V77.0331H111.744V80.5702ZM111.744 89.4099H110.042V85.8727H111.744V89.4099ZM111.744 98.2496H110.042V94.7124H111.744V98.2496ZM111.744 107.089H110.042V103.552H111.744V107.089ZM111.744 114.127H110.042V112.388H111.744V114.124V114.127Z" fill="#F9FBFC"/>
<path d="M328.321 58.2992H236.308V0.553726H328.321V58.2992Z" fill="black"/>
<path d="M272.045 23.7802L261.097 28.5372L272.045 33.2215L270.614 36.5934L257.484 30.6198V26.4876L270.614 20.481L272.045 23.7802ZM288.179 12.7719L280.234 43.8463L276.448 42.9438L284.429 11.9058L288.179 12.7719ZM307.175 26.4876V30.6198L294.049 36.5901L292.617 33.2248L303.526 28.5372L292.617 23.7769L294.045 20.481L307.175 26.4876Z" fill="#F9FBFC"/>
<path d="M377.565 150.438H325.162V112.421H377.565V150.438Z" fill="black"/>
<path d="M347.081 120.63C345.396 120.63 344.834 121.093 344.834 122.372V128.094C344.834 130.329 343.925 131.01 342.399 131.446C343.925 131.853 344.834 132.537 344.834 134.742V140.461C344.834 141.74 345.422 142.207 347.081 142.207V144.712C342.828 144.712 341.62 143.324 341.62 140.435V135.013C341.62 133.46 341.221 132.864 339.831 132.864V130.002C341.221 130.002 341.62 129.374 341.62 127.82V122.398C341.62 119.486 342.828 118.124 347.081 118.124V120.63ZM361.104 122.398V127.82C361.104 129.374 361.503 130.002 362.922 130.002V132.861C361.503 132.861 361.104 133.46 361.104 135.013V140.435C361.104 143.324 359.899 144.712 355.646 144.712V142.207C357.305 142.207 357.893 141.744 357.893 140.464V134.742C357.893 132.534 358.802 131.853 360.328 131.446C358.802 131.01 357.893 130.329 357.893 128.094V122.375C357.893 121.093 357.331 120.63 355.646 120.63V118.124C359.899 118.124 361.104 119.486 361.104 122.398Z" fill="#F1F2F2"/>
<path d="M123.763 48.8744H64.9708V8.83472H123.763V48.8744Z" fill="black"/>
<path d="M96.8117 31.3504C94.1494 34.0612 89.8247 34.0578 87.1623 31.3504C85.8847 30.0465 85.1672 28.2799 85.1672 26.438C85.1672 24.5962 85.8847 22.8295 87.1623 21.5256C89.8247 18.8149 94.1526 18.8149 96.8117 21.5256C99.474 24.2364 99.474 28.6397 96.8117 31.3504ZM84.4286 20.3289C83.0659 22.0908 82.3335 24.2725 82.351 26.5149C82.3688 28.7573 83.1357 30.9268 84.526 32.6661C86.0461 34.5488 88.1984 35.7897 90.5659 36.1491C92.9338 36.5081 95.3477 35.9597 97.3409 34.6099L103.51 40.8909C103.769 41.1587 104.192 41.1587 104.451 40.8909L106.188 39.1289C106.448 38.8645 106.448 38.4347 106.188 38.1702L100.019 31.8859C101.254 29.9949 101.807 27.7276 101.587 25.4683C101.367 23.2089 100.387 21.0966 98.8117 19.4892C97.8487 18.5116 96.6942 17.7518 95.4231 17.2597C94.152 16.7676 92.7932 16.5542 91.4357 16.6334C90.0779 16.7127 88.7523 17.0828 87.5448 17.7196C86.3373 18.3565 85.2753 19.2456 84.4286 20.3289Z" fill="#F9FBFC"/>
<path d="M256.419 265.545H314.536V267.162C314.536 271.228 311.299 274.524 307.305 274.524H263.649C262.7 274.524 261.76 274.334 260.882 273.964C260.005 273.594 259.208 273.051 258.537 272.368C257.865 271.684 257.332 270.872 256.969 269.979C256.606 269.086 256.419 268.129 256.419 267.162V265.545Z" fill="#1A1A1A"/>
<path d="M280.195 264.071H290.763V367.311C290.762 367.813 290.565 368.296 290.216 368.65C289.867 369.007 289.393 369.205 288.899 369.205H282.058C281.565 369.205 281.091 369.007 280.742 368.65C280.393 368.296 280.196 367.813 280.195 367.311V264.071Z" fill="#1A1A1A"/>
<path d="M280.195 360.273H290.763V384.193C290.763 384.696 290.567 385.179 290.217 385.536C289.868 385.893 289.394 386.091 288.899 386.091H282.058C281.564 386.091 281.09 385.893 280.741 385.536C280.391 385.179 280.195 384.696 280.195 384.193V360.273ZM230.636 379.793C230.636 381.463 231.288 383.066 232.448 384.246C233.608 385.426 235.181 386.091 236.821 386.091C238.462 386.091 240.035 385.426 241.195 384.246C242.355 383.066 243.006 381.463 243.006 379.793C243.006 378.124 242.355 376.521 241.195 375.341C240.035 374.16 238.462 373.496 236.821 373.496C235.181 373.496 233.608 374.16 232.448 375.341C231.288 376.521 230.636 378.124 230.636 379.793ZM327.948 379.793C327.948 381.463 328.601 383.066 329.76 384.246C330.919 385.426 332.494 386.091 334.133 386.091C335.773 386.091 337.347 385.426 338.506 384.246C339.666 383.066 340.318 381.463 340.318 379.793C340.318 378.124 339.666 376.521 338.506 375.341C337.347 374.16 335.773 373.496 334.133 373.496C332.494 373.496 330.919 374.16 329.76 375.341C328.601 376.521 327.948 378.124 327.948 379.793Z" fill="#1A1A1A"/>
<path d="M274.851 371.169H296.107V352.253H274.851V371.169Z" fill="#1A1A1A"/>
<path d="M230.636 375.618H340.318V373.426C340.318 372.547 340.149 371.674 339.818 370.858C339.487 370.045 339 369.304 338.39 368.683C337.779 368.061 337.052 367.565 336.253 367.228C335.451 366.891 334.594 366.719 333.731 366.719H237.224C233.588 366.719 230.636 369.721 230.636 373.426V375.618ZM285.477 350.564H281.812V279.952H285.481V350.564H285.477ZM326.997 192.544C326.399 192.523 325.802 192.629 325.247 192.857C324.692 193.084 324.188 193.426 323.769 193.862C323.351 194.298 323.026 194.819 322.815 195.389C322.605 195.96 322.515 196.57 322.549 197.179C323.273 209.995 320.604 241.261 308.88 251.929C294.545 264.974 253.912 263.195 253.912 263.195C253.912 263.195 247.205 271.582 260.623 273.443C274.045 275.307 311.864 274.064 321.013 265.37C329.87 256.954 335.13 234.901 331.166 196.517C331.062 195.454 330.581 194.465 329.812 193.734C329.045 193.004 328.045 192.581 326.997 192.544Z" fill="#1A1A1A"/>
<path d="M238.731 174.858L237.851 176.587L250.24 189.625V185.797L238.731 174.858Z" fill="#666666"/>
<path d="M312.552 152.607L308.032 153.238C308.032 153.238 306.932 165.648 304.243 178.058L247.935 199.826L247.166 203.979L246.471 203.926C246.487 204.782 246.487 205.618 246.523 206.405C246.653 211.192 246.961 214.636 247.458 216.015C247.549 216.296 247.659 216.501 247.789 216.593C249.315 217.863 269.234 215.403 290.763 223.453C309.435 230.431 319.903 238.058 320.386 237.036C326.253 224.613 315.568 175.863 312.552 152.61V152.607Z" fill="#333333"/>
<path d="M309.922 190.957C308.422 198.296 304.542 212.907 296.929 214.864C286.994 217.433 267.779 217.304 249.769 216.319C249.737 215.532 249.737 214.696 249.718 213.84L250.412 213.893L251.182 209.74L307.49 187.975C310.179 175.565 311.279 163.155 311.279 163.155C311.279 163.155 311.279 163.231 311.295 163.364C311.406 165.281 312.172 180.114 309.922 190.957ZM253.481 144.207C252.474 146.071 251.026 166.008 250.24 185.793L238.731 174.858C243.617 165.225 253.481 144.207 253.481 144.207Z" fill="#333333"/>
<path d="M275.955 188.22L304.63 198.56L303.331 202.461L274.948 190.064L275.955 188.22ZM275.656 185.529L287.104 157.304L278.672 186.669L275.653 185.526L275.656 185.529Z" fill="#666666"/>
<path d="M294.782 132.507H288.542C288.542 132.507 279.662 142.435 273.955 142.435C268.244 142.435 271.325 132.564 271.325 132.564H268.536C264.672 132.566 260.944 134.014 258.061 136.634C255.179 139.253 253.343 142.86 252.903 146.769C252.799 147.694 252.705 148.577 252.623 149.37C252.013 155.377 275.909 159.75 275.909 159.75L288.214 159.046L295.682 144.203L297.172 138.127L294.786 132.504L294.782 132.507Z" fill="#666666"/>
<path d="M287.938 112.805L271.321 122.269V129.258C269.789 129.085 268.24 129.16 266.731 129.479L266.747 129.572C266.747 129.572 264.295 144.329 278.935 144.329C292.88 144.329 294.656 130.524 294.779 129.202C291.175 128.792 288.545 129.109 288.545 129.109V112.805H287.935H287.938Z" fill="url(#paint0_radial_0_1)"/>
<path d="M251.981 91.9322C250.169 101.691 251.909 120.779 260.961 127.37C263.308 129.076 275.614 127.595 277.617 125.813C280.562 123.185 283.519 120.56 286.474 117.945C287.123 117.364 287.786 116.779 288.295 116.068C289.01 115.076 289.409 113.883 289.756 112.702C291.802 105.793 293.305 98.2099 291.705 91.0397C290.945 87.4823 289.216 84.2155 286.714 81.6149C282.643 77.4099 277.39 75.476 272.188 75.476C262.958 75.476 253.903 81.5752 251.981 91.9322Z" fill="url(#paint1_radial_0_1)"/>
<path d="M284.877 102.332C284.997 100.775 286.571 99.0661 288.149 100.078C289.786 101.126 289.399 103.893 288.721 105.417C288.192 106.607 286.416 107.919 285.211 106.805C284.201 105.876 285.769 104.779 285.821 103.929C285.867 103.162 284.364 102.617 284.977 101.797" fill="#1A1A1A"/>
<path d="M285.166 109.539C286.815 110.041 289.61 108.762 290.318 106.421C291.023 104.081 290.948 101.41 290.948 101.41C290.948 101.41 291.779 103.529 291.351 106.937C290.922 110.342 289.753 113.588 287.127 113.631C284.497 113.674 285.166 109.539 285.166 109.539Z" fill="#1A1A1A"/>
<path d="M283.143 107.112C283.084 107.141 283.022 107.16 282.958 107.169C281.935 107.314 281.529 106.058 281.377 105.268C281.019 103.43 281.078 101.569 281.019 99.7074C281.003 99.2446 281.036 98.6595 280.851 98.2198C280.276 96.8843 278.747 96.0149 278.279 94.6331C277.737 93.0265 279.269 91.4231 278.662 89.6645C277.731 86.9703 274.331 86.3488 271.877 86.3785C268.185 86.4248 264.588 87.119 260.948 87.6942C257.107 88.3025 252.195 88.8777 248.808 86.405C244.727 83.4231 243.023 75.6479 246.068 71.3967C247.727 69.0727 250.877 67.8397 253.633 67.7736C256.558 67.7074 259.029 69.4793 261.711 70.3752C263.847 71.086 265.916 69.0033 267.912 68.5967C270.422 68.0876 271.487 70.8777 273.708 70.9537C275.864 71.0298 277.98 69.3141 280.078 68.924C284.26 68.1438 284.013 72.4215 286.818 73.8826C288.562 74.7884 290.812 74.2397 292.578 75.162C293.919 75.8628 294.104 77.0959 294.396 78.4909C294.649 79.6975 294.666 81.0893 295.055 82.2364C295.406 83.2678 296.256 83.9157 296.919 84.7223C297.643 85.605 298.104 86.6298 298.471 87.7306C299.286 90.1769 299.468 92.8215 299.247 95.3802C298.87 99.6777 297.513 103.909 296.101 107.959C295.188 110.587 294.847 113.321 293.438 115.807C293.062 116.478 291.383 118.428 290.756 116.974C290.649 116.65 290.619 116.306 290.669 115.969C290.854 113.258 293.331 95.8099 286.838 97.9058C285.474 98.3455 284.562 99.4992 284.052 100.815C283.445 102.392 283.403 103.982 283.481 105.645C283.49 105.883 283.497 106.124 283.487 106.362C283.477 106.669 283.403 106.98 283.143 107.112ZM274.568 127.658C281.951 126.448 286.821 120.511 286.821 120.511C286.821 120.511 284.831 130.521 274.127 131.046L274.568 127.658Z" fill="#1A1A1A"/>
<path d="M239.299 353.836L244.146 365.089L258.951 358.478L254.12 347.258L239.299 353.836Z" fill="url(#paint2_radial_0_1)"/>
<path d="M323.935 222.587C323.019 224.451 257.24 222.623 251.026 223.202C251.026 223.202 210.766 242.769 204.987 261.083C204.399 262.927 204.234 265.367 204.419 268.276C206.029 294.061 234.87 355.81 234.87 355.81L239.295 353.836L254.12 347.258L256.224 346.326C256.224 346.326 233.351 276.921 237.925 273.195C242.5 269.469 294.344 260.154 312.331 255.195C330.341 250.22 323.935 222.587 323.935 222.587Z" fill="#333333"/>
<path d="M182.675 366.997H198.838L197.679 350.144L181.519 350.107L182.675 366.997Z" fill="url(#paint3_radial_0_1)"/>
<path d="M250.698 222.626L250.114 222.888C250.114 222.888 182.714 232.517 171.737 251.767C164.594 264.289 178.412 355.78 178.412 355.78L202.256 355.836C202.256 355.836 198.688 279.621 199.88 275.374C201.214 270.531 203.503 268.779 204.419 268.276C204.234 265.367 204.399 262.927 204.984 261.083C210.769 242.769 251.026 223.202 251.026 223.202C250.899 223.109 250.789 222.904 250.701 222.626H250.698ZM246.581 196.95C236.864 198.663 227.932 200.134 227.932 200.134L227.916 200.62C217.101 191.826 200.646 166.914 200.646 166.914C200.646 166.914 205.568 160.898 206.799 159.311C206.981 159.069 233.808 177.869 235.179 177.701C235.529 177.664 236.899 175.205 238.731 171.552L250.24 182.491C250.057 187.11 249.917 191.731 249.818 196.352C248.74 196.557 247.659 196.745 246.581 196.947V196.95Z" fill="#333333"/>
<path d="M198.416 208.296H227.695L227.932 200.137L220.227 200.917C220.227 200.917 217.172 196.653 209.25 196.653C201.325 196.653 198.416 208.296 198.416 208.296Z" fill="url(#paint4_radial_0_1)"/>
<path d="M206.578 159.126L206.795 159.311C205.571 160.898 200.646 166.914 200.646 166.914L197.591 164.716C197.591 164.716 194.224 166.802 190.308 164.62C186.227 162.369 188.75 156.983 188.961 156.345C188.172 156.574 183.279 160.597 182.513 160.17C181.744 159.741 181.175 158.322 186.649 152.828C192.104 147.331 199.532 154.392 199.75 154.392L206.578 159.126Z" fill="#F7B094"/>
<path d="M190.945 163.688C190.945 163.688 189.766 165.936 191.864 166.914C193.961 167.889 198.039 168.597 199.792 168.425C201.545 168.253 202.942 165.757 202.942 165.757L197.63 160.683H193.39L190.948 163.688H190.945Z" fill="#F7B094"/>
<path d="M190.63 164.792C190.945 163.688 193.958 164.276 195.825 164.322C197.205 164.355 197.958 163.988 198.386 162.921C198.808 161.85 196.812 160.15 196.419 160.686C196.026 161.215 197.14 161.969 197.172 162.679C197.205 163.387 195.205 163.621 193.666 163.621C192.127 163.621 189.468 164.028 189.468 164.028L190.63 164.788V164.792Z" fill="#E8987C"/>
<path d="M269.419 192.461C266.068 193.354 257.981 194.901 249.818 196.352C248.74 196.557 247.659 196.745 246.581 196.947C236.864 198.666 227.932 200.137 227.932 200.137L227.916 200.62V200.937L227.695 208.296V210.164C227.695 210.164 237.432 209.658 249.708 210.531C266.893 211.78 289.055 212.527 296.393 209.003C299.834 207.347 302.578 201.906 304.737 195.198L304.63 195.255L275.951 184.914C273.864 188.881 271.633 191.863 269.419 192.461Z" fill="#333333"/>
<path d="M275.955 184.914C273.867 188.881 271.633 191.863 269.419 192.458C266.071 193.35 257.981 194.901 249.821 196.352C249.912 191.899 250.058 187.205 250.244 182.491C251.026 162.702 252.474 142.765 253.481 140.904C255.127 137.79 259.63 131.026 266.727 129.479L266.747 129.575C266.747 129.575 264.295 144.329 278.935 144.329C292.88 144.329 294.656 130.524 294.779 129.202C301.955 130.021 312.955 133.671 314.474 148.355C314.786 151.264 315.221 154.99 315.792 159.218L311.269 159.853C311.269 159.853 309.442 180.534 304.74 195.198C304.703 195.217 304.666 195.235 304.63 195.255L275.951 184.914H275.955ZM219.481 378.002C220.039 381.036 222.104 383.195 225.088 382.63L264.831 375.079C265.07 375.033 265.299 374.94 265.503 374.808C265.707 374.673 265.883 374.498 266.021 374.293C266.159 374.091 266.256 373.86 266.306 373.618C266.356 373.374 266.359 373.126 266.315 372.881L265.656 369.291C265.656 369.291 223.854 376.739 219.461 377.979L219.484 378.002H219.481Z" fill="#666666"/>
<path d="M231.308 367.813C231.721 367.446 232.12 367.083 232.536 366.716L234.873 364.597L236.039 363.529L238.062 361.691C238.503 361.288 238.916 360.904 239.282 360.56L240.906 359.083C241.066 358.934 241.274 358.848 241.492 358.841C241.709 358.838 241.921 358.914 242.088 359.056C243.724 360.455 249.003 363.655 258.568 357.628C258.674 357.559 258.793 357.512 258.918 357.493C259.042 357.473 259.169 357.479 259.292 357.509C259.414 357.542 259.528 357.602 259.627 357.681C259.726 357.76 259.807 357.859 259.867 357.972L265.656 369.291C265.656 369.291 223.854 376.739 219.461 377.978C220.906 377.063 226.24 372.359 231.308 367.813ZM156.886 377.605C156.961 380.693 158.662 383.159 161.692 383.079L202.114 382.078C202.357 382.071 202.596 382.018 202.819 381.916C203.041 381.817 203.242 381.671 203.409 381.493C203.577 381.314 203.708 381.102 203.795 380.871C203.883 380.64 203.925 380.395 203.919 380.147L203.831 376.494C203.831 376.494 161.396 377.066 156.87 377.578L156.886 377.605Z" fill="#666666"/>
<path d="M170.153 369.463L171.539 368.58C172.438 367.992 173.325 367.42 174.175 366.868L175.497 366.005C176.315 365.466 177.088 364.967 177.779 364.517L179.162 363.602L180.997 362.402C181.179 362.279 181.397 362.23 181.612 362.263C181.827 362.293 182.024 362.402 182.166 362.57C183.562 364.213 188.276 368.226 198.659 363.83C198.775 363.777 198.9 363.754 199.027 363.754C199.153 363.754 199.279 363.78 199.394 363.833C199.51 363.883 199.614 363.959 199.7 364.055C199.786 364.147 199.851 364.26 199.893 364.382L203.831 376.494C203.831 376.494 161.396 377.066 156.87 377.579C158.438 376.907 164.442 373.132 170.153 369.463ZM193.39 213.469H189.588L168.003 154.851L171.451 155.007L191.419 208.064L193.386 213.469H193.39Z" fill="#666666"/>
<path d="M128.133 213.469L106.545 154.851H168.003L189.588 213.469H128.13H128.133ZM192.195 213.469H232.802L232.692 209.774H191.36" fill="#666666"/>
<path d="M116.808 161.013L117.86 163.869H130.101L129.049 161.013H116.808ZM368.445 388.19H358.666V224.653H368.445V388.19ZM315.373 388.19H305.597V224.653H315.373V388.19ZM145.354 388.19H135.578V224.653H145.354V388.19ZM92.2857 388.19H82.5065V224.653H92.2857V388.19Z" fill="#666666"/>
<path d="M378.227 225.271H73.1428C71.8821 225.271 70.673 224.761 69.7818 223.854C68.8902 222.946 68.3896 221.715 68.3896 220.431V218.309C68.3896 215.635 70.5162 213.469 73.1428 213.469H378.227C380.851 213.469 382.977 215.635 382.977 218.309V220.431C382.977 223.106 380.851 225.271 378.227 225.271ZM494.844 397.592H0.136353V386.088H494.844V397.592Z" fill="#666666"/>
<path d="M390.091 287.592C389.659 291.347 389.334 295.116 388.929 298.874C388.558 302.355 387.403 306.2 387.37 309.651C387.325 314.005 387.942 321.615 390.526 325.208C392.5 327.952 395.779 330.352 399.179 329.648C411.792 327.03 411.201 310.491 413.166 300.782C414.211 295.612 414.935 290.283 416.211 285.172C417.071 281.714 418.234 278.064 417.273 274.458C416.708 272.396 415.997 270.379 415.146 268.421C413.318 264.157 411.244 260.395 410.338 255.952C398.588 262.709 391.643 274.055 390.091 287.588" fill="url(#paint5_linear_0_1)"/>
<path d="M346.857 295.959C348.023 299.552 349.289 303.106 350.484 306.689C351.588 310.002 352.133 313.985 353.532 317.129C355.295 321.096 359.013 327.727 362.844 329.876C365.773 331.519 369.744 332.283 372.529 330.183C382.88 322.385 375.487 307.651 373.243 298.002C372.052 292.864 370.497 287.727 369.532 282.544C368.883 279.04 368.422 275.231 366.055 272.372C364.688 270.747 363.208 269.225 361.627 267.817C358.201 264.732 354.763 262.213 352.094 258.574C344.247 269.75 342.653 283.02 346.857 295.962" fill="url(#paint6_linear_0_1)"/>
<path d="M363.494 281.823C364.094 286.461 364.825 291.083 365.461 295.717C366.052 300.008 365.812 304.98 366.795 309.129C368.036 314.365 371.045 323.307 375.214 326.821C378.403 329.509 383.052 331.374 386.919 329.479C401.276 322.438 395.64 302.782 395.107 290.524C394.825 283.998 394.104 277.383 394.11 270.855C394.117 266.445 394.425 261.707 392.198 257.671C390.906 255.374 389.451 253.174 387.847 251.089C384.383 246.534 380.776 242.66 378.364 237.608C366.279 249.344 361.325 265.102 363.494 281.823Z" fill="url(#paint7_linear_0_1)"/>
<path d="M397.042 329.975C397.133 329.162 397.23 328.345 397.338 327.532C398.844 327.529 400.412 326.656 401.679 325.988C403.873 324.831 405.653 323.169 407.377 321.393C407.471 321.301 407.315 321.149 407.214 321.228C405.497 322.702 403.714 324.124 401.666 325.096C400.526 325.638 398.857 326.524 397.451 326.696C397.584 325.724 397.73 324.752 397.89 323.787C399.458 323.588 400.896 322.54 402.224 321.737C404.484 320.372 406.425 318.607 408.438 316.904C408.464 316.884 408.435 316.851 408.412 316.871C405.331 319.145 401.899 322.392 398.003 323.099C398.211 321.886 398.429 320.676 398.679 319.473L398.717 319.288C403.227 318.124 406.279 314.524 409.73 311.612C409.786 311.565 409.727 311.469 409.669 311.512C406.269 314.203 403.071 317.271 398.87 318.577C399.234 316.858 399.614 315.142 399.993 313.43C404.075 311.899 407.331 309.463 410.185 306.074C410.234 306.018 410.156 305.939 410.101 305.992C407.149 309.122 403.899 310.917 400.159 312.699C400.536 311.003 400.909 309.307 401.263 307.608C403.029 306.726 404.886 306.187 406.516 305.023C408.123 303.876 409.568 302.511 410.604 300.805C410.656 300.716 410.526 300.63 410.468 300.716C408.182 304.058 404.74 305.099 401.416 306.855C401.74 305.271 402.042 303.681 402.312 302.084C406.019 300.008 410.045 298.081 412.146 294.098C412.169 294.058 412.114 294.018 412.091 294.058C409.864 297.717 405.974 299.294 402.445 301.284C402.49 301 402.542 300.719 402.584 300.431C402.812 298.95 403.026 297.466 403.234 295.982C405.364 295.116 407.393 293.889 409.312 292.617C410.669 291.714 412.123 290.821 413.013 289.407C413.068 289.317 412.942 289.225 412.883 289.311C410.893 292.213 406.539 293.889 403.325 295.34L403.948 290.845C407.516 288.646 411.717 287.43 413.912 283.466C413.977 283.35 413.808 283.241 413.734 283.354C411.461 286.974 407.458 288.091 404.049 290.144C404.179 289.215 404.312 288.286 404.448 287.36C408.302 285.916 412.782 282.633 414.815 279.086C414.929 278.888 414.649 278.709 414.526 278.894C412.451 282.008 408.289 285.39 404.562 286.623C404.792 285.119 405.029 283.618 405.292 282.121C405.318 282.08 405.334 282.035 405.347 281.988C407.078 281.469 408.789 280.226 410.282 279.288C412.084 278.157 413.802 276.841 414.922 274.983C415.045 274.779 414.718 274.587 414.601 274.798C412.89 277.906 408.828 279.995 405.464 281.182C405.562 280.636 405.659 280.091 405.766 279.542L406.253 277.096C407.63 276.131 409.377 275.664 410.76 274.643C411.961 273.754 413.01 272.683 414.042 271.602C414.143 271.493 413.99 271.324 413.883 271.43C412.487 272.762 411.052 274.045 409.354 274.967C408.406 275.486 407.325 275.783 406.403 276.349C406.672 275.017 406.942 273.684 407.195 272.349C407.214 272.349 407.23 272.342 407.247 272.339L407.295 272.349C407.334 272.358 407.377 272.355 407.416 272.343C407.458 272.33 407.49 272.307 407.519 272.276C409.393 271.797 410.825 270.157 412.084 268.759C412.114 268.726 412.068 268.676 412.036 268.706C410.714 269.949 409.214 271.324 407.445 271.86C407.438 271.86 407.435 271.853 407.429 271.85L407.292 271.83C407.497 270.742 407.692 269.655 407.87 268.564C408.006 268.54 408.123 268.421 408.094 268.286C409.084 267.608 409.987 266.742 410.831 265.896C410.896 265.83 410.808 265.731 410.74 265.793C409.899 266.546 408.98 267.206 408 267.76C408.351 265.506 408.623 263.241 408.747 260.95C408.76 260.742 408.442 260.739 408.425 260.95C408.221 263.146 407.925 265.332 407.542 267.502C406.51 266.121 405.36 264.702 404.727 263.122C404.698 263.04 404.568 263.073 404.597 263.162C404.906 264.144 405.438 265 405.964 265.873C406.435 266.653 406.815 267.559 407.416 268.253C407.208 269.42 406.984 270.58 406.747 271.74C405.49 271.536 404.341 271.294 403.305 270.369C402.685 269.817 402.179 269.145 401.815 268.393C401.451 267.64 401.24 266.822 401.188 265.985C401.172 265.777 400.847 265.777 400.867 265.985C401.01 267.575 401.63 269.069 402.698 270.253C403.818 271.499 405.136 271.899 406.649 272.217C406.373 273.559 406.091 274.894 405.802 276.233C404.659 275.539 403.601 274.626 402.575 273.793C400.916 272.448 399.935 270.828 398.497 269.311C398.351 269.162 398.117 269.377 398.26 269.532C399.607 270.993 400.519 272.574 402.055 273.886C403.159 274.831 404.38 276.015 405.698 276.716L405.653 276.927L405.607 276.964C405.506 277.063 405.516 277.179 405.578 277.264C405.282 278.626 404.993 279.989 404.711 281.354C401.779 279.985 397.393 277.608 397.003 274.144C396.967 273.813 396.484 273.906 396.558 274.243C397.429 278.164 401.659 279.902 404.578 282.045C404.289 283.496 404.026 284.95 403.786 286.408C401.89 285.747 400.088 284.924 398.497 283.638C397.049 282.464 395.003 281.053 394.351 279.235C394.331 279.179 394.247 279.218 394.266 279.271C394.87 281.076 396.705 282.319 398.042 283.549C399.737 285.112 401.474 286.438 403.653 287.063C403.636 287.127 403.633 287.194 403.649 287.258C403.5 288.183 403.354 289.109 403.214 290.035C399.653 289.757 394.666 287.003 392.844 284.26C392.838 284.246 392.818 284.26 392.825 284.273C394.068 286.365 395.945 287.592 398.065 288.653C399.643 289.446 401.354 290.385 403.143 290.521C402.886 292.236 402.64 293.955 402.386 295.671C400.841 295.086 399.205 294.805 397.672 294.183C395.399 293.255 393.662 291.588 392.325 289.542C392.243 289.42 392.039 289.522 392.12 289.651C394.588 293.645 398.136 294.818 402.292 296.312C402.084 297.721 401.87 299.129 401.64 300.534C398.237 299.873 393.838 297.757 392.117 294.749C391.99 294.527 391.643 294.709 391.769 294.934C392.857 296.861 394.73 298.081 396.643 299.066C398.019 299.77 399.916 300.944 401.555 301.069L401.532 301.208C401.195 303.231 400.808 305.246 400.38 307.251C396.578 306.279 394.12 303.413 391.357 300.729C391.169 300.544 390.867 300.828 391.058 301.017C393.87 303.836 396.344 306.798 400.256 307.84C399.903 309.473 399.532 311.099 399.143 312.726C395.906 311.8 392.701 309.463 390.607 306.775C390.461 306.587 390.198 306.841 390.341 307.033C392.516 309.949 395.653 312.15 398.993 313.354C398.571 315.098 398.14 316.839 397.698 318.577C394.373 318.061 391.812 315.939 389.763 313.261C389.718 313.195 389.61 313.281 389.656 313.344C391.474 315.922 394.227 318.898 397.539 319.212L397.117 320.874L396.854 321.889C394.347 321.139 392.016 320.223 389.948 318.501C389.89 318.455 389.825 318.544 389.877 318.593C391.844 320.398 394.201 321.612 396.718 322.402L395.851 325.612C395.23 325.314 394.627 324.993 393.948 324.785C392.701 324.405 391.893 323.602 390.805 322.934C390.705 322.874 390.594 323.02 390.695 323.086C391.646 323.717 392.318 324.534 393.406 324.95C394.211 325.261 394.967 325.655 395.747 326.008C394.604 330.342 393.594 334.954 394.143 339.119C394.263 340.041 395.786 340.286 396.019 339.304C396.743 336.286 396.705 333.06 397.042 329.975ZM370.731 331.397C370.471 330.62 370.227 329.84 369.984 329.056C371.347 328.405 372.409 326.94 373.279 325.79C374.789 323.797 375.714 321.526 376.539 319.179C376.584 319.053 376.38 318.98 376.325 319.099C375.377 321.169 374.351 323.228 372.899 324.987C372.091 325.969 370.945 327.486 369.74 328.246C369.458 327.309 369.188 326.368 368.932 325.423C370.273 324.57 371.14 323 372.013 321.701C373.493 319.493 374.526 317.06 375.643 314.653C375.656 314.623 375.617 314.603 375.604 314.63C373.753 318.018 371.987 322.431 368.75 324.749C368.432 323.559 368.13 322.369 367.857 321.175L367.818 320.987C371.422 317.995 372.695 313.42 374.62 309.298C374.653 309.231 374.555 309.165 374.523 309.235C372.555 313.136 370.932 317.291 367.659 320.276C367.279 318.564 366.906 316.849 366.545 315.132C369.61 311.988 371.555 308.382 372.734 304.081C372.756 304.012 372.653 303.972 372.627 304.041C371.247 308.147 369.045 311.172 366.39 314.395C366.029 312.696 365.666 311 365.282 309.304C366.516 307.744 367.977 306.461 368.974 304.709C369.958 302.977 370.698 301.116 370.929 299.122C370.942 299.02 370.789 299 370.769 299.102C370.088 303.116 367.396 305.536 365.11 308.557C364.747 306.98 364.36 305.41 363.945 303.846C366.445 300.372 369.295 296.894 369.549 292.382C369.552 292.336 369.487 292.326 369.48 292.369C368.98 296.643 366.107 299.741 363.734 303.066L363.506 302.233C363.101 300.792 362.675 299.357 362.25 297.922C363.821 296.217 365.153 294.236 366.364 292.26C367.224 290.858 368.172 289.42 368.39 287.754C368.406 287.651 368.25 287.621 368.23 287.727C367.633 291.208 364.38 294.6 362.065 297.298L360.769 292.954C363.091 289.426 366.396 286.521 366.743 281.985C366.753 281.853 366.555 281.823 366.539 281.959C365.977 286.217 362.808 288.95 360.568 292.276C360.302 291.38 360.039 290.481 359.779 289.582C362.672 286.617 365.373 281.714 365.743 277.625C365.766 277.397 365.438 277.354 365.406 277.579C364.815 281.288 362.442 286.144 359.575 288.861C359.156 287.401 358.756 285.937 358.37 284.468C358.377 284.419 358.377 284.37 358.367 284.322C359.721 283.109 360.756 281.248 361.721 279.757C362.883 277.959 363.896 276.028 364.143 273.859C364.169 273.621 363.792 273.588 363.776 273.83C363.513 277.387 360.695 281.023 358.136 283.542L357.73 281.929L357.159 279.502C358.006 278.031 359.399 276.858 360.227 275.337C360.948 274.015 361.458 272.593 361.942 271.172C361.987 271.03 361.782 270.941 361.727 271.083C361.016 272.894 360.247 274.669 359.091 276.24C358.445 277.119 357.584 277.85 356.987 278.759C356.679 277.436 356.367 276.114 356.049 274.792C356.062 274.779 356.075 274.768 356.088 274.759L356.136 274.749C356.175 274.74 356.214 274.72 356.243 274.691C356.276 274.663 356.299 274.627 356.312 274.587C357.808 273.347 358.429 271.245 358.987 269.433C359 269.39 358.942 269.367 358.922 269.41C358.24 271.106 357.451 272.997 356.071 274.236L356.052 274.24L355.919 274.279C355.656 273.207 355.38 272.138 355.091 271.073C355.201 270.99 355.26 270.831 355.175 270.722C355.792 269.681 356.253 268.507 356.669 267.377C356.701 267.294 356.578 267.245 356.542 267.324C356.088 268.367 355.529 269.36 354.873 270.286C354.256 268.091 353.565 265.922 352.727 263.793C352.653 263.595 352.364 263.731 352.432 263.926C353.169 266.008 353.789 268.121 354.351 270.246C352.841 269.44 351.211 268.646 349.987 267.486C349.922 267.426 349.818 267.512 349.883 267.579C350.565 268.339 351.406 268.884 352.247 269.45C352.997 269.952 353.718 270.613 354.545 270.983C354.841 272.131 355.12 273.281 355.386 274.431C354.166 274.785 353.019 275.06 351.698 274.666C350.909 274.432 350.172 274.041 349.529 273.516C348.886 272.99 348.354 272.341 347.961 271.605C347.86 271.423 347.565 271.562 347.669 271.744C348.458 273.122 349.64 274.213 351.101 274.828C352.633 275.473 353.993 275.268 355.497 274.907C355.802 276.24 356.101 277.575 356.393 278.914C355.068 278.772 353.73 278.402 352.455 278.088C350.393 277.582 348.834 276.534 346.899 275.777C346.705 275.701 346.584 276.002 346.776 276.081C348.607 276.825 350.088 277.866 352.023 278.395C353.419 278.775 355.013 279.327 356.497 279.393L356.542 279.605L356.519 279.661C356.471 279.793 356.529 279.893 356.617 279.942C356.896 281.225 357.179 282.504 357.471 283.783L357.526 284.021C354.299 284.045 349.341 283.774 347.552 280.798C347.38 280.514 346.981 280.805 347.188 281.079C349.601 284.263 354.159 284.018 357.688 284.702C358.032 286.144 358.396 287.579 358.782 289.003C356.789 289.218 354.815 289.248 352.838 288.762C351.042 288.322 348.597 287.922 347.256 286.557C347.214 286.511 347.153 286.58 347.195 286.623C348.49 288.002 350.669 288.336 352.39 288.878C354.575 289.565 356.698 290.021 358.935 289.651C358.942 289.718 358.968 289.78 359.01 289.833C359.256 290.736 359.51 291.638 359.769 292.537C356.422 293.817 350.76 293.463 347.971 291.757C347.961 291.747 347.948 291.77 347.961 291.777C349.955 293.139 352.166 293.443 354.526 293.496C356.289 293.536 358.224 293.655 359.903 293.007C360.383 294.673 360.87 296.339 361.354 298.002C359.711 298.134 358.107 298.583 356.464 298.676C354.016 298.815 351.753 298.048 349.692 296.772C349.565 296.693 349.425 296.871 349.552 296.957C353.442 299.516 357.146 299.053 361.536 298.623C361.929 299.988 362.318 301.357 362.692 302.732C359.334 303.592 354.468 303.565 351.659 301.575C351.455 301.433 351.217 301.747 351.422 301.896C353.208 303.175 355.412 303.476 357.552 303.545C359.094 303.595 361.299 303.843 362.838 303.255L362.877 303.387C363.409 305.37 363.886 307.364 364.334 309.364C360.487 310.114 357.068 308.57 353.451 307.324C353.201 307.238 353.049 307.625 353.299 307.717C357.019 309.063 360.487 310.683 364.464 309.949C364.825 311.579 365.162 313.215 365.484 314.855C362.166 315.41 358.292 314.666 355.279 313.132C355.065 313.02 354.935 313.37 355.143 313.479C358.325 315.188 362.081 315.833 365.607 315.489C365.951 317.251 366.276 319.017 366.601 320.779C363.37 321.744 360.169 320.921 357.201 319.37C357.133 319.337 357.068 319.456 357.136 319.496C359.854 321.05 363.584 322.567 366.718 321.426L367.026 323.112L367.205 324.15C364.62 324.547 362.13 324.716 359.539 324.045C359.467 324.025 359.445 324.137 359.516 324.16C362.045 324.947 364.685 325.036 367.292 324.669L367.841 327.952C367.153 327.952 366.474 327.919 365.773 328.021C364.484 328.217 363.416 327.83 362.156 327.694C362.042 327.684 362 327.86 362.117 327.879C363.243 328.045 364.188 328.494 365.347 328.408C366.208 328.342 367.058 328.369 367.909 328.355C368.669 332.779 369.666 337.393 371.89 340.934C372.38 341.717 373.864 341.284 373.669 340.293C373.071 337.248 371.701 334.339 370.731 331.397Z" fill="#747DED"/>
<path d="M384.458 330.531C384.321 329.526 384.198 328.514 384.081 327.509C385.89 327.04 387.513 325.509 388.831 324.316C391.12 322.25 392.76 319.707 394.299 317.043C394.38 316.901 394.149 316.769 394.058 316.898C392.432 319.192 390.718 321.453 388.552 323.251C387.344 324.25 385.607 325.83 383.971 326.468C383.841 325.261 383.724 324.052 383.627 322.841C385.451 322.121 386.864 320.418 388.221 319.046C390.523 316.709 392.331 313.992 394.237 311.331C394.26 311.298 394.218 311.264 394.195 311.294C391.175 314.977 388.023 319.929 383.562 321.982C383.442 320.465 383.351 318.946 383.289 317.426L383.282 317.188C388.347 314.402 390.935 309.139 394.211 304.58C394.263 304.507 394.162 304.408 394.107 304.481C390.828 308.759 387.909 313.426 383.253 316.289C383.179 314.114 383.123 311.942 383.071 309.767C387.51 306.673 390.695 302.745 393.107 297.797C393.146 297.714 393.029 297.641 392.984 297.724C390.373 302.385 387.01 305.545 383.049 308.838C382.997 306.689 382.942 304.541 382.857 302.392C384.714 300.785 386.779 299.565 388.393 297.668C389.981 295.797 391.305 293.711 392.039 291.344C392.078 291.221 391.893 291.159 391.847 291.281C390.104 295.995 386.286 298.306 382.815 301.44C382.734 299.438 382.62 297.437 382.474 295.44C386.302 291.803 390.562 288.246 391.896 282.822C391.909 282.765 391.831 282.739 391.815 282.788C390.234 287.869 386.036 290.96 382.393 294.441C382.364 294.084 382.341 293.727 382.308 293.374C382.136 291.527 381.955 289.681 381.76 287.836C384.058 286.134 386.13 284.035 388.052 281.919C389.412 280.418 390.89 278.898 391.539 276.924C391.578 276.798 391.396 276.726 391.354 276.851C389.828 280.944 385.104 284.299 381.679 287.033C381.481 285.169 381.282 283.307 381.091 281.446C384.718 277.707 389.393 274.95 390.847 269.519C390.89 269.357 390.653 269.281 390.601 269.44C388.951 274.484 384.481 277.06 380.997 280.577C380.88 279.42 380.763 278.266 380.653 277.109C384.847 274.19 389.244 268.868 390.627 263.985C390.701 263.714 390.315 263.585 390.221 263.846C388.662 268.22 384.672 273.565 380.568 276.19C380.39 274.318 380.234 272.443 380.101 270.567C380.123 270.51 380.133 270.45 380.133 270.388C382.052 269.231 383.734 267.215 385.247 265.628C387.071 263.714 388.74 261.605 389.532 259.03C389.62 258.745 389.169 258.62 389.094 258.907C387.964 263.165 383.714 266.921 380.029 269.387C379.987 268.699 379.942 268.015 379.906 267.327C379.851 266.302 379.805 265.271 379.76 264.243C381.123 262.656 383.084 261.559 384.438 259.906C385.614 258.468 386.555 256.861 387.468 255.241C387.558 255.079 387.328 254.927 387.227 255.086C385.951 257.119 384.61 259.096 382.851 260.732C381.864 261.645 380.653 262.336 379.718 263.298C379.646 261.615 379.568 259.936 379.477 258.253C379.497 258.245 379.516 258.236 379.532 258.226L379.597 258.223C379.649 258.221 379.698 258.205 379.74 258.178C379.786 258.15 379.821 258.113 379.847 258.068C381.948 256.911 383.179 254.501 384.273 252.435C384.299 252.385 384.231 252.342 384.198 252.388C382.984 254.289 381.594 256.402 379.633 257.588H379.607C379.552 257.588 379.497 257.595 379.438 257.602C379.364 256.234 379.273 254.867 379.162 253.502C379.318 253.436 379.422 253.255 379.344 253.099C380.331 251.982 381.159 250.666 381.922 249.39C381.977 249.291 381.841 249.202 381.776 249.291C380.99 250.453 380.084 251.528 379.078 252.498C378.841 249.681 378.464 246.878 377.945 244.101C377.896 243.846 377.516 243.939 377.558 244.197C377.977 246.898 378.25 249.612 378.451 252.329C376.799 250.993 374.997 249.645 373.769 247.945C373.705 247.856 373.565 247.936 373.623 248.031C374.286 249.112 375.179 249.979 376.071 250.861C376.87 251.655 377.594 252.626 378.519 253.274C378.617 254.736 378.695 256.197 378.76 257.661C377.192 257.803 375.737 257.869 374.218 257.079C373.312 256.607 372.503 255.958 371.844 255.167C371.185 254.377 370.685 253.462 370.373 252.474C370.292 252.226 369.903 252.329 369.987 252.574C370.62 254.441 371.841 256.043 373.458 257.132C375.175 258.279 376.873 258.349 378.782 258.266C378.851 259.955 378.909 261.651 378.961 263.347C377.386 262.861 375.841 262.098 374.364 261.413C371.971 260.309 370.312 258.669 368.133 257.294C367.916 257.159 367.698 257.493 367.916 257.635C369.971 258.97 371.536 260.587 373.766 261.688C375.373 262.481 377.192 263.526 378.981 263.955L378.987 264.223L378.945 264.283C378.854 264.435 378.903 264.57 379 264.65C379.052 266.374 379.11 268.099 379.179 269.823C375.25 269.089 369.282 267.592 367.786 263.552C367.64 263.169 367.088 263.426 367.279 263.81C369.487 268.25 375.088 269.026 379.224 270.693C379.312 272.521 379.425 274.352 379.571 276.18C377.101 275.965 374.695 275.539 372.403 274.481C370.315 273.522 367.438 272.461 366.117 270.481C366.075 270.418 365.987 270.491 366.026 270.55C367.286 272.534 369.86 273.453 371.831 274.517C374.331 275.869 376.805 276.924 379.61 277C379.607 277.083 379.623 277.165 379.662 277.238C379.757 278.395 379.86 279.549 379.968 280.706C375.61 281.469 368.808 279.704 365.805 276.97C365.792 276.96 365.773 276.983 365.786 276.997C367.903 279.126 370.519 280.015 373.373 280.633C375.51 281.096 377.838 281.698 380.026 281.307C380.227 283.446 380.442 285.585 380.653 287.721C378.623 287.496 376.575 287.664 374.552 287.39C371.549 286.977 368.971 285.516 366.753 283.473C366.62 283.35 366.409 283.539 366.539 283.668C370.692 287.698 375.295 288.008 380.731 288.521C380.903 290.273 381.062 292.028 381.205 293.787C376.925 294.041 371.016 292.861 368.055 289.783C367.838 289.559 367.477 289.883 367.695 290.114C369.575 292.091 372.185 292.974 374.773 293.565C376.633 293.988 379.256 294.812 381.263 294.458L381.279 294.63C381.474 297.162 381.604 299.698 381.692 302.233C376.844 302.24 373.039 299.559 368.925 297.192C368.64 297.026 368.364 297.463 368.653 297.631C372.87 300.147 376.714 302.934 381.718 302.98C381.782 305.046 381.821 307.112 381.838 309.185C377.682 309.076 373.14 307.261 369.828 304.683C369.591 304.501 369.357 304.891 369.581 305.073C373.062 307.899 377.481 309.569 381.847 309.985C381.864 312.207 381.857 314.428 381.851 316.65C377.705 317.056 374 315.304 370.744 312.722C370.669 312.663 370.565 312.792 370.64 312.855C373.588 315.39 377.779 318.111 381.847 317.463L381.834 319.588C381.831 320.018 381.828 320.448 381.818 320.888C378.588 320.762 375.523 320.382 372.526 318.954C372.442 318.914 372.39 319.043 372.471 319.086C375.367 320.64 378.555 321.374 381.808 321.545C381.786 322.881 381.75 324.263 381.727 325.661C380.893 325.499 380.075 325.298 379.195 325.261C377.584 325.188 376.377 324.471 374.877 324.008C374.74 323.969 374.646 324.174 374.786 324.223C376.12 324.686 377.166 325.46 378.594 325.625C379.653 325.747 380.682 325.985 381.718 326.167C381.64 331.724 381.799 337.569 383.698 342.395C384.12 343.466 386.016 343.288 386.006 342.038C385.974 338.193 384.968 334.336 384.458 330.531Z" fill="#747DED"/>
<path d="M403.032 335.122L402.5 345.086L401.669 360.6L400.305 386.088H366.412L365.049 360.6L364.218 345.086L363.685 335.122H403.032Z" fill="#95A8B5"/>
<path d="M402.5 345.086L402.39 347.083L402.282 349.149L401.669 360.6H365.049L364.435 349.149L364.328 347.083L364.218 345.086H402.5Z" fill="#A5B7C6"/>
<path d="M402.39 347.083L402.282 349.149H364.435L364.328 347.083H402.39Z" fill="#95A8B5"/>
<path d="M328.321 58.2992H236.308V0.553726H328.321V58.2992Z" fill="black"/>
<path d="M272.045 23.7802L261.097 28.5372L272.045 33.2215L270.614 36.5934L257.484 30.6198V26.4876L270.614 20.481L272.045 23.7802ZM288.179 12.7719L280.234 43.8463L276.448 42.9438L284.429 11.9058L288.179 12.7719ZM307.175 26.4876V30.6198L294.049 36.5901L292.617 33.2248L303.526 28.5372L292.617 23.7769L294.045 20.481L307.175 26.4876Z" fill="#F9FBFC"/>
<defs>
<radialGradient id="paint0_radial_0_1" cx="0" cy="0" r="1" gradientUnits="userSpaceOnUse" gradientTransform="translate(280.688 128.567) scale(14.8046 15.0738)">
<stop stop-color="#FFC8AF"/>
<stop offset="1" stop-color="#FFBB9C"/>
</radialGradient>
<radialGradient id="paint1_radial_0_1" cx="0" cy="0" r="1" gradientUnits="userSpaceOnUse" gradientTransform="translate(272.127 101.284) rotate(-12.3672) scale(23.3592 23.7453)">
<stop stop-color="#FFC8AF"/>
<stop offset="1" stop-color="#FFBB9C"/>
</radialGradient>
<radialGradient id="paint2_radial_0_1" cx="0" cy="0" r="1" gradientUnits="userSpaceOnUse" gradientTransform="translate(249.123 356.174) scale(9.30721 9.47642)">
<stop stop-color="#FFC8AF"/>
<stop offset="1" stop-color="#FFBB9C"/>
</radialGradient>
<radialGradient id="paint3_radial_0_1" cx="0" cy="0" r="1" gradientUnits="userSpaceOnUse" gradientTransform="translate(190.175 358.55) scale(8.4776 8.63174)">
<stop stop-color="#FFC8AF"/>
<stop offset="1" stop-color="#FFBB9C"/>
</radialGradient>
<radialGradient id="paint4_radial_0_1" cx="0" cy="0" r="1" gradientUnits="userSpaceOnUse" gradientTransform="translate(241.791 196.579) rotate(9.28397) scale(47.491 48.31)">
<stop stop-color="#FFC8AF"/>
<stop offset="1" stop-color="#FFBB9C"/>
</radialGradient>
<linearGradient id="paint5_linear_0_1" x1="402.5" y1="255.952" x2="402.503" y2="329.774" gradientUnits="userSpaceOnUse">
<stop stop-color="#606BF1"/>
<stop offset="1" stop-color="#58479F"/>
</linearGradient>
<linearGradient id="paint6_linear_0_1" x1="344.99" y1="261.945" x2="376.511" y2="328.433" gradientUnits="userSpaceOnUse">
<stop stop-color="#606BF1"/>
<stop offset="1" stop-color="#58479F"/>
</linearGradient>
<linearGradient id="paint7_linear_0_1" x1="368.961" y1="240.028" x2="391.701" y2="328.405" gradientUnits="userSpaceOnUse">
<stop stop-color="#606BF1"/>
<stop offset="1" stop-color="#58479F"/>
</linearGradient>
</defs>
</svg>
