<svg width="545" height="347" viewBox="0 0 545 347" fill="none" xmlns="http://www.w3.org/2000/svg">
<rect width="545" height="347" fill="#F5F5F5"/>
<path d="M240.275 209.093L223.552 202.92V197.696L240.275 191.523V196.475L225.452 201.733V198.883L240.275 204.141V209.093ZM220.33 256.572L231.523 224.619H237.256L226.062 256.572H220.33ZM223.552 291.093V286.141L238.409 280.883V283.733L223.552 278.475V273.523L240.275 279.696V284.92L223.552 291.093Z" fill="#2E2E46"/>
<path d="M344.062 124.545C342.875 150.547 317.31 170.47 298.161 171.673C272.86 173.263 254.778 150.451 252.259 124.545C250.077 102.102 258.049 102.437 263.986 93.0821C271.18 81.7471 284.588 75.4842 298.161 75.4842C323.512 75.4842 345.66 89.563 344.062 124.545Z" fill="#D53B5E"/>
<path d="M315.95 213.776H280.371V169.246H315.95V213.776Z" fill="#F3B6AB"/>
<path d="M338.124 143.271C344.47 133.643 352.544 133.221 355.917 144.608C359.288 155.996 348.159 165.366 339.099 161.908C330.038 158.45 338.124 143.271 338.124 143.271Z" fill="#F3B6AB"/>
<path d="M345.616 143.522C349.867 142.744 352.045 155.407 342.723 155.825L344.64 151.406L342.841 147.731L345.616 143.522Z" fill="#ED9099"/>
<path d="M341.328 157.563C346.762 151.772 342.84 147.732 342.84 147.732C342.84 147.732 348.013 137.127 350.086 145.255" stroke="#DF7F85" stroke-width="0.666665" stroke-miterlimit="10"/>
<path d="M257.9 143.271C251.553 133.643 243.479 133.221 240.107 144.608C236.735 155.996 247.864 165.366 256.925 161.908C265.985 158.45 257.9 143.271 257.9 143.271Z" fill="#F3B6AB"/>
<path d="M250.408 143.522C246.157 142.744 243.978 155.407 253.301 155.825L251.384 151.406L253.183 147.731L250.408 143.522Z" fill="#ED9099"/>
<path d="M254.695 157.563C249.261 151.772 253.183 147.732 253.183 147.732C253.183 147.732 248.011 137.127 245.938 145.255" stroke="#DF7F85" stroke-width="0.666665" stroke-miterlimit="10"/>
<path d="M315.95 170.23V186.796C303.164 204.117 280.371 198.485 280.371 198.485L280.77 170.23H315.95Z" fill="#DF7F85"/>
<path d="M298.16 189.211C276.921 189.211 259.705 171.998 259.705 150.764V122.669C259.705 108.327 271.333 96.7015 285.678 96.7015H310.642C324.986 96.7015 336.615 108.327 336.615 122.669V150.764C336.615 171.998 319.399 189.211 298.16 189.211Z" fill="#F3B6AB"/>
<path d="M304.077 155.791C304.077 157.36 303.454 158.864 302.344 159.973C301.235 161.083 299.73 161.706 298.161 161.706C296.592 161.706 295.087 161.083 293.977 159.973C292.868 158.864 292.245 157.36 292.245 155.791" stroke="#D53B5E" stroke-width="1.33333" stroke-miterlimit="10"/>
<path d="M263.768 98.4208C263.768 98.4208 257.032 87.2594 265.468 77.4168C265.468 77.4168 271.53 88.6372 263.768 98.4208Z" fill="#D53B5E"/>
<path d="M267.189 95.7702C267.189 95.7702 257.81 104.826 246.331 98.8013C246.331 98.8013 255.918 90.39 267.189 95.7702Z" fill="#D53B5E"/>
<path d="M282.89 141.991C282.89 145.17 281.535 147.746 279.865 147.746C278.194 147.746 276.839 145.17 276.839 141.991C276.839 138.811 278.194 136.235 279.865 136.235C281.535 136.235 282.89 138.811 282.89 141.991Z" fill="#33334F"/>
<path d="M293.764 141.562C293.764 150.101 286.842 157.023 278.3 157.023C269.76 157.023 262.836 150.101 262.836 141.562C262.836 133.024 269.76 126.102 278.3 126.102C286.842 126.102 293.764 133.024 293.764 141.562Z" stroke="white" stroke-width="5.33332" stroke-miterlimit="10"/>
<path d="M319.481 141.991C319.481 145.17 318.127 147.746 316.456 147.746C314.786 147.746 313.431 145.17 313.431 141.991C313.431 138.811 314.786 136.235 316.456 136.235C318.127 136.235 319.481 138.811 319.481 141.991Z" fill="#33334F"/>
<path d="M333.484 141.562C333.484 150.101 326.56 157.023 318.019 157.023C309.479 157.023 302.555 150.101 302.555 141.562C302.555 133.024 309.479 126.102 318.019 126.102C326.56 126.102 333.484 133.024 333.484 141.562Z" stroke="white" stroke-width="5.33332" stroke-miterlimit="10"/>
<path d="M264.471 107.674C264.471 107.674 288.901 94.7983 305.135 104.131C321.368 113.463 323.194 132.736 339.224 127.748C339.224 127.748 351.399 122.389 338.007 103.725C324.615 85.0608 315.452 81.4088 298.017 85.4668C280.581 89.524 269.237 92.6793 264.471 107.674Z" fill="#D53B5E"/>
<path d="M263.537 107.489C263.537 107.489 271.601 96.7986 282.89 93.9728C294.177 91.147 306.663 105.028 306.663 105.028C306.663 105.028 277.741 100.906 263.537 107.489Z" fill="#B32C4F"/>
<path d="M259.765 120.936C259.765 120.936 262.485 140.776 259.765 152.885C259.765 152.885 255.789 122.119 259.765 120.936Z" fill="#D53B5E"/>
<path d="M336.336 120.936C336.336 120.936 333.616 140.776 336.336 152.885C336.336 152.885 340.312 122.119 336.336 120.936Z" fill="#D53B5E"/>
<path d="M286.758 119.387C282.561 117.379 275.098 115.175 268.184 120.099C267.024 120.925 267.465 122.748 268.868 122.99C271.841 123.504 274.854 123.757 277.871 123.745C280.671 123.728 283.986 123.039 286.46 122.403C287.915 122.029 288.113 120.035 286.758 119.387Z" fill="#D53B5E"/>
<path d="M327.28 119.387C323.083 117.379 315.62 115.175 308.706 120.099C307.547 120.925 307.988 122.748 309.39 122.99C312.364 123.504 315.376 123.757 318.394 123.745C321.193 123.728 324.508 123.039 326.982 122.403C328.437 122.029 328.635 120.035 327.28 119.387Z" fill="#D53B5E"/>
<path d="M311.168 169.677C310.769 170.389 310.298 171.133 309.653 171.874C307.597 174.348 304.106 176.725 298.126 176.834L298.116 176.86L297.678 176.852L297.661 176.816C292.053 176.706 288.598 174.596 286.514 172.268C285.784 171.474 285.159 170.59 284.655 169.636C283.659 167.725 283.399 166.222 283.399 166.222L312.436 166.276C312.436 166.276 312.197 167.779 311.168 169.677Z" fill="#E23C5E"/>
<path d="M311.168 169.677C310.769 170.389 310.298 171.133 309.653 171.874C302.988 168.946 294.971 168.333 286.514 172.268C285.784 171.474 285.159 170.59 284.655 169.636C283.659 167.725 283.399 166.222 283.399 166.222L312.436 166.276C312.436 166.276 312.197 167.779 311.168 169.677Z" fill="#33334F"/>
<path d="M421.586 324.386L161.27 324.657C161.27 324.657 166.127 314.5 173.117 301.04C173.635 300.045 174.168 299.026 174.71 297.991C184.256 279.787 197.098 256.79 207.122 244.317C218.666 229.957 245.943 219.721 264.47 214.124C275.266 210.869 283.085 209.19 283.085 209.19H312.989C312.989 209.19 320.011 210.694 329.931 213.63C348.442 219.099 376.117 230.323 388.951 244.317C391.77 247.389 394.421 251.106 396.905 255.23C412.701 281.474 421.586 324.386 421.586 324.386Z" fill="#FFA24D"/>
<g opacity="0.5">
<path d="M421.586 324.386L161.27 324.657C161.27 324.657 166.127 314.5 173.117 301.04C303.021 339.217 371.477 276.651 387.099 259.715C389.622 256.98 393.123 255.334 396.842 255.232L396.905 255.23C412.701 281.474 421.586 324.386 421.586 324.386Z" fill="#F47608"/>
</g>
<path d="M294.076 144.192H302.244" stroke="white" stroke-width="5.33332" stroke-miterlimit="10"/>
<path d="M329.931 213.627C297.707 249.073 264.471 214.128 264.471 214.128C275.268 210.865 283.088 209.186 283.088 209.186H312.991C312.991 209.186 320.013 210.695 329.931 213.627Z" fill="#F3B6AB"/>
<path d="M227.012 284.282V324.705" stroke="#F68400" stroke-width="3.99999" stroke-miterlimit="10"/>
<path d="M227.012 310.046L216.155 296.206" stroke="#F68400" stroke-width="3.99999" stroke-miterlimit="10"/>
<path d="M368.573 284.282V324.705" stroke="#F68400" stroke-width="3.99999" stroke-miterlimit="10"/>
<path d="M368.573 310.046L378.212 297.758" stroke="#F68400" stroke-width="3.99999" stroke-miterlimit="10"/>
<path d="M262.928 229.511C262.928 229.511 302.883 256.791 329.931 228.187" stroke="#F68400" stroke-width="3.99999" stroke-miterlimit="10"/>
<path d="M263.545 90.9552C272.517 53.2575 362.394 57.4055 345.67 130.802C340.659 152.787 304.029 80.8245 272.415 98.4797C270.052 99.7995 267.107 99.458 265.131 97.6081C263.316 95.9087 262.97 93.3734 263.545 90.9552Z" fill="#D53B5E"/>
<path d="M312.91 324.41C312.882 324.42 312.852 324.425 312.822 324.426C312.607 324.45 312.384 324.458 312.162 324.458H137.808C135.491 324.458 133.429 323.383 132.084 321.696C131.044 320.4 130.48 318.788 130.483 317.127L130.46 317.047L103.31 240.352C101.232 234.493 105.579 228.341 111.797 228.341H224.997C228.818 228.341 232.218 230.744 233.492 234.343L262.751 316.983L262.799 317.127H312.329C316.874 317.127 317.376 323.925 312.91 324.41Z" fill="#69ADBF"/>
<path d="M182.884 274.639C185.747 282.962 182.51 291.618 175.654 293.975C168.799 296.333 160.921 291.497 158.058 283.176C155.196 274.854 158.433 266.197 165.288 263.84C172.144 261.483 180.022 266.318 182.884 274.639Z" fill="white"/>
<path d="M312.331 317.125H262.798C262.798 317.125 262.784 317.076 262.755 316.982L233.492 234.34C232.87 232.586 231.719 231.067 230.198 229.993C228.677 228.919 226.861 228.342 224.999 228.343H221.214C221.214 228.343 229.672 228.895 231.785 236.462C233.9 244.021 262.798 324.298 262.798 324.298L264.934 324.456H312.158C312.387 324.456 312.61 324.448 312.825 324.427C317.383 324.011 316.903 317.125 312.331 317.125Z" fill="#2F7298"/>
<g opacity="0.4">
<path d="M312.909 324.41C312.881 324.42 312.851 324.425 312.822 324.426C312.607 324.45 312.384 324.458 312.161 324.458H137.807C135.49 324.458 133.428 323.383 132.083 321.696C235.139 330.547 224.996 228.341 224.996 228.341C228.818 228.341 232.217 230.744 233.491 234.343L262.75 316.983L262.798 317.127H311.548C312.073 319.539 312.535 321.966 312.909 324.41Z" fill="#2A94A2"/>
</g>
<path d="M105.589 273.828V276.394C100.951 276.924 99.816 280.845 99.816 285.619V287.197C99.816 291.971 100.951 295.893 105.589 296.423V298.976H16.9036C16.0384 298.976 15.1817 298.806 14.3823 298.475C13.583 298.144 12.8567 297.659 12.245 297.047C11.6332 296.436 11.148 295.709 10.8171 294.91C10.4861 294.111 10.3158 293.254 10.3161 292.389V280.426C10.3161 276.788 13.2651 273.828 16.9036 273.828H105.589Z" fill="#2F7298"/>
<path d="M104.207 293.796C104.738 295.054 103.763 296.424 102.406 296.424L17.6563 296.485V276.332L102.406 276.394C102.875 276.392 103.327 276.563 103.677 276.874C103.984 277.128 104.201 277.473 104.296 277.86C104.392 278.246 104.36 278.653 104.207 279.021C103.504 280.698 103.529 283.029 103.529 285.619V287.197C103.529 289.787 103.504 292.119 104.207 293.796Z" fill="white"/>
<g opacity="0.4">
<path d="M103.676 276.874C102.048 276.96 27.1547 280.833 22.0226 288.11C20.6285 290.084 19.0497 291.181 17.6556 291.403V276.331L102.406 276.393C102.899 276.393 103.343 276.578 103.676 276.874Z" fill="#8AD6E7"/>
</g>
<path d="M22.0231 298.981H14.571C13.4426 298.981 12.3605 298.532 11.5627 297.735C10.7648 296.937 10.3164 295.855 10.3162 294.727V278.088C10.3164 276.959 10.7648 275.878 11.5627 275.08C12.3605 274.282 13.4426 273.834 14.571 273.834H22.0231V298.981Z" fill="#2F7298"/>
<g opacity="0.4">
<path d="M104.207 293.796C104.738 295.054 103.762 296.423 102.406 296.423L85.4862 296.435C98.9271 294.907 98.0872 283.867 98.0872 283.867C98.2353 283.337 87.4663 276.862 87.6518 276.381L102.406 276.394C102.874 276.392 103.326 276.563 103.676 276.874C103.983 277.128 104.2 277.474 104.295 277.86C104.391 278.246 104.36 278.653 104.207 279.021C103.504 280.698 103.528 283.029 103.528 285.619V287.197C103.528 289.787 103.504 292.119 104.207 293.796Z" fill="#8AD6E7"/>
</g>
<g opacity="0.4">
<path d="M103.528 286.753H22.1667V284.937H103.528V286.753Z" fill="#8AD6E7"/>
</g>
<g opacity="0.4">
<path d="M103.528 282.663H22.1667V280.847H103.528V282.663Z" fill="#8AD6E7"/>
</g>
<g opacity="0.4">
<path d="M103.528 291.957H22.1667V290.141H103.528V291.957Z" fill="#8AD6E7"/>
</g>
<path d="M77.3221 292.721L72.9957 288.408L68.6701 292.721V280.846H77.3221V292.721Z" fill="#E23C5E"/>
<path d="M115.075 298.891V301.456C110.437 301.986 109.302 305.908 109.302 310.682V312.26C109.302 317.033 110.437 320.956 115.075 321.486V324.04H26.3896C25.5244 324.04 24.6677 323.869 23.8684 323.538C23.0692 323.207 22.3429 322.722 21.7312 322.11C21.1195 321.499 20.6343 320.772 20.3033 319.973C19.9723 319.174 19.8019 318.318 19.802 317.453V305.489C19.802 301.851 22.7511 298.891 26.3896 298.891H115.075Z" fill="#E23C5E"/>
<path d="M113.694 318.859C114.225 320.116 113.25 321.485 111.893 321.485L27.1429 321.547V301.394L111.893 301.456C112.386 301.456 112.831 301.64 113.164 301.937C113.47 302.19 113.688 302.536 113.783 302.922C113.878 303.309 113.847 303.716 113.694 304.083C112.991 305.76 113.016 308.091 113.016 310.681V312.26C113.016 314.85 112.991 317.181 113.694 318.859Z" fill="white"/>
<g opacity="0.4">
<path d="M113.163 301.938C111.534 302.024 36.6411 305.897 31.509 313.173C30.1149 315.147 28.5361 316.245 27.142 316.467V301.395L111.892 301.457C112.385 301.457 112.83 301.641 113.163 301.938Z" fill="#8AD6E7"/>
</g>
<path d="M31.5091 324.044H24.0578C22.9293 324.044 21.8471 323.596 21.0492 322.798C20.2513 322 19.803 320.918 19.803 319.79V303.15C19.803 302.022 20.2513 300.94 21.0492 300.142C21.8471 299.344 22.9293 298.896 24.0578 298.896H31.5091V324.044Z" fill="#E23C5E"/>
<g opacity="0.4">
<path d="M113.693 318.859C114.224 320.117 113.249 321.486 111.892 321.486L94.9725 321.498C108.414 319.97 107.574 308.93 107.574 308.93C107.722 308.399 96.9526 301.925 97.1381 301.443L111.892 301.456C112.385 301.456 112.83 301.641 113.163 301.937C113.469 302.191 113.687 302.536 113.782 302.923C113.878 303.309 113.846 303.716 113.693 304.084C112.99 305.761 113.015 308.091 113.015 310.682V312.26C113.015 314.85 112.99 317.182 113.693 318.859Z" fill="#8AD6E7"/>
</g>
<g opacity="0.4">
<path d="M113.015 311.817H31.6531V310.001H113.015V311.817Z" fill="#8AD6E7"/>
</g>
<g opacity="0.4">
<path d="M113.015 307.726H31.6531V305.91H113.015V307.726Z" fill="#8AD6E7"/>
</g>
<g opacity="0.4">
<path d="M113.015 317.021H31.6531V315.204H113.015V317.021Z" fill="#8AD6E7"/>
</g>
<path d="M104.115 319.365L99.5439 314.807L94.9731 319.365V306.817H104.115V319.365Z" fill="#E23C5E"/>
<path d="M544.533 334.964V336.803C544.533 342.423 539.971 346.976 534.35 346.976H13.6224C8.88523 346.976 4.90437 343.744 3.76585 339.374C3.76585 339.366 3.76589 339.358 3.75793 339.35C3.55092 338.53 3.43944 337.679 3.43944 336.803V334.964C3.43944 329.344 7.99352 324.792 13.6224 324.792H534.35C539.971 324.792 544.533 329.344 544.533 334.964Z" fill="#3F537E"/>
<g opacity="0.5">
<path d="M544.531 334.965V336.804C544.531 342.424 539.969 346.977 534.348 346.977H13.6206C8.8834 346.977 4.90254 343.744 3.76402 339.375C3.76402 339.366 3.76406 339.359 3.75609 339.351C3.54113 337.719 3.43761 336.804 3.43761 336.804C295.437 346.977 534.348 324.792 534.348 324.792C539.969 324.792 544.531 329.345 544.531 334.965Z" fill="#27273D"/>
</g>
<path d="M517.817 62.4204C516.074 62.4204 514.403 61.7282 513.17 60.4962C511.938 59.2643 511.246 57.5933 511.246 55.851C511.246 54.1087 511.938 52.4378 513.17 51.2058C514.403 49.9738 516.074 49.2816 517.817 49.2816C519.559 49.2816 521.231 49.9738 522.463 51.2058C523.695 52.4378 524.388 54.1087 524.388 55.851C524.388 57.5933 523.695 59.2643 522.463 60.4962C521.231 61.7282 519.559 62.4204 517.817 62.4204M531.547 56.0412C531.547 55.9752 531.555 55.9179 531.555 55.851C531.555 55.7849 531.547 55.7268 531.547 55.6687C532.536 55.2191 533.491 54.6988 534.405 54.1118C535.415 53.4153 536.444 52.6121 537.396 51.6927L537.189 50.8808C536.99 49.9614 536.634 49.0747 536.311 48.1887C536.129 47.7581 535.913 47.3354 535.706 46.9128C535.515 46.4734 535.283 46.0682 535.027 45.6702L534.595 44.9578C533.294 44.9657 531.977 45.1313 530.775 45.3558C529.714 45.578 528.672 45.8855 527.661 46.2752L527.395 46.0101C527.76 45.0238 528.091 43.9803 528.307 42.8953C528.539 41.6934 528.704 40.3768 528.713 39.0762L528.001 38.6455C527.602 38.3884 527.188 38.1568 526.757 37.9657C526.334 37.7588 525.912 37.5439 525.473 37.3616C524.587 37.0384 523.708 36.6818 522.788 36.4836L521.977 36.2758C521.088 37.2034 520.279 38.2037 519.557 39.2664C518.966 40.1783 518.446 41.1336 517.999 42.124C517.941 42.124 517.875 42.1081 517.817 42.1081C517.751 42.1081 517.693 42.124 517.626 42.124C517.183 41.1318 516.662 40.1763 516.068 39.2664C515.35 38.2036 514.544 37.2032 513.658 36.2758L512.845 36.4836C511.918 36.6818 511.039 37.0384 510.153 37.3616C509.722 37.5439 509.299 37.7588 508.869 37.9657C508.438 38.1616 508.022 38.3888 507.625 38.6455L506.913 39.0762C506.929 40.3768 507.095 41.6934 507.318 42.8953C507.542 43.9563 507.85 44.9978 508.239 46.0101C508.147 46.1008 508.056 46.1836 507.974 46.2752C506.961 45.8866 505.919 45.5791 504.858 45.3558C503.657 45.1313 502.331 44.9657 501.038 44.9578L500.599 45.6702C500.351 46.0682 500.119 46.4734 499.92 46.9128C499.721 47.3354 499.506 47.7581 499.322 48.1887C498.991 49.0747 498.643 49.9614 498.445 50.8808L498.237 51.6927C499.165 52.581 500.166 53.3902 501.229 54.1118C502.139 54.7005 503.091 55.2209 504.079 55.6687C504.079 55.7268 504.071 55.7849 504.071 55.851C504.071 55.9179 504.079 55.9752 504.079 56.0412C503.09 56.4862 502.137 57.007 501.229 57.599C500.166 58.3175 499.165 59.1241 498.237 60.0101L498.445 60.822C498.643 61.7414 498.991 62.6273 499.322 63.5141C499.506 63.9447 499.721 64.3674 499.92 64.798C500.119 65.2287 500.351 65.6346 500.599 66.0326L501.038 66.745C502.331 66.7363 503.657 66.5707 504.858 66.347C505.919 66.1229 506.961 65.8155 507.974 65.4277C508.056 65.5184 508.147 65.6099 508.239 65.6927C507.85 66.705 507.542 67.7465 507.318 68.8075C507.095 70.0086 506.929 71.334 506.913 72.6267L507.625 73.0652C508.024 73.3162 508.44 73.5403 508.869 73.7363C509.299 73.9432 509.722 74.1589 510.153 74.3412C511.039 74.6724 511.918 75.0202 512.845 75.2192L513.658 75.4262C514.544 74.4988 515.35 73.4984 516.068 72.4356C516.662 71.5257 517.183 70.5702 517.626 69.578C517.693 69.5859 517.751 69.5947 517.817 69.5947C517.875 69.5947 517.941 69.5859 517.999 69.578C518.446 70.5685 518.966 71.5237 519.557 72.4356C520.279 73.4983 521.088 74.4986 521.977 75.4262L522.788 75.2192C523.708 75.0202 524.587 74.6724 525.473 74.3412C525.912 74.1589 526.334 73.9432 526.757 73.7363C527.187 73.5424 527.602 73.3181 528.001 73.0652L528.713 72.6267C528.704 71.334 528.539 70.0086 528.307 68.8075C528.091 67.7225 527.76 66.6782 527.395 65.6927C527.487 65.6099 527.57 65.5184 527.661 65.4277C528.673 65.8166 529.714 66.124 530.775 66.347C531.977 66.5707 533.294 66.7363 534.595 66.745L535.027 66.0326C535.283 65.6346 535.515 65.2287 535.706 64.798C535.913 64.3674 536.129 63.9447 536.311 63.5141C536.634 62.6273 536.99 61.7414 537.189 60.822L537.396 60.0101C536.467 59.1258 535.466 58.3193 534.405 57.599C533.493 57.0087 532.537 56.488 531.547 56.0412" fill="#FFA24D"/>
<path d="M498.981 65.9904H454.644V109.645H466.956" stroke="#FF7936" stroke-width="1.33333" stroke-miterlimit="10" stroke-dasharray="5.33 5.33"/>
<path d="M492.385 137.366H468.011V133.01H492.385V137.366ZM505.484 145.424H468.011V141.068H505.484V145.424ZM480.774 153.482H468.011V149.126H480.774V153.482Z" fill="white"/>
<path d="M498.747 153.482H485.983V149.126H498.747V153.482ZM521.642 153.482H503.313V149.126H521.642V153.482ZM521.642 145.424H510.512V141.068H521.642V145.424ZM521.642 137.366H497.268V133.01H521.642V137.366Z" fill="#FFA24D"/>
<path d="M529.758 153.349H530.571V104.806H529.758V153.349ZM493.453 111.068H468.388V106.589H493.453V111.068ZM506.923 119.354H468.388V114.876H506.923V119.354ZM481.513 127.64H468.388V123.161H481.513V127.64Z" fill="white"/>
<path d="M499.995 127.64H486.87V123.161H499.995V127.64ZM523.538 127.64H504.691V123.161H523.538V127.64ZM523.538 119.354H512.093V114.876H523.538V119.354ZM523.538 111.068H498.473V106.589H523.538V111.068Z" fill="#FFA24D"/>
<path d="M436.933 164.825H364.807V23.1203H436.933V164.825Z" fill="#4D4D4D"/>
<path d="M427.175 59.0086H373.022V53.2583H427.175V59.0086ZM408.864 71.7414H373.022V65.9911H408.864V71.7414Z" fill="white"/>
<path d="M427.175 71.7414H414.187V65.9911H427.175V71.7414ZM427.175 84.4742H393.618V78.7239H427.175V84.4742Z" fill="#FFA24D"/>
<path d="M388.739 84.4742H373.023V78.7239H388.739V84.4742ZM401.647 97.207H373.023V91.4567H401.647V97.207Z" fill="white"/>
<path d="M427.175 97.207H406.055V91.4567H427.175V97.207ZM427.175 109.94H388.739V104.189H427.175V109.94Z" fill="#FFA24D"/>
<path d="M384.642 109.94H373.022V104.189H384.642V109.94ZM396.26 122.673H373.022V116.922H396.26V122.673Z" fill="white"/>
<path d="M427.175 122.673H400.099V116.922H427.175V122.673Z" fill="#FFA24D"/>
<path d="M425.576 150.856V152.474L419.65 154.727V153.171L423.796 151.665L419.65 150.146V148.603L425.576 150.856Z" fill="#FFA24D"/>
<path d="M408.725 148.603V150.146L404.579 151.665L408.725 153.171V154.727L402.799 152.474V150.856L408.725 148.603Z" fill="#FFA24D"/>
<path d="M415.733 144.24H417.587L413.185 156.802H411.331L415.733 144.24Z" fill="#FFA24D"/>
<path d="M398.362 40.2687V42.3892L390.594 45.3424V43.303L396.028 41.329L390.594 39.339V37.3155L398.362 40.2687Z" fill="#FFA24D"/>
<path d="M384.078 37.3153V39.3387L378.644 41.3287L384.078 43.3028V45.3422L376.31 42.3898V40.2685L384.078 37.3153Z" fill="#FFA24D"/>
<path d="M373.114 0.70728H375.999V10.9063H373.114V0.70728ZM369.18 10.9063H366.295V0.70728H369.18V10.9063ZM373.318 6.92867H368.976V4.53919H373.318V6.92867ZM380.205 10.9063V2.99477H377.072V0.70728H386.207V2.99477H383.089V10.9063H380.205ZM387.282 10.9063V0.70728H389.657L393.882 7.6426H392.629L396.738 0.70728H399.113L399.142 10.9063H396.49L396.461 4.74317H396.913L393.839 9.90095H392.557L389.395 4.74317H389.949V10.9063H387.282ZM401.183 10.9063V0.70728H404.068V8.61879H408.935V10.9063H401.183Z" fill="white"/>
<path d="M23.476 192.675C17.148 195.497 9.70459 192.646 6.88217 186.319C5.20384 182.556 5.53345 178.399 7.40764 175.056L7.44904 174.98C9.02866 172.194 11.6192 170.121 14.6846 169.191C17.1906 168.422 19.8748 168.46 22.3581 169.299C24.4131 169.989 26.2552 171.198 27.706 172.808C29.1362 174.398 30.1355 176.328 30.6088 178.413C31.9162 184.14 29.0396 190.195 23.476 192.675ZM31.0555 168.289C29.543 166.805 27.7817 165.599 25.8517 164.725C23.1867 163.515 20.269 162.965 17.3462 163.124C15.2812 163.235 13.251 163.703 11.3455 164.506C11.2245 164.558 11.1011 164.61 10.9809 164.665C7.59613 166.168 4.75806 168.679 2.85434 171.855C-0.0946783 176.754 -0.685438 182.969 1.81613 188.578C5.88377 197.696 16.6146 201.807 25.7347 197.739C34.0953 194.012 38.2465 184.688 35.7481 176.137C35.5212 175.357 35.2378 174.586 34.8994 173.826C33.978 171.755 32.6739 169.876 31.0555 168.289" fill="#646491"/>
<path d="M25.9546 164.773C27.8447 165.643 29.5705 166.832 31.0557 168.289C32.6747 169.876 33.9789 171.754 34.8996 173.826C35.2388 174.586 35.5222 175.357 35.7483 176.137L30.6099 178.413C30.1349 176.329 29.1357 174.4 27.707 172.809C26.2557 171.198 24.4135 169.989 22.3583 169.299L22.3297 169.291L25.8519 164.724M25.9546 164.773L22.3583 169.299Z" fill="#FFA24D"/>
<path d="M22.3581 169.299L22.3295 169.291C19.8544 168.461 17.1815 168.426 14.6854 169.191L11.3455 164.506C13.251 163.703 15.2812 163.235 17.3462 163.123C20.269 162.965 23.1868 163.515 25.8517 164.725" fill="#D53B5E"/>
<path d="M19.8024 199.309V200.901" stroke="#FF7936" stroke-width="1.33333" stroke-miterlimit="10"/>
<path d="M19.8024 203.948V226.797" stroke="#FF7936" stroke-width="1.33333" stroke-miterlimit="10" stroke-dasharray="5.1 5.1"/>
<path d="M19.8024 228.321V229.913H21.3948" stroke="#FF7936" stroke-width="1.33333" stroke-miterlimit="10"/>
<path d="M24.6714 229.913H68.9074" stroke="#FF7936" stroke-width="1.33333" stroke-miterlimit="10" stroke-dasharray="5.49 5.49"/>
<path d="M70.5453 229.913H72.1376V228.321" stroke="#FF7936" stroke-width="1.33333" stroke-miterlimit="10"/>
<path d="M72.1378 225.22V201.969" stroke="#FF7936" stroke-width="1.33333" stroke-miterlimit="10" stroke-dasharray="5.19 5.19"/>
<path d="M72.1378 200.418V198.826" stroke="#FF7936" stroke-width="1.33333" stroke-miterlimit="10"/>
<path d="M206.577 197.32H53.0367V14.3054H206.577V197.32Z" fill="#4D4D4D"/>
<path d="M206.577 28.6183H53.0367V5.39022H206.577V28.6183Z" fill="#4D4D4D"/>
<path d="M188.81 184.731V186.238L183.289 188.337V186.888L187.152 185.484L183.289 184.069V182.631L188.81 184.731Z" fill="#FFA24D"/>
<path d="M173.112 182.631V184.069L169.249 185.484L173.112 186.888V188.337L167.591 186.238V184.731L173.112 182.631Z" fill="#FFA24D"/>
<path d="M175.438 190.983L179.996 177.973H182.33L177.772 190.983H175.438Z" fill="#FFA24D"/>
<path d="M89.42 43.4254V45.3056L82.5348 47.9228V46.1151L87.3516 44.3655L82.5348 42.6015V40.8074L89.42 43.4254Z" fill="#FFA24D"/>
<path d="M76.7585 40.8082V42.6015L71.9417 44.3663L76.7585 46.1159V47.9236L69.8733 45.3063V43.4262L76.7585 40.8082Z" fill="#FFA24D"/>
<path d="M70.5539 22.8437L68.4065 16.2217H70.3363L72.1432 21.9545H71.1688L73.0703 16.2217H74.792L76.5894 21.9545H75.6528L77.5165 16.2217H79.3044L77.157 22.8437H75.1515L73.6189 17.9718H74.1582L72.5594 22.8437H70.5539ZM81.6973 18.7854H84.7718V20.1855H81.6973V18.7854ZM81.8297 21.3963H85.2921V22.8437H79.9755V16.2217H85.1691V17.6691H81.8297V21.3963ZM86.3315 22.8437V16.2217H89.7182C90.5885 16.2217 91.2381 16.3825 91.6669 16.7042C92.0958 17.0195 92.3102 17.4358 92.3102 17.9529C92.3102 18.2935 92.2188 18.593 92.0359 18.8516C91.8593 19.1039 91.607 19.3057 91.2791 19.457C90.9574 19.6021 90.5727 19.6746 90.1249 19.6746L90.3141 19.2205C90.7808 19.2205 91.1876 19.2931 91.5345 19.4381C91.8814 19.5769 92.1494 19.7818 92.3386 20.053C92.5341 20.3179 92.6318 20.6427 92.6318 21.0274C92.6318 21.6013 92.3985 22.0491 91.9318 22.3707C91.4714 22.6861 90.7966 22.8437 89.9074 22.8437H86.3315ZM88.1856 21.4909H89.756C90.0776 21.4909 90.3205 21.4373 90.4844 21.3301C90.6547 21.2166 90.7398 21.0463 90.7398 20.8193C90.7398 20.5922 90.6547 20.4251 90.4844 20.3179C90.3205 20.2044 90.0776 20.1476 89.756 20.1476H88.0532V18.8516H89.4722C89.7875 18.8516 90.024 18.798 90.1817 18.6908C90.3394 18.5836 90.4182 18.4227 90.4182 18.2083C90.4182 17.9939 90.3394 17.8362 90.1817 17.7353C90.024 17.6281 89.7875 17.5745 89.4722 17.5745H88.1856V21.4909ZM96.355 22.8437V16.2217H99.4863C100.218 16.2217 100.861 16.3573 101.416 16.6285C101.971 16.8997 102.403 17.2812 102.712 17.7732C103.027 18.2651 103.185 18.8516 103.185 19.5327C103.185 20.2075 103.027 20.7941 102.712 21.2923C102.403 21.7842 101.971 22.1658 101.416 22.4369C100.861 22.7081 100.218 22.8437 99.4863 22.8437H96.355ZM98.2281 21.349H99.4106C99.789 21.349 100.117 21.2797 100.394 21.1409C100.678 20.9959 100.899 20.7877 101.057 20.5166C101.214 20.2391 101.293 19.9111 101.293 19.5327C101.293 19.148 101.214 18.8201 101.057 18.5489C100.899 18.2777 100.678 18.0727 100.394 17.934C100.117 17.7889 99.789 17.7164 99.4106 17.7164H98.2281V21.349ZM105.892 18.7854H108.967V20.1855H105.892V18.7854ZM106.025 21.3963H109.487V22.8437H104.171V16.2217H109.364V17.6691H106.025V21.3963ZM112.468 22.8437L109.64 16.2217H111.664L114.048 21.9545H112.856L115.297 16.2217H117.151L114.313 22.8437H112.468ZM119.26 18.7854H122.335V20.1855H119.26V18.7854ZM119.393 21.3963H122.855V22.8437H117.538V16.2217H122.732V17.6691H119.393V21.3963ZM123.894 22.8437V16.2217H125.767V21.3585H128.927V22.8437H123.894ZM132.906 22.9762C132.376 22.9762 131.887 22.891 131.44 22.7207C130.992 22.5505 130.601 22.3108 130.267 22.0018C129.939 21.6864 129.683 21.3207 129.5 20.9044C129.318 20.4882 129.226 20.0309 129.226 19.5327C129.226 19.0345 129.318 18.5773 129.5 18.161C129.683 17.7448 129.939 17.3821 130.267 17.0731C130.601 16.7578 130.992 16.515 131.44 16.3447C131.887 16.1744 132.376 16.0893 132.906 16.0893C133.442 16.0893 133.931 16.1744 134.372 16.3447C134.82 16.515 135.208 16.7578 135.536 17.0731C135.864 17.3821 136.119 17.7448 136.302 18.161C136.491 18.5773 136.586 19.0345 136.586 19.5327C136.586 20.0309 136.491 20.4913 136.302 20.9139C136.119 21.3301 135.864 21.6928 135.536 22.0018C135.208 22.3108 134.82 22.5505 134.372 22.7207C133.931 22.891 133.442 22.9762 132.906 22.9762ZM132.906 21.4247C133.158 21.4247 133.392 21.3806 133.606 21.2923C133.827 21.204 134.016 21.0779 134.174 20.9139C134.338 20.7436 134.464 20.5418 134.552 20.3084C134.647 20.0751 134.694 19.8165 134.694 19.5327C134.694 19.2426 134.647 18.984 134.552 18.757C134.464 18.5237 134.338 18.325 134.174 18.161C134.016 17.9907 133.827 17.8615 133.606 17.7732C133.392 17.6849 133.158 17.6407 132.906 17.6407C132.654 17.6407 132.417 17.6849 132.197 17.7732C131.982 17.8615 131.793 17.9907 131.629 18.161C131.471 18.325 131.345 18.5237 131.251 18.757C131.162 18.984 131.118 19.2426 131.118 19.5327C131.118 19.8165 131.162 20.0751 131.251 20.3084C131.345 20.5418 131.471 20.7436 131.629 20.9139C131.793 21.0779 131.982 21.204 132.197 21.2923C132.417 21.3806 132.654 21.4247 132.906 21.4247ZM137.567 22.8437V16.2217H140.594C141.2 16.2217 141.72 16.3195 142.155 16.515C142.597 16.7105 142.937 16.9943 143.177 17.3664C143.416 17.7322 143.536 18.1673 143.536 18.6719C143.536 19.1701 143.416 19.6021 143.177 19.9679C142.937 20.3337 142.597 20.6175 142.155 20.8193C141.72 21.0148 141.2 21.1125 140.594 21.1125H138.608L139.44 20.299V22.8437H137.567ZM139.44 20.4976L138.608 19.6368H140.481C140.872 19.6368 141.162 19.5516 141.351 19.3814C141.546 19.2111 141.644 18.9746 141.644 18.6719C141.644 18.3628 141.546 18.1232 141.351 17.9529C141.162 17.7826 140.872 17.6975 140.481 17.6975H138.608L139.44 16.8366V20.4976ZM144.45 22.8437V16.2217H146.323V22.8437H144.45ZM147.655 22.8437V16.2217H149.197L152.849 20.6301H152.12V16.2217H153.956V22.8437H152.414L148.762 18.4354H149.49V22.8437H147.655ZM158.588 22.9762C158.064 22.9762 157.579 22.8942 157.131 22.7302C156.683 22.5599 156.295 22.3203 155.967 22.0112C155.646 21.7022 155.393 21.3396 155.211 20.9233C155.028 20.5008 154.936 20.0373 154.936 19.5327C154.936 19.0282 155.028 18.5678 155.211 18.1516C155.393 17.729 155.649 17.3632 155.977 17.0542C156.305 16.7452 156.693 16.5087 157.14 16.3447C157.594 16.1744 158.09 16.0893 158.626 16.0893C159.25 16.0893 159.808 16.1933 160.3 16.4015C160.792 16.6096 161.199 16.9091 161.52 17.3002L160.328 18.3786C160.101 18.1326 159.855 17.9497 159.591 17.8299C159.332 17.7038 159.042 17.6407 158.72 17.6407C158.436 17.6407 158.178 17.6849 157.944 17.7732C157.711 17.8615 157.512 17.9907 157.349 18.161C157.185 18.325 157.055 18.5237 156.961 18.757C156.872 18.984 156.828 19.2426 156.828 19.5327C156.828 19.8102 156.872 20.0656 156.961 20.299C157.055 20.5323 157.185 20.7341 157.349 20.9044C157.512 21.0684 157.708 21.1977 157.935 21.2923C158.168 21.3806 158.424 21.4247 158.701 21.4247C158.979 21.4247 159.25 21.3806 159.515 21.2923C159.78 21.1977 160.048 21.04 160.319 20.8193L161.369 22.1342C160.991 22.4054 160.552 22.6135 160.054 22.7586C159.556 22.9036 159.067 22.9762 158.588 22.9762ZM159.714 21.8883V19.3908H161.369V22.1342L159.714 21.8883Z" fill="white"/>
<path d="M124.714 67.3491H79.581V59.0859H124.714V67.3491Z" fill="#00B4CF"/>
<path d="M153.64 67.3491H131.073V59.0859H153.64V67.3491Z" fill="#FFA24D"/>
<path d="M189.918 67.3491H158.837V59.0859H189.918V67.3491Z" fill="white"/>
<path d="M100.646 82.1021H79.5818V73.8389H100.646V82.1021Z" fill="#00B4CF"/>
<path d="M142.357 82.1021H106.378V73.8389H142.357V82.1021Z" fill="#FFA24D"/>
<path d="M189.918 82.1021H148.22V73.8389H189.918V82.1021Z" fill="white"/>
<path d="M107.309 96.8551H79.5818V88.5911H107.309V96.8551Z" fill="#00B4CF"/>
<path d="M163.981 96.8551H111.823V88.5911H163.981V96.8551Z" fill="#FFA24D"/>
<path d="M189.918 96.8551H169.571V88.5911H189.918V96.8551Z" fill="white"/>
<path d="M114.546 111.608H79.5818V103.345H114.546V111.608Z" fill="#00B4CF"/>
<path d="M153.64 111.608H119.704V103.345H153.64V111.608Z" fill="#FFA24D"/>
<path d="M189.918 111.608H158.837V103.345H189.918V111.608Z" fill="white"/>
<path d="M94.9136 126.361H79.581V118.098H94.9136V126.361Z" fill="#00B4CF"/>
<path d="M130.451 126.361H100.073V118.098H130.451V126.361Z" fill="#FFA24D"/>
<path d="M189.918 126.361H135.18V118.098H189.918V126.361Z" fill="white"/>
<path d="M123.429 141.114H79.581V132.851H123.429V141.114Z" fill="#00B4CF"/>
<path d="M142.357 141.114H128.875V132.851H142.357V141.114Z" fill="#FFA24D"/>
<path d="M189.918 141.114H148.22V132.851H189.918V141.114Z" fill="white"/>
<path d="M136.672 155.868H79.5818V147.604H136.672V155.868Z" fill="#00B4CF"/>
<path d="M164.841 155.868H141.485V147.604H164.841V155.868Z" fill="#FFA24D"/>
<path d="M189.918 155.868H169.571V147.604H189.918V155.868Z" fill="white"/>
<path d="M97.0633 170.62H79.581V162.357H97.0633V170.62Z" fill="#00B4CF"/>
<path d="M123.429 170.62H102.148V162.357H123.429V170.62Z" fill="#FFA24D"/>
<path d="M189.918 170.62H128.875V162.357H189.918V170.62ZM197.635 170.62H195.954V59.0859H197.635V170.62Z" fill="white"/>
<path d="M69.5214 63.2179C69.5214 63.7605 69.4144 64.2978 69.2067 64.799C68.999 65.3003 68.6946 65.7558 68.3108 66.1394C67.927 66.523 67.4714 66.8273 66.97 67.0349C66.4685 67.2424 65.9311 67.3492 65.3884 67.3491C64.2924 67.3491 63.2413 66.9138 62.4663 66.139C61.6913 65.3642 61.2559 64.3133 61.2559 63.2175C61.2559 62.1217 61.6913 61.0708 62.4663 60.296C63.2413 59.5212 64.2924 59.0859 65.3884 59.0859C65.9312 59.0858 66.4687 59.1926 66.9702 59.4002C67.4716 59.6078 67.9273 59.9122 68.3111 60.2959C68.6949 60.6796 68.9993 61.1351 69.207 61.6365C69.4146 62.1379 69.5215 62.6752 69.5214 63.2179" fill="white"/>
<path d="M69.5214 77.9701C69.5214 79.066 69.0859 80.117 68.3108 80.8919C67.5358 81.6668 66.4845 82.1021 65.3884 82.1021C64.2923 82.1021 63.2411 81.6668 62.466 80.8919C61.6909 80.117 61.2555 79.066 61.2555 77.9701C61.2555 76.8742 61.6909 75.8232 62.466 75.0483C63.2411 74.2734 64.2923 73.8381 65.3884 73.8381C66.4845 73.8381 67.5358 74.2734 68.3108 75.0483C69.0859 75.8232 69.5214 76.8742 69.5214 77.9701" fill="white"/>
<path d="M69.5214 92.7231C69.5214 93.819 69.0859 94.87 68.3108 95.6449C67.5358 96.4198 66.4845 96.8551 65.3884 96.8551C64.2923 96.8551 63.2411 96.4198 62.466 95.6449C61.6909 94.87 61.2555 93.819 61.2555 92.7231C61.2555 91.6272 61.6909 90.5762 62.466 89.8013C63.2411 89.0264 64.2923 88.5911 65.3884 88.5911C66.4845 88.5911 67.5358 89.0264 68.3108 89.8013C69.0859 90.5762 69.5214 91.6272 69.5214 92.7231" fill="white"/>
<path d="M69.5214 107.477C69.5214 108.02 69.4144 108.557 69.2067 109.058C68.999 109.559 68.6946 110.015 68.3108 110.398C67.927 110.782 67.4714 111.086 66.97 111.294C66.4685 111.501 65.9311 111.608 65.3884 111.608C64.2924 111.608 63.2413 111.173 62.4663 110.398C61.6913 109.623 61.2559 108.572 61.2559 107.477C61.2559 106.381 61.6913 105.33 62.4663 104.555C63.2413 103.78 64.2924 103.345 65.3884 103.345C65.9312 103.345 66.4687 103.452 66.9702 103.659C67.4716 103.867 67.9273 104.171 68.3111 104.555C68.6949 104.939 68.9993 105.394 69.207 105.896C69.4146 106.397 69.5215 106.934 69.5214 107.477" fill="white"/>
<path d="M69.5214 122.229C69.5214 123.325 69.0859 124.376 68.3108 125.151C67.5358 125.926 66.4845 126.361 65.3884 126.361C64.2923 126.361 63.2411 125.926 62.466 125.151C61.6909 124.376 61.2555 123.325 61.2555 122.229C61.2555 121.133 61.6909 120.082 62.466 119.307C63.2411 118.532 64.2923 118.097 65.3884 118.097C66.4845 118.097 67.5358 118.532 68.3108 119.307C69.0859 120.082 69.5214 121.133 69.5214 122.229" fill="white"/>
<path d="M69.5214 136.983C69.5214 137.526 69.4144 138.063 69.2067 138.564C68.999 139.065 68.6946 139.521 68.3108 139.905C67.927 140.288 67.4714 140.592 66.97 140.8C66.4685 141.008 65.9311 141.114 65.3884 141.114C64.2924 141.114 63.2413 140.679 62.4663 139.904C61.6913 139.129 61.2559 138.078 61.2559 136.983C61.2559 135.887 61.6913 134.836 62.4663 134.061C63.2413 133.286 64.2924 132.851 65.3884 132.851C65.9312 132.851 66.4687 132.958 66.9702 133.165C67.4716 133.373 67.9273 133.677 68.3111 134.061C68.6949 134.445 68.9993 134.9 69.207 135.402C69.4146 135.903 69.5215 136.44 69.5214 136.983" fill="white"/>
<path d="M69.5214 151.735C69.5214 152.831 69.0859 153.882 68.3108 154.657C67.5358 155.432 66.4845 155.867 65.3884 155.867C64.2923 155.867 63.2411 155.432 62.466 154.657C61.6909 153.882 61.2555 152.831 61.2555 151.735C61.2555 150.639 61.6909 149.588 62.466 148.813C63.2411 148.039 64.2923 147.603 65.3884 147.603C66.4845 147.603 67.5358 148.039 68.3108 148.813C69.0859 149.588 69.5214 150.639 69.5214 151.735" fill="white"/>
<path d="M69.5212 166.488C69.5212 167.031 69.4143 167.568 69.2066 168.07C68.9989 168.571 68.6944 169.026 68.3106 169.41C67.9268 169.794 67.4712 170.098 66.9698 170.305C66.4684 170.513 65.931 170.62 65.3883 170.62C64.2924 170.62 63.2413 170.184 62.4664 169.41C61.6915 168.635 61.2561 167.584 61.2561 166.488C61.2561 165.393 61.6915 164.342 62.4664 163.567C63.2413 162.792 64.2924 162.357 65.3883 162.357C65.931 162.357 66.4684 162.464 66.9698 162.671C67.4712 162.879 67.9268 163.183 68.3106 163.567C68.6944 163.951 68.9989 164.406 69.2066 164.907C69.4143 165.409 69.5212 165.946 69.5212 166.488" fill="white"/>
<path d="M199.738 18.2854C199.746 18.8437 199.643 19.3978 199.434 19.9158C199.226 20.4337 198.917 20.9051 198.525 21.3026C198.132 21.7 197.665 22.0156 197.15 22.231C196.635 22.4464 196.082 22.5574 195.524 22.5574C194.965 22.5574 194.412 22.4464 193.897 22.231C193.382 22.0156 192.915 21.7 192.523 21.3026C192.131 20.9051 191.822 20.4337 191.613 19.9158C191.405 19.3978 191.302 18.8437 191.309 18.2854C191.324 17.178 191.775 16.121 192.564 15.3432C193.353 14.5654 194.416 14.1294 195.524 14.1294C196.632 14.1294 197.695 14.5654 198.484 15.3432C199.272 16.121 199.723 17.178 199.738 18.2854" fill="#D53B5E"/>
<path d="M189.319 18.2002C189.319 19.3263 188.871 20.4062 188.075 21.2025C187.278 21.9987 186.198 22.4461 185.072 22.4461C183.946 22.4461 182.865 21.9987 182.069 21.2025C181.273 20.4062 180.825 19.3263 180.825 18.2002C180.825 17.0742 181.273 15.9942 182.069 15.198C182.865 14.4017 183.946 13.9544 185.072 13.9544C186.198 13.9544 187.278 14.4017 188.075 15.198C188.871 15.9942 189.319 17.0742 189.319 18.2002" fill="white"/>
<path d="M241.886 39.9915H227.012V35.8252H241.886V39.9915Z" fill="#3F537E"/>
<path d="M272.515 32.5735H227.012V28.4073H272.515V32.5735Z" fill="#646491"/>
<path d="M253.301 40.7851V42.3771" stroke="#FF7936" stroke-width="1.33333" stroke-miterlimit="10"/>
<path d="M253.301 45.0644V54.4707" stroke="#FF7936" stroke-width="1.33333" stroke-miterlimit="10" stroke-dasharray="4.5 4.5"/>
<path d="M253.301 55.8143V57.4063H254.894" stroke="#FF7936" stroke-width="1.33333" stroke-miterlimit="10"/>
<path d="M257.926 57.4063H304.933" stroke="#FF7936" stroke-width="1.33333" stroke-miterlimit="10" stroke-dasharray="5.08 5.08"/>
<path d="M306.449 57.4063H308.041V55.8143" stroke="#FF7936" stroke-width="1.33333" stroke-miterlimit="10"/>
<path d="M308.041 52.585V47.7413" stroke="#FF7936" stroke-width="1.33333" stroke-miterlimit="10" stroke-dasharray="5.41 5.41"/>
<path d="M308.041 46.1262V44.5342" stroke="#FF7936" stroke-width="1.33333" stroke-miterlimit="10"/>
<path d="M232.699 15.9254C231.948 15.9254 231.251 15.8078 230.609 15.5726C229.976 15.3283 229.424 14.9845 228.953 14.5413C228.492 14.098 228.13 13.5778 227.868 12.9807C227.605 12.3746 227.474 11.7096 227.474 10.9859C227.474 10.2622 227.605 9.60177 227.868 9.00469C228.13 8.39857 228.492 7.87386 228.953 7.43057C229.424 6.98729 229.976 6.64804 230.609 6.41282C231.251 6.16856 231.948 6.04643 232.699 6.04643C233.576 6.04643 234.359 6.20023 235.046 6.50781C235.743 6.8154 236.322 7.25869 236.783 7.83767L235.073 9.38465C234.766 9.02279 234.427 8.74686 234.056 8.55688C233.694 8.3669 233.287 8.27191 232.834 8.27191C232.445 8.27191 232.088 8.33524 231.762 8.46189C231.437 8.58855 231.156 8.774 230.921 9.01826C230.695 9.25348 230.514 9.53845 230.378 9.87317C230.252 10.2079 230.188 10.5788 230.188 10.9859C230.188 11.393 230.252 11.7639 230.378 12.0987C230.514 12.4334 230.695 12.7229 230.921 12.9671C231.156 13.2023 231.437 13.3833 231.762 13.5099C232.088 13.6366 232.445 13.6999 232.834 13.6999C233.287 13.6999 233.694 13.6049 234.056 13.4149C234.427 13.225 234.766 12.949 235.073 12.5872L236.783 14.1342C236.322 14.7041 235.743 15.1474 235.046 15.464C234.359 15.7716 233.576 15.9254 232.699 15.9254ZM241.227 15.9254C240.449 15.9254 239.698 15.8304 238.974 15.6404C238.259 15.4414 237.676 15.1881 237.224 14.8805L238.106 12.8993C238.531 13.1707 239.019 13.3968 239.571 13.5778C240.132 13.7497 240.688 13.8356 241.24 13.8356C241.611 13.8356 241.91 13.8039 242.136 13.7406C242.362 13.6682 242.525 13.5778 242.624 13.4692C242.733 13.3516 242.787 13.2159 242.787 13.0621C242.787 12.845 242.688 12.6731 242.489 12.5465C242.29 12.4198 242.032 12.3158 241.715 12.2344C241.399 12.1529 241.046 12.0715 240.657 11.9901C240.277 11.9087 239.892 11.8046 239.503 11.678C239.123 11.5513 238.775 11.3885 238.458 11.1895C238.142 10.9814 237.884 10.7145 237.685 10.3888C237.486 10.0541 237.386 9.63344 237.386 9.12682C237.386 8.55688 237.54 8.04122 237.848 7.57984C238.164 7.11846 238.635 6.74755 239.259 6.4671C239.883 6.18666 240.661 6.04643 241.593 6.04643C242.217 6.04643 242.828 6.11881 243.425 6.26355C244.031 6.39925 244.569 6.6028 245.04 6.8742L244.212 8.86899C243.76 8.62473 243.312 8.4438 242.869 8.32619C242.425 8.19954 241.996 8.13621 241.58 8.13621C241.209 8.13621 240.91 8.17692 240.684 8.25834C240.458 8.33072 240.295 8.43023 240.195 8.55688C240.096 8.68354 240.046 8.82828 240.046 8.99112C240.046 9.1992 240.141 9.36656 240.331 9.49321C240.53 9.61082 240.788 9.71033 241.105 9.79175C241.43 9.86413 241.783 9.94102 242.163 10.0224C242.552 10.1039 242.937 10.2079 243.316 10.3346C243.705 10.4522 244.058 10.615 244.375 10.8231C244.692 11.0221 244.945 11.289 245.135 11.6237C245.334 11.9494 245.433 12.361 245.433 12.8586C245.433 13.4104 245.275 13.9216 244.958 14.392C244.651 14.8534 244.185 15.2243 243.561 15.5047C242.946 15.7852 242.168 15.9254 241.227 15.9254ZM250.013 15.9254C249.235 15.9254 248.484 15.8304 247.76 15.6404C247.045 15.4414 246.462 15.1881 246.01 14.8805L246.892 12.8993C247.317 13.1707 247.805 13.3968 248.357 13.5778C248.918 13.7497 249.474 13.8356 250.026 13.8356C250.397 13.8356 250.696 13.8039 250.922 13.7406C251.148 13.6682 251.311 13.5778 251.41 13.4692C251.519 13.3516 251.573 13.2159 251.573 13.0621C251.573 12.845 251.474 12.6731 251.275 12.5465C251.076 12.4198 250.818 12.3158 250.501 12.2344C250.185 12.1529 249.832 12.0715 249.443 11.9901C249.063 11.9087 248.678 11.8046 248.289 11.678C247.909 11.5513 247.561 11.3885 247.244 11.1895C246.928 10.9814 246.67 10.7145 246.471 10.3888C246.272 10.0541 246.172 9.63344 246.172 9.12682C246.172 8.55688 246.326 8.04122 246.634 7.57984C246.95 7.11846 247.421 6.74755 248.045 6.4671C248.669 6.18666 249.447 6.04643 250.379 6.04643C251.003 6.04643 251.614 6.11881 252.211 6.26355C252.817 6.39925 253.355 6.6028 253.826 6.8742L252.998 8.86899C252.546 8.62473 252.098 8.4438 251.655 8.32619C251.211 8.19954 250.782 8.13621 250.366 8.13621C249.995 8.13621 249.696 8.17692 249.47 8.25834C249.244 8.33072 249.081 8.43023 248.981 8.55688C248.882 8.68354 248.832 8.82828 248.832 8.99112C248.832 9.1992 248.927 9.36656 249.117 9.49321C249.316 9.61082 249.574 9.71033 249.891 9.79175C250.216 9.86413 250.569 9.94102 250.949 10.0224C251.338 10.1039 251.723 10.2079 252.103 10.3346C252.492 10.4522 252.844 10.615 253.161 10.8231C253.478 11.0221 253.731 11.289 253.921 11.6237C254.12 11.9494 254.219 12.361 254.219 12.8586C254.219 13.4104 254.061 13.9216 253.745 14.392C253.437 14.8534 252.971 15.2243 252.347 15.5047C251.732 15.7852 250.954 15.9254 250.013 15.9254Z" fill="white"/>
<path d="M311.594 39.0389C307.202 40.9939 302.039 39.0174 300.084 34.6275C299.531 33.3879 299.275 32.0361 299.339 30.6802C299.402 29.3244 299.782 28.0022 300.448 26.8195C300.454 26.8028 300.464 26.7805 300.476 26.7646C301.389 25.1506 302.797 23.8728 304.491 23.1197C304.822 22.9765 305.154 22.8491 305.496 22.7504C305.529 22.7332 305.564 22.7219 305.601 22.717C307.303 22.2184 309.117 22.2531 310.799 22.8165C310.804 22.8165 310.81 22.8212 310.814 22.8212C312.24 23.3022 313.518 24.1409 314.526 25.257C315.136 25.9313 315.634 26.6991 316.001 27.5312C316.239 28.0613 316.416 28.6034 316.542 29.1438C316.88 30.6236 316.813 32.1312 316.399 33.5338C316.047 34.7457 315.435 35.8663 314.605 36.8172C313.775 37.768 312.747 38.5263 311.594 39.0389M320.104 27.5646C319.505 25.501 318.385 23.6263 316.852 22.1208C315.82 21.1119 314.623 20.2882 313.311 19.6858C313.29 19.67 313.265 19.6586 313.239 19.6524C311.391 18.8107 309.368 18.4281 307.341 18.5372C305.908 18.6172 304.5 18.9422 303.177 19.4979C303.094 19.5362 303.006 19.5696 302.922 19.6078C300.575 20.6504 298.608 22.392 297.289 24.5947C296.242 26.3269 295.63 28.2864 295.504 30.3064C295.378 32.3263 295.742 34.3468 296.565 36.1956C299.388 42.523 306.833 45.3726 313.157 42.5508C317.017 40.8283 319.585 37.3936 320.359 33.5338C320.759 31.5528 320.672 29.5042 320.104 27.5646Z" fill="#646491"/>
<path d="M320.359 33.5339H316.399C316.813 32.1314 316.88 30.6238 316.542 29.144C316.416 28.6035 316.239 28.0615 316.001 27.5313C315.634 26.6993 315.136 25.9315 314.526 25.2572C313.518 24.1412 312.24 23.3026 310.815 22.8214C310.81 22.8214 310.804 22.8166 310.799 22.8166C309.117 22.2533 307.303 22.2186 305.601 22.7171C305.565 22.7221 305.529 22.7334 305.496 22.7506C305.154 22.8493 304.823 22.9766 304.491 23.1199C302.797 23.873 301.389 25.1508 300.476 26.7648C300.465 26.7818 300.455 26.8003 300.449 26.8197C299.879 27.8309 299.517 28.946 299.385 30.0992C299.254 31.2524 299.354 32.4202 299.681 33.5339H295.721C295.111 30.463 295.67 27.2749 297.289 24.5949C298.608 22.392 300.576 20.6503 302.923 19.608C303.006 19.5697 303.094 19.5363 303.177 19.4981C304.5 18.9425 305.908 18.6175 307.341 18.5373C309.368 18.4283 311.392 18.8109 313.24 19.6525C313.266 19.659 313.29 19.6703 313.311 19.686C314.623 20.2884 315.82 21.1121 316.852 22.1209C318.386 23.6264 319.506 25.5011 320.105 27.5647C320.685 29.5532 320.751 31.5957 320.359 33.5339Z" fill="#D53B5E"/>
<path d="M272.515 39.9915H244.866V35.8252H272.515V39.9915Z" fill="#646491"/>
<path d="M17.8603 23.6295C16.5856 23.6295 15.6266 23.3199 14.9831 22.7008C14.3397 22.0816 14.018 21.2076 14.018 20.0785V17.256C14.018 16.9768 13.9452 16.7704 13.7995 16.6368C13.6538 16.5033 13.4656 16.4365 13.235 16.4365H12.6158V13.7779H13.235C13.4656 13.7779 13.6538 13.7111 13.7995 13.5776C13.9452 13.4319 14.018 13.2255 14.018 12.9584V10.1359C14.018 9.00685 14.3397 8.13277 14.9831 7.51363C15.6266 6.89449 16.5856 6.58492 17.8603 6.58492H19.044V9.22537H18.789C18.3641 9.22537 18.0364 9.3407 17.8057 9.57136C17.5872 9.78988 17.4779 10.1116 17.4779 10.5365V12.8674C17.4779 13.4744 17.3929 13.9478 17.223 14.2878C17.053 14.6155 16.7859 14.8523 16.4217 14.9979C16.0697 15.1436 15.6084 15.2407 15.0378 15.2893V14.9251C15.6084 14.9737 16.0697 15.0708 16.4217 15.2165C16.7859 15.3621 17.053 15.6049 17.223 15.9449C17.3929 16.2726 17.4779 16.74 17.4779 17.347V19.6779C17.4779 20.1028 17.5872 20.4245 17.8057 20.643C18.0364 20.8737 18.3641 20.989 18.789 20.989H19.044V23.6295H17.8603ZM26.0016 23.6295H24.7998V20.989H25.0729C25.4978 20.989 25.8195 20.8737 26.038 20.643C26.2687 20.4245 26.384 20.1028 26.384 19.6779V17.347C26.384 16.74 26.469 16.2726 26.639 15.9449C26.8089 15.6049 27.0699 15.3621 27.422 15.2165C27.7862 15.0708 28.2536 14.9737 28.8242 14.9251V15.2893C28.2536 15.2407 27.7862 15.1436 27.422 14.9979C27.0699 14.8523 26.8089 14.6155 26.639 14.2878C26.469 13.9478 26.384 13.4744 26.384 12.8674V10.5365C26.384 10.1116 26.2687 9.78988 26.038 9.57136C25.8195 9.3407 25.4978 9.22537 25.0729 9.22537H24.7998V6.58492H26.0016C27.2763 6.58492 28.2354 6.89449 28.8788 7.51363C29.5222 8.13277 29.8439 9.00685 29.8439 10.1359V12.9584C29.8439 13.2255 29.9168 13.4319 30.0624 13.5776C30.2081 13.7111 30.3963 13.7779 30.627 13.7779H31.2279V16.4365H30.627C30.3963 16.4365 30.2081 16.5033 30.0624 16.6368C29.9168 16.7704 29.8439 16.9768 29.8439 17.256V20.0785C29.8439 21.2076 29.5222 22.0816 28.8788 22.7008C28.2354 23.3199 27.2763 23.6295 26.0016 23.6295Z" fill="#2E2E46"/>
<path d="M27.9788 54.4643H11.6254V46.6619H27.9788V54.4643ZM27.9788 68.095H11.6254V60.2926H27.9788V68.095Z" fill="white"/>
<path d="M27.9788 81.7264H11.6254V73.9241H27.9788V81.7264ZM27.9788 95.3579H11.6254V87.5555H27.9788V95.3579ZM27.9788 108.989H11.6254V101.187H27.9788V108.989ZM27.9788 122.621H11.6254V114.818H27.9788V122.621ZM27.9788 136.251H11.6254V128.449H27.9788V136.251Z" fill="#FFA24D"/>
<path d="M478.367 205.539C477.629 205.539 476.898 205.393 476.216 205.111C475.535 204.829 474.915 204.415 474.393 203.893C473.872 203.372 473.458 202.753 473.175 202.071C472.893 201.389 472.747 200.659 472.747 199.921C472.747 199.183 472.893 198.453 473.175 197.771C473.457 197.09 473.871 196.47 474.393 195.949C474.915 195.427 475.534 195.013 476.216 194.731C476.897 194.448 477.628 194.303 478.366 194.303C479.856 194.303 481.285 194.895 482.339 195.948C483.393 197.002 483.985 198.43 483.985 199.92C483.985 201.41 483.394 202.839 482.34 203.893C481.286 204.946 479.857 205.538 478.367 205.539M490.107 200.084C490.107 200.027 490.114 199.978 490.114 199.92C490.114 199.864 490.107 199.814 490.107 199.765C490.953 199.381 491.77 198.936 492.551 198.433C493.459 197.815 494.315 197.123 495.109 196.365L494.933 195.671C494.762 194.884 494.458 194.126 494.181 193.369C494.025 193 493.842 192.639 493.664 192.277C493.5 191.908 493.306 191.552 493.083 191.215L492.715 190.605C491.602 190.613 490.476 190.754 489.448 190.945C488.54 191.136 487.65 191.399 486.784 191.731L486.557 191.505C486.869 190.662 487.152 189.769 487.337 188.841C487.535 187.814 487.676 186.688 487.684 185.576L487.075 185.207C486.736 184.987 486.381 184.793 486.012 184.627C485.65 184.449 485.289 184.265 484.914 184.109C484.156 183.832 483.404 183.528 482.618 183.359L481.924 183.181C481.163 183.974 480.471 184.83 479.854 185.739C479.349 186.519 478.904 187.336 478.522 188.183C478.473 188.183 478.416 188.169 478.367 188.169C478.31 188.169 478.26 188.183 478.204 188.183C477.824 187.334 477.379 186.517 476.872 185.739C476.258 184.83 475.568 183.974 474.809 183.181L474.115 183.359C473.321 183.528 472.571 183.832 471.813 184.109C471.444 184.265 471.083 184.449 470.714 184.627C470.346 184.794 469.991 184.988 469.651 185.207L469.042 185.576C469.056 186.688 469.197 187.814 469.39 188.841C469.58 189.769 469.857 190.662 470.176 191.505C470.098 191.583 470.02 191.654 469.95 191.731C469.106 191.413 468.213 191.137 467.285 190.945C466.258 190.754 465.123 190.613 464.019 190.605L463.643 191.215C463.425 191.555 463.231 191.91 463.062 192.277C462.892 192.639 462.708 193 462.552 193.369C462.268 194.126 461.97 194.884 461.801 195.671L461.624 196.365C462.417 197.125 463.273 197.817 464.181 198.433C464.96 198.937 465.774 199.382 466.618 199.765C466.618 199.814 466.611 199.864 466.611 199.92C466.611 199.978 466.618 200.027 466.618 200.084C465.773 200.464 464.958 200.909 464.181 201.415C463.273 202.03 462.417 202.719 461.624 203.477L461.801 204.171C461.97 204.958 462.268 205.716 462.552 206.474C462.708 206.842 462.892 207.203 463.062 207.571C463.232 207.94 463.43 208.287 463.643 208.627L464.019 209.237C465.123 209.23 466.258 209.087 467.285 208.896C468.213 208.705 469.106 208.429 469.95 208.11C470.02 208.188 470.098 208.266 470.176 208.337C469.844 209.203 469.581 210.093 469.39 211C469.197 212.027 469.056 213.16 469.042 214.266L469.651 214.642C469.998 214.853 470.346 215.052 470.714 215.215C471.083 215.392 471.444 215.576 471.813 215.733C472.571 216.015 473.321 216.313 474.115 216.483L474.809 216.66C475.568 215.867 476.258 215.012 476.872 214.103C477.379 213.324 477.825 212.507 478.204 211.659C478.26 211.666 478.31 211.673 478.367 211.673C478.416 211.673 478.473 211.666 478.522 211.659C478.904 212.506 479.349 213.323 479.854 214.103C480.471 215.012 481.163 215.867 481.924 216.66L482.618 216.483C483.404 216.313 484.156 216.015 484.914 215.733C485.289 215.576 485.65 215.392 486.012 215.215C486.38 215.052 486.735 214.853 487.075 214.642L487.684 214.266C487.676 213.16 487.535 212.027 487.337 211C487.152 210.072 486.869 209.179 486.557 208.337C486.636 208.266 486.707 208.188 486.784 208.11C487.649 208.443 488.54 208.706 489.448 208.896C490.476 209.087 491.602 209.23 492.715 209.237L493.083 208.627C493.303 208.287 493.501 207.94 493.664 207.571C493.842 207.203 494.025 206.842 494.181 206.474C494.458 205.716 494.762 204.958 494.933 204.171L495.109 203.477C494.315 202.721 493.459 202.031 492.551 201.415C491.771 200.91 490.954 200.465 490.107 200.084" fill="#2E2E46"/>
<path d="M438.472 212.628H431.054V179.222H438.472V212.628Z" fill="#D53B5E"/>
<path d="M428.062 212.628H420.11V193.941H428.062V212.628Z" fill="#646491"/>
<path d="M417.047 212.628H409.095V199.921H417.047V212.628Z" fill="#FF7936"/>
<path d="M407.689 207.306H406.097" stroke="#FF7936" stroke-width="1.33333" stroke-miterlimit="10"/>
<path d="M402.059 207.306H396.003" stroke="#FF7936" stroke-width="1.33333" stroke-miterlimit="10" stroke-dasharray="6.76 6.76"/>
<path d="M393.985 207.306H392.392V208.898" stroke="#FF7936" stroke-width="1.33333" stroke-miterlimit="10"/>
<path d="M392.393 211.876V234.207" stroke="#FF7936" stroke-width="1.33333" stroke-miterlimit="10" stroke-dasharray="4.99 4.99"/>
<path d="M392.393 235.695V237.287H393.985" stroke="#FF7936" stroke-width="1.33333" stroke-miterlimit="10"/>
<path d="M396.688 237.288H406.152" stroke="#FF7936" stroke-width="1.33333" stroke-miterlimit="10" stroke-dasharray="4.53 4.53"/>
<path d="M407.502 237.288H409.095" stroke="#FF7936" stroke-width="1.33333" stroke-miterlimit="10"/>
<path d="M432.656 239.563H411.613V235.803H432.656V239.563ZM426.168 246.519H411.614V242.759H426.168V246.519ZM430.035 253.476H411.613V249.716H430.035V253.476Z" fill="white"/>
<path d="M438.147 253.476H433.847V249.716H438.147V253.476ZM457.913 253.476H442.09V249.716H457.913V253.476ZM457.913 246.519H430.832V242.759H457.913V246.519ZM457.913 239.563H436.871V235.803H457.913V239.563Z" fill="#FFA24D"/>
<path d="M530.074 204.498H516.21V197.882H530.074V204.498ZM530.074 216.056H516.21V209.44H530.074V216.056ZM530.074 227.613H516.21V220.997H530.074V227.613ZM530.074 239.17H516.21V232.554H530.074V239.17Z" fill="#D53B5E"/>
<path d="M530.074 250.728H516.21V244.112H530.074V250.728ZM530.074 262.285H516.21V255.669H530.074V262.285ZM530.074 273.842H516.21V267.226H530.074V273.842Z" fill="white"/>
<path d="M469.625 292.797C464.443 293.187 460.105 291.956 456.481 289.707C441.854 280.658 438.803 255.137 438.592 253.22C438.721 253.809 440.163 256.929 455.365 267.154C456.567 267.961 457.729 268.827 458.846 269.748C458.846 269.748 458.865 269.763 458.901 269.79C472.149 280.759 469.625 292.797 469.625 292.797Z" fill="#008167"/>
<path d="M438.582 253.109C438.582 253.109 452.239 286.616 467.39 290.142" stroke="#006D51" stroke-width="1.33333" stroke-miterlimit="10"/>
<g opacity="0.5">
<path d="M469.624 292.798C464.442 293.188 460.104 291.957 456.48 289.708C459.391 282.82 458.846 269.749 458.846 269.749C458.846 269.749 458.864 269.764 458.901 269.791C472.149 280.76 469.624 292.798 469.624 292.798Z" fill="#006D51"/>
</g>
<path d="M508.446 255.085C508.257 256.231 508.033 257.37 507.776 258.502V258.508C505.617 268.169 497.829 294.166 476.875 291.56C476.875 291.56 476.52 289.33 477.228 285.992C478.265 281.085 481.596 273.78 491.732 267.654C506.772 258.56 508.294 255.64 508.446 255.085Z" fill="#008167"/>
<path d="M507.776 257.15C507.776 257.15 497.021 285.007 478.367 290.687" stroke="#006D51" stroke-width="1.33333" stroke-miterlimit="10"/>
<g opacity="0.5">
<path d="M507.775 258.502V258.509C505.617 268.171 497.829 294.167 476.873 291.561C476.873 291.561 476.52 289.331 477.228 285.993H477.248C494.682 286.925 507.775 258.502 507.775 258.502Z" fill="#006D51"/>
</g>
<path d="M475.75 292.49C475.232 293.389 467.58 290.211 464.133 281.012H464.129C462.059 275.487 461.508 267.789 464.928 257.502C473.914 230.488 470.211 225.395 470.101 225.252C470.281 225.338 478.09 229.214 483.127 238.646C483.127 238.646 483.132 238.659 483.148 238.683C488.687 249.088 490.848 266.235 475.75 292.49Z" fill="#009B79"/>
<path d="M470.097 225.249C470.097 225.249 481.815 240.031 477.353 268.148C472.891 296.264 475.75 292.49 475.75 292.49" stroke="#008167" stroke-width="1.33333" stroke-miterlimit="10"/>
<g opacity="0.5">
<path d="M475.748 292.49C475.231 293.389 467.579 290.211 464.131 281.012C483.424 286.493 483.126 238.646 483.126 238.646C483.126 238.646 483.131 238.659 483.146 238.683C488.685 249.088 490.847 266.235 475.748 292.49Z" fill="#008167"/>
</g>
<path d="M438.581 253.109L438.59 253.203C438.575 253.136 438.581 253.109 438.581 253.109Z" fill="#008167"/>
<path d="M490.58 292.088V313.681C490.58 319.998 485.458 325.119 479.14 325.119H468.982C467.02 325.12 465.09 324.616 463.379 323.655C461.668 322.694 460.233 321.309 459.213 319.633H459.21C458.116 317.84 457.539 315.781 457.542 313.681V292.088H490.58Z" fill="#FFA24D"/>
<path d="M491.78 289.287H456.342C456.231 289.287 456.121 289.309 456.019 289.351C455.917 289.394 455.824 289.456 455.746 289.534C455.668 289.613 455.606 289.706 455.563 289.808C455.521 289.91 455.499 290.02 455.499 290.131V291.245C455.499 291.711 455.876 292.089 456.342 292.089H491.78C492.246 292.089 492.624 291.711 492.624 291.245V290.131C492.624 289.907 492.535 289.692 492.377 289.534C492.219 289.376 492.004 289.287 491.78 289.287" fill="#FFA24D"/>
<path d="M490.58 292.088V313.681C490.58 319.998 485.458 325.119 479.14 325.119H468.982C467.02 325.12 465.09 324.616 463.379 323.655C461.668 322.694 460.233 321.309 459.213 319.633C483.41 327.23 488.666 309.441 487.73 302.387C486.797 295.331 478.078 292.088 478.078 292.088H490.58Z" fill="#F68400"/>
</svg>
