<svg width="223" height="55" fill="none" xmlns="http://www.w3.org/2000/svg"><path d="M221 16c-12.719-6-24.765-8.477-39-8.778-32.386-.684-64.734 3.757-97 6C57.92 15.105 30.81 16 3.667 16c-9.383 0 20.712-7.215 28.11-1.444 8.787 6.853 12.42 16.805 17.556 26.333.74 1.373 5.46 9.606 5.611 7.778.483-5.79-.55-11.492 1.112-17.167 1.63-5.573 1.163-6.395 6.333-7.611 4.168-.98 3.736-2.116 6.111 3 .364.785 4.804 6.516 5.556 5.389 1.618-2.428 6.038-10.824 8.888-3.223C84.521 33.26 89.13 32 93 32c6.59 0 11.554.343 17.778 2.556 2.434.865 5.453.444 8 .444h36.444c7.994 0 15.839.043 23.778-1.111 7.761-1.128 21.752-1.47 27.222-8.334 8.374-10.506-1.896-19.475-12-19.555-12.277-.097-20.92-.662-30.555 7.778-8.681 7.603-14.667 18.266-14.667 30 0 2.512.695 6.069-1.056 8.11-4.366 5.095-34.375-17.286-38.333-19.832C95.115 22.73 81.181 12.047 66.5 3.11c-.855-.52-4.698-1.768-.5-.667 10.867 2.85 21.603 5.976 32.611 8.278 16.776 3.509 33.583 7.665 50.556 10.111 9.204 1.327 18.913 3.473 28.166 4.111 4.73.327 2.115.056-.944.056H164" stroke="#000" stroke-width="3" stroke-linecap="round"/></svg>