<svg width="30" height="31" viewBox="0 0 30 31" fill="none" xmlns="http://www.w3.org/2000/svg">
<path d="M18.561 15.0055L29.7034 3.86379C30.099 3.46813 30.099 2.82786 29.7034 2.43233L27.5739 0.302069C27.3843 0.11254 27.1269 0.00582886 26.8583 0.00582886C26.5896 0.00582886 26.3322 0.11254 26.1425 0.302069L15.0001 11.4446L3.85771 0.302069C3.66805 0.11254 3.41068 0.00582886 3.14198 0.00582886C2.87334 0.00582886 2.61591 0.11254 2.42631 0.302069L0.296836 2.43233C-0.0988234 2.82786 -0.0988234 3.46813 0.296836 3.86379L11.4392 15.0055L0.297943 26.1459C-0.0975212 26.5416 -0.0975212 27.1819 0.297943 27.5774L2.42755 29.7076C2.61708 29.8972 2.87452 30.0039 3.14322 30.0039C3.41192 30.0039 3.66929 29.8972 3.85901 29.7076L15.0001 18.5664L26.1412 29.7076C26.3308 29.8972 26.5882 30.0039 26.8569 30.0039C27.1256 30.0039 27.383 29.8972 27.5725 29.7076L29.7022 27.5774C30.0976 27.1819 30.0976 26.5416 29.7022 26.1459L18.561 15.0055Z" fill="black"/>
</svg>
